<?xml version="1.0" encoding="utf-8" standalone="no"?>
<!DOCTYPE svg PUBLIC "-//W3C//DTD SVG 1.1//EN"
  "http://www.w3.org/Graphics/SVG/1.1/DTD/svg11.dtd">
<svg xmlns:xlink="http://www.w3.org/1999/xlink" width="514.761813pt" height="278.383125pt" viewBox="0 0 514.761813 278.383125" xmlns="http://www.w3.org/2000/svg" version="1.1">
 <metadata>
  <rdf:RDF xmlns:dc="http://purl.org/dc/elements/1.1/" xmlns:cc="http://creativecommons.org/ns#" xmlns:rdf="http://www.w3.org/1999/02/22-rdf-syntax-ns#">
   <cc:Work>
    <dc:type rdf:resource="http://purl.org/dc/dcmitype/StillImage"/>
    <dc:date>2026-05-17T18:02:42.044415</dc:date>
    <dc:format>image/svg+xml</dc:format>
    <dc:creator>
     <cc:Agent>
      <dc:title>Matplotlib v3.10.9, https://matplotlib.org/</dc:title>
     </cc:Agent>
    </dc:creator>
   </cc:Work>
  </rdf:RDF>
 </metadata>
 <defs>
  <style type="text/css">*{stroke-linejoin: round; stroke-linecap: butt}</style>
 </defs>
 <g id="figure_1">
  <g id="patch_1">
   <path d="M 0 278.383125 
L 514.761813 278.383125 
L 514.761813 0 
L 0 0 
z
" style="fill: #ffffff"/>
  </g>
  <g id="axes_1">
   <g id="patch_2">
    <path d="M 53.10625 241.9485 
L 499.50625 241.9485 
L 499.50625 20.1885 
L 53.10625 20.1885 
z
" style="fill: #ffffff"/>
   </g>
   <g id="matplotlib.axis_1">
    <g id="xtick_1">
     <g id="text_1">
      <!-- LSTM3_31f2b090 -->
      <g style="fill: #262626" transform="translate(46.028313 256.654625) scale(0.088 -0.088)">
       <defs>
        <path id="ArialMT-4c" d="M 469 0 
L 469 4581 
L 1075 4581 
L 1075 541 
L 3331 541 
L 3331 0 
L 469 0 
z
" transform="scale(0.015625)"/>
        <path id="ArialMT-53" d="M 288 1472 
L 859 1522 
Q 900 1178 1048 958 
Q 1197 738 1509 602 
Q 1822 466 2213 466 
Q 2559 466 2825 569 
Q 3091 672 3220 851 
Q 3350 1031 3350 1244 
Q 3350 1459 3225 1620 
Q 3100 1781 2813 1891 
Q 2628 1963 1997 2114 
Q 1366 2266 1113 2400 
Q 784 2572 623 2826 
Q 463 3081 463 3397 
Q 463 3744 659 4045 
Q 856 4347 1234 4503 
Q 1613 4659 2075 4659 
Q 2584 4659 2973 4495 
Q 3363 4331 3572 4012 
Q 3781 3694 3797 3291 
L 3216 3247 
Q 3169 3681 2898 3903 
Q 2628 4125 2100 4125 
Q 1550 4125 1298 3923 
Q 1047 3722 1047 3438 
Q 1047 3191 1225 3031 
Q 1400 2872 2139 2705 
Q 2878 2538 3153 2413 
Q 3553 2228 3743 1945 
Q 3934 1663 3934 1294 
Q 3934 928 3725 604 
Q 3516 281 3123 101 
Q 2731 -78 2241 -78 
Q 1619 -78 1198 103 
Q 778 284 539 648 
Q 300 1013 288 1472 
z
" transform="scale(0.015625)"/>
        <path id="ArialMT-54" d="M 1659 0 
L 1659 4041 
L 150 4041 
L 150 4581 
L 3781 4581 
L 3781 4041 
L 2266 4041 
L 2266 0 
L 1659 0 
z
" transform="scale(0.015625)"/>
        <path id="ArialMT-4d" d="M 475 0 
L 475 4581 
L 1388 4581 
L 2472 1338 
Q 2622 884 2691 659 
Q 2769 909 2934 1394 
L 4031 4581 
L 4847 4581 
L 4847 0 
L 4263 0 
L 4263 3834 
L 2931 0 
L 2384 0 
L 1059 3900 
L 1059 0 
L 475 0 
z
" transform="scale(0.015625)"/>
        <path id="ArialMT-33" d="M 269 1209 
L 831 1284 
Q 928 806 1161 595 
Q 1394 384 1728 384 
Q 2125 384 2398 659 
Q 2672 934 2672 1341 
Q 2672 1728 2419 1979 
Q 2166 2231 1775 2231 
Q 1616 2231 1378 2169 
L 1441 2663 
Q 1497 2656 1531 2656 
Q 1891 2656 2178 2843 
Q 2466 3031 2466 3422 
Q 2466 3731 2256 3934 
Q 2047 4138 1716 4138 
Q 1388 4138 1169 3931 
Q 950 3725 888 3313 
L 325 3413 
Q 428 3978 793 4289 
Q 1159 4600 1703 4600 
Q 2078 4600 2393 4439 
Q 2709 4278 2876 4000 
Q 3044 3722 3044 3409 
Q 3044 3113 2884 2869 
Q 2725 2625 2413 2481 
Q 2819 2388 3044 2092 
Q 3269 1797 3269 1353 
Q 3269 753 2831 336 
Q 2394 -81 1725 -81 
Q 1122 -81 723 278 
Q 325 638 269 1209 
z
" transform="scale(0.015625)"/>
        <path id="ArialMT-5f" d="M -97 -1272 
L -97 -866 
L 3631 -866 
L 3631 -1272 
L -97 -1272 
z
" transform="scale(0.015625)"/>
        <path id="ArialMT-31" d="M 2384 0 
L 1822 0 
L 1822 3584 
Q 1619 3391 1289 3197 
Q 959 3003 697 2906 
L 697 3450 
Q 1169 3672 1522 3987 
Q 1875 4303 2022 4600 
L 2384 4600 
L 2384 0 
z
" transform="scale(0.015625)"/>
        <path id="ArialMT-66" d="M 556 0 
L 556 2881 
L 59 2881 
L 59 3319 
L 556 3319 
L 556 3672 
Q 556 4006 616 4169 
Q 697 4388 901 4523 
Q 1106 4659 1475 4659 
Q 1713 4659 2000 4603 
L 1916 4113 
Q 1741 4144 1584 4144 
Q 1328 4144 1222 4034 
Q 1116 3925 1116 3625 
L 1116 3319 
L 1763 3319 
L 1763 2881 
L 1116 2881 
L 1116 0 
L 556 0 
z
" transform="scale(0.015625)"/>
        <path id="ArialMT-32" d="M 3222 541 
L 3222 0 
L 194 0 
Q 188 203 259 391 
Q 375 700 629 1000 
Q 884 1300 1366 1694 
Q 2113 2306 2375 2664 
Q 2638 3022 2638 3341 
Q 2638 3675 2398 3904 
Q 2159 4134 1775 4134 
Q 1369 4134 1125 3890 
Q 881 3647 878 3216 
L 300 3275 
Q 359 3922 746 4261 
Q 1134 4600 1788 4600 
Q 2447 4600 2831 4234 
Q 3216 3869 3216 3328 
Q 3216 3053 3103 2787 
Q 2991 2522 2730 2228 
Q 2469 1934 1863 1422 
Q 1356 997 1212 845 
Q 1069 694 975 541 
L 3222 541 
z
" transform="scale(0.015625)"/>
        <path id="ArialMT-62" d="M 941 0 
L 419 0 
L 419 4581 
L 981 4581 
L 981 2947 
Q 1338 3394 1891 3394 
Q 2197 3394 2470 3270 
Q 2744 3147 2920 2923 
Q 3097 2700 3197 2384 
Q 3297 2069 3297 1709 
Q 3297 856 2875 390 
Q 2453 -75 1863 -75 
Q 1275 -75 941 416 
L 941 0 
z
M 934 1684 
Q 934 1088 1097 822 
Q 1363 388 1816 388 
Q 2184 388 2453 708 
Q 2722 1028 2722 1663 
Q 2722 2313 2464 2622 
Q 2206 2931 1841 2931 
Q 1472 2931 1203 2611 
Q 934 2291 934 1684 
z
" transform="scale(0.015625)"/>
        <path id="ArialMT-30" d="M 266 2259 
Q 266 3072 433 3567 
Q 600 4063 929 4331 
Q 1259 4600 1759 4600 
Q 2128 4600 2406 4451 
Q 2684 4303 2865 4023 
Q 3047 3744 3150 3342 
Q 3253 2941 3253 2259 
Q 3253 1453 3087 958 
Q 2922 463 2592 192 
Q 2263 -78 1759 -78 
Q 1097 -78 719 397 
Q 266 969 266 2259 
z
M 844 2259 
Q 844 1131 1108 757 
Q 1372 384 1759 384 
Q 2147 384 2411 759 
Q 2675 1134 2675 2259 
Q 2675 3391 2411 3762 
Q 2147 4134 1753 4134 
Q 1366 4134 1134 3806 
Q 844 3388 844 2259 
z
" transform="scale(0.015625)"/>
        <path id="ArialMT-39" d="M 350 1059 
L 891 1109 
Q 959 728 1153 556 
Q 1347 384 1650 384 
Q 1909 384 2104 503 
Q 2300 622 2425 820 
Q 2550 1019 2634 1356 
Q 2719 1694 2719 2044 
Q 2719 2081 2716 2156 
Q 2547 1888 2255 1720 
Q 1963 1553 1622 1553 
Q 1053 1553 659 1965 
Q 266 2378 266 3053 
Q 266 3750 677 4175 
Q 1088 4600 1706 4600 
Q 2153 4600 2523 4359 
Q 2894 4119 3086 3673 
Q 3278 3228 3278 2384 
Q 3278 1506 3087 986 
Q 2897 466 2520 194 
Q 2144 -78 1638 -78 
Q 1100 -78 759 220 
Q 419 519 350 1059 
z
M 2653 3081 
Q 2653 3566 2395 3850 
Q 2138 4134 1775 4134 
Q 1400 4134 1122 3828 
Q 844 3522 844 3034 
Q 844 2597 1108 2323 
Q 1372 2050 1759 2050 
Q 2150 2050 2401 2323 
Q 2653 2597 2653 3081 
z
" transform="scale(0.015625)"/>
       </defs>
       <use xlink:href="#ArialMT-4c"/>
       <use xlink:href="#ArialMT-53" transform="translate(55.615234 0)"/>
       <use xlink:href="#ArialMT-54" transform="translate(122.314453 0)"/>
       <use xlink:href="#ArialMT-4d" transform="translate(183.398438 0)"/>
       <use xlink:href="#ArialMT-33" transform="translate(266.699219 0)"/>
       <use xlink:href="#ArialMT-5f" transform="translate(322.314453 0)"/>
       <use xlink:href="#ArialMT-33" transform="translate(377.929688 0)"/>
       <use xlink:href="#ArialMT-31" transform="translate(433.544922 0)"/>
       <use xlink:href="#ArialMT-66" transform="translate(489.160156 0)"/>
       <use xlink:href="#ArialMT-32" transform="translate(516.943359 0)"/>
       <use xlink:href="#ArialMT-62" transform="translate(572.558594 0)"/>
       <use xlink:href="#ArialMT-30" transform="translate(628.173828 0)"/>
       <use xlink:href="#ArialMT-39" transform="translate(683.789062 0)"/>
       <use xlink:href="#ArialMT-30" transform="translate(739.404297 0)"/>
      </g>
     </g>
    </g>
    <g id="xtick_2">
     <g id="text_2">
      <!-- LSTM15_a2ecd335 -->
      <g style="fill: #262626" transform="translate(98.403875 256.654625) scale(0.088 -0.088)">
       <defs>
        <path id="ArialMT-35" d="M 266 1200 
L 856 1250 
Q 922 819 1161 601 
Q 1400 384 1738 384 
Q 2144 384 2425 690 
Q 2706 997 2706 1503 
Q 2706 1984 2436 2262 
Q 2166 2541 1728 2541 
Q 1456 2541 1237 2417 
Q 1019 2294 894 2097 
L 366 2166 
L 809 4519 
L 3088 4519 
L 3088 3981 
L 1259 3981 
L 1013 2750 
Q 1425 3038 1878 3038 
Q 2478 3038 2890 2622 
Q 3303 2206 3303 1553 
Q 3303 931 2941 478 
Q 2500 -78 1738 -78 
Q 1113 -78 717 272 
Q 322 622 266 1200 
z
" transform="scale(0.015625)"/>
        <path id="ArialMT-61" d="M 2588 409 
Q 2275 144 1986 34 
Q 1697 -75 1366 -75 
Q 819 -75 525 192 
Q 231 459 231 875 
Q 231 1119 342 1320 
Q 453 1522 633 1644 
Q 813 1766 1038 1828 
Q 1203 1872 1538 1913 
Q 2219 1994 2541 2106 
Q 2544 2222 2544 2253 
Q 2544 2597 2384 2738 
Q 2169 2928 1744 2928 
Q 1347 2928 1158 2789 
Q 969 2650 878 2297 
L 328 2372 
Q 403 2725 575 2942 
Q 747 3159 1072 3276 
Q 1397 3394 1825 3394 
Q 2250 3394 2515 3294 
Q 2781 3194 2906 3042 
Q 3031 2891 3081 2659 
Q 3109 2516 3109 2141 
L 3109 1391 
Q 3109 606 3145 398 
Q 3181 191 3288 0 
L 2700 0 
Q 2613 175 2588 409 
z
M 2541 1666 
Q 2234 1541 1622 1453 
Q 1275 1403 1131 1340 
Q 988 1278 909 1158 
Q 831 1038 831 891 
Q 831 666 1001 516 
Q 1172 366 1500 366 
Q 1825 366 2078 508 
Q 2331 650 2450 897 
Q 2541 1088 2541 1459 
L 2541 1666 
z
" transform="scale(0.015625)"/>
        <path id="ArialMT-65" d="M 2694 1069 
L 3275 997 
Q 3138 488 2766 206 
Q 2394 -75 1816 -75 
Q 1088 -75 661 373 
Q 234 822 234 1631 
Q 234 2469 665 2931 
Q 1097 3394 1784 3394 
Q 2450 3394 2872 2941 
Q 3294 2488 3294 1666 
Q 3294 1616 3291 1516 
L 816 1516 
Q 847 969 1125 678 
Q 1403 388 1819 388 
Q 2128 388 2347 550 
Q 2566 713 2694 1069 
z
M 847 1978 
L 2700 1978 
Q 2663 2397 2488 2606 
Q 2219 2931 1791 2931 
Q 1403 2931 1139 2672 
Q 875 2413 847 1978 
z
" transform="scale(0.015625)"/>
        <path id="ArialMT-63" d="M 2588 1216 
L 3141 1144 
Q 3050 572 2676 248 
Q 2303 -75 1759 -75 
Q 1078 -75 664 370 
Q 250 816 250 1647 
Q 250 2184 428 2587 
Q 606 2991 970 3192 
Q 1334 3394 1763 3394 
Q 2303 3394 2647 3120 
Q 2991 2847 3088 2344 
L 2541 2259 
Q 2463 2594 2264 2762 
Q 2066 2931 1784 2931 
Q 1359 2931 1093 2626 
Q 828 2322 828 1663 
Q 828 994 1084 691 
Q 1341 388 1753 388 
Q 2084 388 2306 591 
Q 2528 794 2588 1216 
z
" transform="scale(0.015625)"/>
        <path id="ArialMT-64" d="M 2575 0 
L 2575 419 
Q 2259 -75 1647 -75 
Q 1250 -75 917 144 
Q 584 363 401 755 
Q 219 1147 219 1656 
Q 219 2153 384 2558 
Q 550 2963 881 3178 
Q 1213 3394 1622 3394 
Q 1922 3394 2156 3267 
Q 2391 3141 2538 2938 
L 2538 4581 
L 3097 4581 
L 3097 0 
L 2575 0 
z
M 797 1656 
Q 797 1019 1065 703 
Q 1334 388 1700 388 
Q 2069 388 2326 689 
Q 2584 991 2584 1609 
Q 2584 2291 2321 2609 
Q 2059 2928 1675 2928 
Q 1300 2928 1048 2622 
Q 797 2316 797 1656 
z
" transform="scale(0.015625)"/>
       </defs>
       <use xlink:href="#ArialMT-4c"/>
       <use xlink:href="#ArialMT-53" transform="translate(55.615234 0)"/>
       <use xlink:href="#ArialMT-54" transform="translate(122.314453 0)"/>
       <use xlink:href="#ArialMT-4d" transform="translate(183.398438 0)"/>
       <use xlink:href="#ArialMT-31" transform="translate(266.699219 0)"/>
       <use xlink:href="#ArialMT-35" transform="translate(322.314453 0)"/>
       <use xlink:href="#ArialMT-5f" transform="translate(377.929688 0)"/>
       <use xlink:href="#ArialMT-61" transform="translate(433.544922 0)"/>
       <use xlink:href="#ArialMT-32" transform="translate(489.160156 0)"/>
       <use xlink:href="#ArialMT-65" transform="translate(544.775391 0)"/>
       <use xlink:href="#ArialMT-63" transform="translate(600.390625 0)"/>
       <use xlink:href="#ArialMT-64" transform="translate(650.390625 0)"/>
       <use xlink:href="#ArialMT-33" transform="translate(706.005859 0)"/>
       <use xlink:href="#ArialMT-33" transform="translate(761.621094 0)"/>
       <use xlink:href="#ArialMT-35" transform="translate(817.236328 0)"/>
      </g>
     </g>
    </g>
    <g id="xtick_3">
     <g id="text_3">
      <!-- Lin29_be37972a -->
      <g style="fill: #262626" transform="translate(159.820062 256.5735) scale(0.088 -0.088)">
       <defs>
        <path id="ArialMT-69" d="M 425 3934 
L 425 4581 
L 988 4581 
L 988 3934 
L 425 3934 
z
M 425 0 
L 425 3319 
L 988 3319 
L 988 0 
L 425 0 
z
" transform="scale(0.015625)"/>
        <path id="ArialMT-6e" d="M 422 0 
L 422 3319 
L 928 3319 
L 928 2847 
Q 1294 3394 1984 3394 
Q 2284 3394 2536 3286 
Q 2788 3178 2913 3003 
Q 3038 2828 3088 2588 
Q 3119 2431 3119 2041 
L 3119 0 
L 2556 0 
L 2556 2019 
Q 2556 2363 2490 2533 
Q 2425 2703 2258 2804 
Q 2091 2906 1866 2906 
Q 1506 2906 1245 2678 
Q 984 2450 984 1813 
L 984 0 
L 422 0 
z
" transform="scale(0.015625)"/>
        <path id="ArialMT-37" d="M 303 3981 
L 303 4522 
L 3269 4522 
L 3269 4084 
Q 2831 3619 2401 2847 
Q 1972 2075 1738 1259 
Q 1569 684 1522 0 
L 944 0 
Q 953 541 1156 1306 
Q 1359 2072 1739 2783 
Q 2119 3494 2547 3981 
L 303 3981 
z
" transform="scale(0.015625)"/>
       </defs>
       <use xlink:href="#ArialMT-4c"/>
       <use xlink:href="#ArialMT-69" transform="translate(55.615234 0)"/>
       <use xlink:href="#ArialMT-6e" transform="translate(77.832031 0)"/>
       <use xlink:href="#ArialMT-32" transform="translate(133.447266 0)"/>
       <use xlink:href="#ArialMT-39" transform="translate(189.0625 0)"/>
       <use xlink:href="#ArialMT-5f" transform="translate(244.677734 0)"/>
       <use xlink:href="#ArialMT-62" transform="translate(300.292969 0)"/>
       <use xlink:href="#ArialMT-65" transform="translate(355.908203 0)"/>
       <use xlink:href="#ArialMT-33" transform="translate(411.523438 0)"/>
       <use xlink:href="#ArialMT-37" transform="translate(467.138672 0)"/>
       <use xlink:href="#ArialMT-39" transform="translate(522.753906 0)"/>
       <use xlink:href="#ArialMT-37" transform="translate(578.369141 0)"/>
       <use xlink:href="#ArialMT-32" transform="translate(633.984375 0)"/>
       <use xlink:href="#ArialMT-61" transform="translate(689.599609 0)"/>
      </g>
     </g>
    </g>
    <g id="xtick_4">
     <g id="text_4">
      <!-- LSTM4_c88bc0e2 -->
      <g style="fill: #262626" transform="translate(212.6975 256.654625) scale(0.088 -0.088)">
       <defs>
        <path id="ArialMT-34" d="M 2069 0 
L 2069 1097 
L 81 1097 
L 81 1613 
L 2172 4581 
L 2631 4581 
L 2631 1613 
L 3250 1613 
L 3250 1097 
L 2631 1097 
L 2631 0 
L 2069 0 
z
M 2069 1613 
L 2069 3678 
L 634 1613 
L 2069 1613 
z
" transform="scale(0.015625)"/>
        <path id="ArialMT-38" d="M 1131 2484 
Q 781 2613 612 2850 
Q 444 3088 444 3419 
Q 444 3919 803 4259 
Q 1163 4600 1759 4600 
Q 2359 4600 2725 4251 
Q 3091 3903 3091 3403 
Q 3091 3084 2923 2848 
Q 2756 2613 2416 2484 
Q 2838 2347 3058 2040 
Q 3278 1734 3278 1309 
Q 3278 722 2862 322 
Q 2447 -78 1769 -78 
Q 1091 -78 675 323 
Q 259 725 259 1325 
Q 259 1772 486 2073 
Q 713 2375 1131 2484 
z
M 1019 3438 
Q 1019 3113 1228 2906 
Q 1438 2700 1772 2700 
Q 2097 2700 2305 2904 
Q 2513 3109 2513 3406 
Q 2513 3716 2298 3927 
Q 2084 4138 1766 4138 
Q 1444 4138 1231 3931 
Q 1019 3725 1019 3438 
z
M 838 1322 
Q 838 1081 952 856 
Q 1066 631 1291 507 
Q 1516 384 1775 384 
Q 2178 384 2440 643 
Q 2703 903 2703 1303 
Q 2703 1709 2433 1975 
Q 2163 2241 1756 2241 
Q 1359 2241 1098 1978 
Q 838 1716 838 1322 
z
" transform="scale(0.015625)"/>
       </defs>
       <use xlink:href="#ArialMT-4c"/>
       <use xlink:href="#ArialMT-53" transform="translate(55.615234 0)"/>
       <use xlink:href="#ArialMT-54" transform="translate(122.314453 0)"/>
       <use xlink:href="#ArialMT-4d" transform="translate(183.398438 0)"/>
       <use xlink:href="#ArialMT-34" transform="translate(266.699219 0)"/>
       <use xlink:href="#ArialMT-5f" transform="translate(322.314453 0)"/>
       <use xlink:href="#ArialMT-63" transform="translate(377.929688 0)"/>
       <use xlink:href="#ArialMT-38" transform="translate(427.929688 0)"/>
       <use xlink:href="#ArialMT-38" transform="translate(483.544922 0)"/>
       <use xlink:href="#ArialMT-62" transform="translate(539.160156 0)"/>
       <use xlink:href="#ArialMT-63" transform="translate(594.775391 0)"/>
       <use xlink:href="#ArialMT-30" transform="translate(644.775391 0)"/>
       <use xlink:href="#ArialMT-65" transform="translate(700.390625 0)"/>
       <use xlink:href="#ArialMT-32" transform="translate(756.005859 0)"/>
      </g>
     </g>
    </g>
    <g id="xtick_5">
     <g id="text_5">
      <!-- Lin28_bcef4a63 -->
      <g style="fill: #262626" transform="translate(272.891313 256.654625) scale(0.088 -0.088)">
       <defs>
        <path id="ArialMT-36" d="M 3184 3459 
L 2625 3416 
Q 2550 3747 2413 3897 
Q 2184 4138 1850 4138 
Q 1581 4138 1378 3988 
Q 1113 3794 959 3422 
Q 806 3050 800 2363 
Q 1003 2672 1297 2822 
Q 1591 2972 1913 2972 
Q 2475 2972 2870 2558 
Q 3266 2144 3266 1488 
Q 3266 1056 3080 686 
Q 2894 316 2569 119 
Q 2244 -78 1831 -78 
Q 1128 -78 684 439 
Q 241 956 241 2144 
Q 241 3472 731 4075 
Q 1159 4600 1884 4600 
Q 2425 4600 2770 4297 
Q 3116 3994 3184 3459 
z
M 888 1484 
Q 888 1194 1011 928 
Q 1134 663 1356 523 
Q 1578 384 1822 384 
Q 2178 384 2434 671 
Q 2691 959 2691 1453 
Q 2691 1928 2437 2201 
Q 2184 2475 1800 2475 
Q 1419 2475 1153 2201 
Q 888 1928 888 1484 
z
" transform="scale(0.015625)"/>
       </defs>
       <use xlink:href="#ArialMT-4c"/>
       <use xlink:href="#ArialMT-69" transform="translate(55.615234 0)"/>
       <use xlink:href="#ArialMT-6e" transform="translate(77.832031 0)"/>
       <use xlink:href="#ArialMT-32" transform="translate(133.447266 0)"/>
       <use xlink:href="#ArialMT-38" transform="translate(189.0625 0)"/>
       <use xlink:href="#ArialMT-5f" transform="translate(244.677734 0)"/>
       <use xlink:href="#ArialMT-62" transform="translate(300.292969 0)"/>
       <use xlink:href="#ArialMT-63" transform="translate(355.908203 0)"/>
       <use xlink:href="#ArialMT-65" transform="translate(405.908203 0)"/>
       <use xlink:href="#ArialMT-66" transform="translate(461.523438 0)"/>
       <use xlink:href="#ArialMT-34" transform="translate(489.306641 0)"/>
       <use xlink:href="#ArialMT-61" transform="translate(544.921875 0)"/>
       <use xlink:href="#ArialMT-36" transform="translate(600.537109 0)"/>
       <use xlink:href="#ArialMT-33" transform="translate(656.152344 0)"/>
      </g>
     </g>
    </g>
    <g id="xtick_6">
     <g id="text_6">
      <!-- LSTM9_8cefcc10 -->
      <g style="fill: #262626" transform="translate(325.76875 256.654625) scale(0.088 -0.088)">
       <use xlink:href="#ArialMT-4c"/>
       <use xlink:href="#ArialMT-53" transform="translate(55.615234 0)"/>
       <use xlink:href="#ArialMT-54" transform="translate(122.314453 0)"/>
       <use xlink:href="#ArialMT-4d" transform="translate(183.398438 0)"/>
       <use xlink:href="#ArialMT-39" transform="translate(266.699219 0)"/>
       <use xlink:href="#ArialMT-5f" transform="translate(322.314453 0)"/>
       <use xlink:href="#ArialMT-38" transform="translate(377.929688 0)"/>
       <use xlink:href="#ArialMT-63" transform="translate(433.544922 0)"/>
       <use xlink:href="#ArialMT-65" transform="translate(483.544922 0)"/>
       <use xlink:href="#ArialMT-66" transform="translate(539.160156 0)"/>
       <use xlink:href="#ArialMT-63" transform="translate(566.943359 0)"/>
       <use xlink:href="#ArialMT-63" transform="translate(616.943359 0)"/>
       <use xlink:href="#ArialMT-31" transform="translate(666.943359 0)"/>
       <use xlink:href="#ArialMT-30" transform="translate(722.558594 0)"/>
      </g>
     </g>
    </g>
    <g id="xtick_7">
     <g id="text_7">
      <!-- Lin29_fc7d4eac -->
      <g style="fill: #262626" transform="translate(384.738125 256.654625) scale(0.088 -0.088)">
       <use xlink:href="#ArialMT-4c"/>
       <use xlink:href="#ArialMT-69" transform="translate(55.615234 0)"/>
       <use xlink:href="#ArialMT-6e" transform="translate(77.832031 0)"/>
       <use xlink:href="#ArialMT-32" transform="translate(133.447266 0)"/>
       <use xlink:href="#ArialMT-39" transform="translate(189.0625 0)"/>
       <use xlink:href="#ArialMT-5f" transform="translate(244.677734 0)"/>
       <use xlink:href="#ArialMT-66" transform="translate(300.292969 0)"/>
       <use xlink:href="#ArialMT-63" transform="translate(328.076172 0)"/>
       <use xlink:href="#ArialMT-37" transform="translate(378.076172 0)"/>
       <use xlink:href="#ArialMT-64" transform="translate(433.691406 0)"/>
       <use xlink:href="#ArialMT-34" transform="translate(489.306641 0)"/>
       <use xlink:href="#ArialMT-65" transform="translate(544.921875 0)"/>
       <use xlink:href="#ArialMT-61" transform="translate(600.537109 0)"/>
       <use xlink:href="#ArialMT-63" transform="translate(656.152344 0)"/>
      </g>
     </g>
    </g>
    <g id="xtick_8">
     <g id="text_8">
      <!-- LSTM5_c7640be2 -->
      <g style="fill: #262626" transform="translate(435.650688 256.654625) scale(0.088 -0.088)">
       <use xlink:href="#ArialMT-4c"/>
       <use xlink:href="#ArialMT-53" transform="translate(55.615234 0)"/>
       <use xlink:href="#ArialMT-54" transform="translate(122.314453 0)"/>
       <use xlink:href="#ArialMT-4d" transform="translate(183.398438 0)"/>
       <use xlink:href="#ArialMT-35" transform="translate(266.699219 0)"/>
       <use xlink:href="#ArialMT-5f" transform="translate(322.314453 0)"/>
       <use xlink:href="#ArialMT-63" transform="translate(377.929688 0)"/>
       <use xlink:href="#ArialMT-37" transform="translate(427.929688 0)"/>
       <use xlink:href="#ArialMT-36" transform="translate(483.544922 0)"/>
       <use xlink:href="#ArialMT-34" transform="translate(539.160156 0)"/>
       <use xlink:href="#ArialMT-30" transform="translate(594.775391 0)"/>
       <use xlink:href="#ArialMT-62" transform="translate(650.390625 0)"/>
       <use xlink:href="#ArialMT-65" transform="translate(706.005859 0)"/>
       <use xlink:href="#ArialMT-32" transform="translate(761.621094 0)"/>
      </g>
     </g>
    </g>
    <g id="text_9">
     <!-- model_id -->
     <g style="fill: #262626" transform="translate(256.82875 269.275125) scale(0.096 -0.096)">
      <defs>
       <path id="ArialMT-6d" d="M 422 0 
L 422 3319 
L 925 3319 
L 925 2853 
Q 1081 3097 1340 3245 
Q 1600 3394 1931 3394 
Q 2300 3394 2536 3241 
Q 2772 3088 2869 2813 
Q 3263 3394 3894 3394 
Q 4388 3394 4653 3120 
Q 4919 2847 4919 2278 
L 4919 0 
L 4359 0 
L 4359 2091 
Q 4359 2428 4304 2576 
Q 4250 2725 4106 2815 
Q 3963 2906 3769 2906 
Q 3419 2906 3187 2673 
Q 2956 2441 2956 1928 
L 2956 0 
L 2394 0 
L 2394 2156 
Q 2394 2531 2256 2718 
Q 2119 2906 1806 2906 
Q 1569 2906 1367 2781 
Q 1166 2656 1075 2415 
Q 984 2175 984 1722 
L 984 0 
L 422 0 
z
" transform="scale(0.015625)"/>
       <path id="ArialMT-6f" d="M 213 1659 
Q 213 2581 725 3025 
Q 1153 3394 1769 3394 
Q 2453 3394 2887 2945 
Q 3322 2497 3322 1706 
Q 3322 1066 3130 698 
Q 2938 331 2570 128 
Q 2203 -75 1769 -75 
Q 1072 -75 642 372 
Q 213 819 213 1659 
z
M 791 1659 
Q 791 1022 1069 705 
Q 1347 388 1769 388 
Q 2188 388 2466 706 
Q 2744 1025 2744 1678 
Q 2744 2294 2464 2611 
Q 2184 2928 1769 2928 
Q 1347 2928 1069 2612 
Q 791 2297 791 1659 
z
" transform="scale(0.015625)"/>
       <path id="ArialMT-6c" d="M 409 0 
L 409 4581 
L 972 4581 
L 972 0 
L 409 0 
z
" transform="scale(0.015625)"/>
      </defs>
      <use xlink:href="#ArialMT-6d"/>
      <use xlink:href="#ArialMT-6f" transform="translate(83.300781 0)"/>
      <use xlink:href="#ArialMT-64" transform="translate(138.916016 0)"/>
      <use xlink:href="#ArialMT-65" transform="translate(194.53125 0)"/>
      <use xlink:href="#ArialMT-6c" transform="translate(250.146484 0)"/>
      <use xlink:href="#ArialMT-5f" transform="translate(272.363281 0)"/>
      <use xlink:href="#ArialMT-69" transform="translate(327.978516 0)"/>
      <use xlink:href="#ArialMT-64" transform="translate(350.195312 0)"/>
     </g>
    </g>
   </g>
   <g id="matplotlib.axis_2">
    <g id="ytick_1">
     <g id="line2d_1">
      <path d="M 53.10625 230.353002 
L 499.50625 230.353002 
" clip-path="url(#p3662e5b387)" style="fill: none; stroke: #cccccc; stroke-width: 0.8; stroke-linecap: round"/>
     </g>
     <g id="text_10">
      <!-- −1000 -->
      <g style="fill: #262626" transform="translate(20.092 233.502439) scale(0.088 -0.088)">
       <defs>
        <path id="ArialMT-2212" d="M 3381 1997 
L 356 1997 
L 356 2522 
L 3381 2522 
L 3381 1997 
z
" transform="scale(0.015625)"/>
       </defs>
       <use xlink:href="#ArialMT-2212"/>
       <use xlink:href="#ArialMT-31" transform="translate(58.398438 0)"/>
       <use xlink:href="#ArialMT-30" transform="translate(114.013672 0)"/>
       <use xlink:href="#ArialMT-30" transform="translate(169.628906 0)"/>
       <use xlink:href="#ArialMT-30" transform="translate(225.244141 0)"/>
      </g>
     </g>
    </g>
    <g id="ytick_2">
     <g id="line2d_2">
      <path d="M 53.10625 190.805239 
L 499.50625 190.805239 
" clip-path="url(#p3662e5b387)" style="fill: none; stroke: #cccccc; stroke-width: 0.8; stroke-linecap: round"/>
     </g>
     <g id="text_11">
      <!-- −500 -->
      <g style="fill: #262626" transform="translate(24.985625 193.954677) scale(0.088 -0.088)">
       <use xlink:href="#ArialMT-2212"/>
       <use xlink:href="#ArialMT-35" transform="translate(58.398438 0)"/>
       <use xlink:href="#ArialMT-30" transform="translate(114.013672 0)"/>
       <use xlink:href="#ArialMT-30" transform="translate(169.628906 0)"/>
      </g>
     </g>
    </g>
    <g id="ytick_3">
     <g id="line2d_3">
      <path d="M 53.10625 151.257476 
L 499.50625 151.257476 
" clip-path="url(#p3662e5b387)" style="fill: none; stroke: #cccccc; stroke-width: 0.8; stroke-linecap: round"/>
     </g>
     <g id="text_12">
      <!-- 0 -->
      <g style="fill: #262626" transform="translate(39.912625 154.406914) scale(0.088 -0.088)">
       <use xlink:href="#ArialMT-30"/>
      </g>
     </g>
    </g>
    <g id="ytick_4">
     <g id="line2d_4">
      <path d="M 53.10625 111.709713 
L 499.50625 111.709713 
" clip-path="url(#p3662e5b387)" style="fill: none; stroke: #cccccc; stroke-width: 0.8; stroke-linecap: round"/>
     </g>
     <g id="text_13">
      <!-- 500 -->
      <g style="fill: #262626" transform="translate(30.125375 114.859151) scale(0.088 -0.088)">
       <use xlink:href="#ArialMT-35"/>
       <use xlink:href="#ArialMT-30" transform="translate(55.615234 0)"/>
       <use xlink:href="#ArialMT-30" transform="translate(111.230469 0)"/>
      </g>
     </g>
    </g>
    <g id="ytick_5">
     <g id="line2d_5">
      <path d="M 53.10625 72.161951 
L 499.50625 72.161951 
" clip-path="url(#p3662e5b387)" style="fill: none; stroke: #cccccc; stroke-width: 0.8; stroke-linecap: round"/>
     </g>
     <g id="text_14">
      <!-- 1000 -->
      <g style="fill: #262626" transform="translate(25.23175 75.311388) scale(0.088 -0.088)">
       <use xlink:href="#ArialMT-31"/>
       <use xlink:href="#ArialMT-30" transform="translate(55.615234 0)"/>
       <use xlink:href="#ArialMT-30" transform="translate(111.230469 0)"/>
       <use xlink:href="#ArialMT-30" transform="translate(166.845703 0)"/>
      </g>
     </g>
    </g>
    <g id="ytick_6">
     <g id="line2d_6">
      <path d="M 53.10625 32.614188 
L 499.50625 32.614188 
" clip-path="url(#p3662e5b387)" style="fill: none; stroke: #cccccc; stroke-width: 0.8; stroke-linecap: round"/>
     </g>
     <g id="text_15">
      <!-- 1500 -->
      <g style="fill: #262626" transform="translate(25.23175 35.763625) scale(0.088 -0.088)">
       <use xlink:href="#ArialMT-31"/>
       <use xlink:href="#ArialMT-35" transform="translate(55.615234 0)"/>
       <use xlink:href="#ArialMT-30" transform="translate(111.230469 0)"/>
       <use xlink:href="#ArialMT-30" transform="translate(166.845703 0)"/>
      </g>
     </g>
    </g>
    <g id="text_16">
     <!-- y_pred - y_true [sec] -->
     <g style="fill: #262626" transform="translate(14.0715 174.81825) rotate(-90) scale(0.096 -0.096)">
      <defs>
       <path id="ArialMT-79" d="M 397 -1278 
L 334 -750 
Q 519 -800 656 -800 
Q 844 -800 956 -737 
Q 1069 -675 1141 -563 
Q 1194 -478 1313 -144 
Q 1328 -97 1363 -6 
L 103 3319 
L 709 3319 
L 1400 1397 
Q 1534 1031 1641 628 
Q 1738 1016 1872 1384 
L 2581 3319 
L 3144 3319 
L 1881 -56 
Q 1678 -603 1566 -809 
Q 1416 -1088 1222 -1217 
Q 1028 -1347 759 -1347 
Q 597 -1347 397 -1278 
z
" transform="scale(0.015625)"/>
       <path id="ArialMT-70" d="M 422 -1272 
L 422 3319 
L 934 3319 
L 934 2888 
Q 1116 3141 1344 3267 
Q 1572 3394 1897 3394 
Q 2322 3394 2647 3175 
Q 2972 2956 3137 2557 
Q 3303 2159 3303 1684 
Q 3303 1175 3120 767 
Q 2938 359 2589 142 
Q 2241 -75 1856 -75 
Q 1575 -75 1351 44 
Q 1128 163 984 344 
L 984 -1272 
L 422 -1272 
z
M 931 1641 
Q 931 1000 1190 694 
Q 1450 388 1819 388 
Q 2194 388 2461 705 
Q 2728 1022 2728 1688 
Q 2728 2322 2467 2637 
Q 2206 2953 1844 2953 
Q 1484 2953 1207 2617 
Q 931 2281 931 1641 
z
" transform="scale(0.015625)"/>
       <path id="ArialMT-72" d="M 416 0 
L 416 3319 
L 922 3319 
L 922 2816 
Q 1116 3169 1280 3281 
Q 1444 3394 1641 3394 
Q 1925 3394 2219 3213 
L 2025 2691 
Q 1819 2813 1613 2813 
Q 1428 2813 1281 2702 
Q 1134 2591 1072 2394 
Q 978 2094 978 1738 
L 978 0 
L 416 0 
z
" transform="scale(0.015625)"/>
       <path id="ArialMT-20" transform="scale(0.015625)"/>
       <path id="ArialMT-2d" d="M 203 1375 
L 203 1941 
L 1931 1941 
L 1931 1375 
L 203 1375 
z
" transform="scale(0.015625)"/>
       <path id="ArialMT-74" d="M 1650 503 
L 1731 6 
Q 1494 -44 1306 -44 
Q 1000 -44 831 53 
Q 663 150 594 308 
Q 525 466 525 972 
L 525 2881 
L 113 2881 
L 113 3319 
L 525 3319 
L 525 4141 
L 1084 4478 
L 1084 3319 
L 1650 3319 
L 1650 2881 
L 1084 2881 
L 1084 941 
Q 1084 700 1114 631 
Q 1144 563 1211 522 
Q 1278 481 1403 481 
Q 1497 481 1650 503 
z
" transform="scale(0.015625)"/>
       <path id="ArialMT-75" d="M 2597 0 
L 2597 488 
Q 2209 -75 1544 -75 
Q 1250 -75 995 37 
Q 741 150 617 320 
Q 494 491 444 738 
Q 409 903 409 1263 
L 409 3319 
L 972 3319 
L 972 1478 
Q 972 1038 1006 884 
Q 1059 663 1231 536 
Q 1403 409 1656 409 
Q 1909 409 2131 539 
Q 2353 669 2445 892 
Q 2538 1116 2538 1541 
L 2538 3319 
L 3100 3319 
L 3100 0 
L 2597 0 
z
" transform="scale(0.015625)"/>
       <path id="ArialMT-5b" d="M 434 -1272 
L 434 4581 
L 1675 4581 
L 1675 4116 
L 997 4116 
L 997 -806 
L 1675 -806 
L 1675 -1272 
L 434 -1272 
z
" transform="scale(0.015625)"/>
       <path id="ArialMT-73" d="M 197 991 
L 753 1078 
Q 800 744 1014 566 
Q 1228 388 1613 388 
Q 2000 388 2187 545 
Q 2375 703 2375 916 
Q 2375 1106 2209 1216 
Q 2094 1291 1634 1406 
Q 1016 1563 777 1677 
Q 538 1791 414 1992 
Q 291 2194 291 2438 
Q 291 2659 392 2848 
Q 494 3038 669 3163 
Q 800 3259 1026 3326 
Q 1253 3394 1513 3394 
Q 1903 3394 2198 3281 
Q 2494 3169 2634 2976 
Q 2775 2784 2828 2463 
L 2278 2388 
Q 2241 2644 2061 2787 
Q 1881 2931 1553 2931 
Q 1166 2931 1000 2803 
Q 834 2675 834 2503 
Q 834 2394 903 2306 
Q 972 2216 1119 2156 
Q 1203 2125 1616 2013 
Q 2213 1853 2448 1751 
Q 2684 1650 2818 1456 
Q 2953 1263 2953 975 
Q 2953 694 2789 445 
Q 2625 197 2315 61 
Q 2006 -75 1616 -75 
Q 969 -75 630 194 
Q 291 463 197 991 
z
" transform="scale(0.015625)"/>
       <path id="ArialMT-5d" d="M 1363 -1272 
L 122 -1272 
L 122 -806 
L 800 -806 
L 800 4116 
L 122 4116 
L 122 4581 
L 1363 4581 
L 1363 -1272 
z
" transform="scale(0.015625)"/>
      </defs>
      <use xlink:href="#ArialMT-79"/>
      <use xlink:href="#ArialMT-5f" transform="translate(50 0)"/>
      <use xlink:href="#ArialMT-70" transform="translate(105.615234 0)"/>
      <use xlink:href="#ArialMT-72" transform="translate(161.230469 0)"/>
      <use xlink:href="#ArialMT-65" transform="translate(194.53125 0)"/>
      <use xlink:href="#ArialMT-64" transform="translate(250.146484 0)"/>
      <use xlink:href="#ArialMT-20" transform="translate(305.761719 0)"/>
      <use xlink:href="#ArialMT-2d" transform="translate(333.544922 0)"/>
      <use xlink:href="#ArialMT-20" transform="translate(366.845703 0)"/>
      <use xlink:href="#ArialMT-79" transform="translate(394.628906 0)"/>
      <use xlink:href="#ArialMT-5f" transform="translate(444.628906 0)"/>
      <use xlink:href="#ArialMT-74" transform="translate(500.244141 0)"/>
      <use xlink:href="#ArialMT-72" transform="translate(528.027344 0)"/>
      <use xlink:href="#ArialMT-75" transform="translate(561.328125 0)"/>
      <use xlink:href="#ArialMT-65" transform="translate(616.943359 0)"/>
      <use xlink:href="#ArialMT-20" transform="translate(672.558594 0)"/>
      <use xlink:href="#ArialMT-5b" transform="translate(700.341797 0)"/>
      <use xlink:href="#ArialMT-73" transform="translate(728.125 0)"/>
      <use xlink:href="#ArialMT-65" transform="translate(778.125 0)"/>
      <use xlink:href="#ArialMT-63" transform="translate(833.740234 0)"/>
      <use xlink:href="#ArialMT-5d" transform="translate(883.740234 0)"/>
     </g>
    </g>
   </g>
   <g id="FillBetweenPolyCollection_1">
    <defs>
     <path id="mcfe1447ce5" d="M 81.036572 -56.571 
L 80.975928 -56.571 
L 80.936558 -58.007834 
L 80.864579 -59.444668 
L 80.750214 -60.881502 
L 80.591601 -62.318335 
L 80.397371 -63.755169 
L 80.182388 -65.192003 
L 79.959378 -66.628837 
L 79.735633 -68.065671 
L 79.520958 -69.502505 
L 79.339883 -70.939339 
L 79.2315 -72.376173 
L 79.228434 -73.813006 
L 79.327995 -75.24984 
L 79.480909 -76.686674 
L 79.610976 -78.123508 
L 79.653002 -79.560342 
L 79.581603 -80.997176 
L 79.41299 -82.43401 
L 79.184492 -83.870844 
L 78.931276 -85.307678 
L 78.675902 -86.744511 
L 78.431636 -88.181345 
L 78.20986 -89.618179 
L 78.023118 -91.055013 
L 77.882729 -92.491847 
L 77.793971 -93.928681 
L 77.750032 -95.365515 
L 77.724053 -96.802349 
L 77.662367 -98.239182 
L 77.48796 -99.676016 
L 77.12161 -101.11285 
L 76.51538 -102.549684 
L 75.679145 -103.986518 
L 74.68006 -105.423352 
L 73.610345 -106.860186 
L 72.539675 -108.29702 
L 71.479996 -109.733853 
L 70.385382 -111.170687 
L 69.189606 -112.607521 
L 67.859914 -114.044355 
L 66.433374 -115.481189 
L 65.013837 -116.918023 
L 63.7357 -118.354857 
L 62.720007 -119.791691 
L 62.041736 -121.228525 
L 61.709537 -122.665358 
L 61.658264 -124.102192 
L 61.767402 -125.539026 
L 61.912938 -126.97586 
L 62.029024 -128.412694 
L 62.137513 -129.849528 
L 62.327611 -131.286362 
L 62.707409 -132.723196 
L 63.358632 -134.160029 
L 64.305976 -135.596863 
L 65.499414 -137.033697 
L 66.815225 -138.470531 
L 68.086853 -139.907365 
L 69.162987 -141.344199 
L 69.968713 -142.781033 
L 70.537437 -144.217867 
L 70.994478 -145.6547 
L 71.499336 -147.091534 
L 72.175209 -148.528368 
L 73.058055 -149.965202 
L 74.085156 -151.402036 
L 75.125684 -152.83887 
L 76.039509 -154.275704 
L 76.737165 -155.712538 
L 77.211244 -157.149372 
L 77.52539 -158.586205 
L 77.773235 -160.023039 
L 78.034936 -161.459873 
L 78.352396 -162.896707 
L 78.726673 -164.333541 
L 79.129509 -165.770375 
L 79.519899 -167.207209 
L 79.85969 -168.644043 
L 80.124208 -170.080876 
L 80.305682 -171.51771 
L 80.410229 -172.954544 
L 80.451945 -174.391378 
L 80.448093 -175.828212 
L 80.417014 -177.265046 
L 80.377288 -178.70188 
L 80.345715 -180.138714 
L 80.333763 -181.575548 
L 80.34507 -183.012381 
L 80.376763 -184.449215 
L 80.424151 -185.886049 
L 80.484842 -187.322883 
L 80.558698 -188.759717 
L 80.644114 -190.196551 
L 80.734799 -191.633385 
L 80.820572 -193.070219 
L 80.891681 -194.507052 
L 80.943006 -195.943886 
L 80.975197 -197.38072 
L 80.992744 -198.817554 
L 81.019756 -198.817554 
L 81.019756 -198.817554 
L 81.037303 -197.38072 
L 81.069494 -195.943886 
L 81.120819 -194.507052 
L 81.191928 -193.070219 
L 81.277701 -191.633385 
L 81.368386 -190.196551 
L 81.453802 -188.759717 
L 81.527658 -187.322883 
L 81.588349 -185.886049 
L 81.635737 -184.449215 
L 81.66743 -183.012381 
L 81.678737 -181.575548 
L 81.666785 -180.138714 
L 81.635212 -178.70188 
L 81.595486 -177.265046 
L 81.564407 -175.828212 
L 81.560555 -174.391378 
L 81.602271 -172.954544 
L 81.706818 -171.51771 
L 81.888292 -170.080876 
L 82.15281 -168.644043 
L 82.492601 -167.207209 
L 82.882991 -165.770375 
L 83.285827 -164.333541 
L 83.660104 -162.896707 
L 83.977564 -161.459873 
L 84.239265 -160.023039 
L 84.48711 -158.586205 
L 84.801256 -157.149372 
L 85.275335 -155.712538 
L 85.972991 -154.275704 
L 86.886816 -152.83887 
L 87.927344 -151.402036 
L 88.954445 -149.965202 
L 89.837291 -148.528368 
L 90.513164 -147.091534 
L 91.018022 -145.6547 
L 91.475063 -144.217867 
L 92.043787 -142.781033 
L 92.849513 -141.344199 
L 93.925647 -139.907365 
L 95.197275 -138.470531 
L 96.513086 -137.033697 
L 97.706524 -135.596863 
L 98.653868 -134.160029 
L 99.305091 -132.723196 
L 99.684889 -131.286362 
L 99.874987 -129.849528 
L 99.983476 -128.412694 
L 100.099562 -126.97586 
L 100.245098 -125.539026 
L 100.354236 -124.102192 
L 100.302963 -122.665358 
L 99.970764 -121.228525 
L 99.292493 -119.791691 
L 98.2768 -118.354857 
L 96.998663 -116.918023 
L 95.579126 -115.481189 
L 94.152586 -114.044355 
L 92.822894 -112.607521 
L 91.627118 -111.170687 
L 90.532504 -109.733853 
L 89.472825 -108.29702 
L 88.402155 -106.860186 
L 87.33244 -105.423352 
L 86.333355 -103.986518 
L 85.49712 -102.549684 
L 84.89089 -101.11285 
L 84.52454 -99.676016 
L 84.350133 -98.239182 
L 84.288447 -96.802349 
L 84.262468 -95.365515 
L 84.218529 -93.928681 
L 84.129771 -92.491847 
L 83.989382 -91.055013 
L 83.80264 -89.618179 
L 83.580864 -88.181345 
L 83.336598 -86.744511 
L 83.081224 -85.307678 
L 82.828008 -83.870844 
L 82.59951 -82.43401 
L 82.430897 -80.997176 
L 82.359498 -79.560342 
L 82.401524 -78.123508 
L 82.531591 -76.686674 
L 82.684505 -75.24984 
L 82.784066 -73.813006 
L 82.781 -72.376173 
L 82.672617 -70.939339 
L 82.491542 -69.502505 
L 82.276867 -68.065671 
L 82.053122 -66.628837 
L 81.830112 -65.192003 
L 81.615129 -63.755169 
L 81.420899 -62.318335 
L 81.262286 -60.881502 
L 81.147921 -59.444668 
L 81.075942 -58.007834 
L 81.036572 -56.571 
z
" style="stroke: #4c4c4c"/>
    </defs>
    <g clip-path="url(#p3662e5b387)">
     <use xlink:href="#mcfe1447ce5" x="0" y="278.383125" style="fill: #5875a4; stroke: #4c4c4c"/>
    </g>
   </g>
   <g id="FillBetweenPolyCollection_2">
    <defs>
     <path id="m6216b55830" d="M 136.858472 -74.176007 
L 136.754028 -74.176007 
L 136.693462 -75.36516 
L 136.582356 -76.554313 
L 136.395539 -77.743466 
L 136.105995 -78.932619 
L 135.690222 -80.121773 
L 135.135316 -81.310926 
L 134.447163 -82.500079 
L 133.658149 -83.689232 
L 132.830784 -84.878385 
L 132.05252 -86.067539 
L 131.419525 -87.256692 
L 131.013224 -88.445845 
L 130.878653 -89.634998 
L 131.013303 -90.824152 
L 131.369221 -92.013305 
L 131.864709 -93.202458 
L 132.399873 -94.391611 
L 132.872314 -95.580764 
L 133.192033 -96.769918 
L 133.295367 -97.959071 
L 133.156686 -99.148224 
L 132.794849 -100.337377 
L 132.270336 -101.52653 
L 131.669896 -102.715684 
L 131.079736 -103.904837 
L 130.555068 -105.09399 
L 130.098891 -106.283143 
L 129.661282 -107.472296 
L 129.161741 -108.66145 
L 128.526826 -109.850603 
L 127.729126 -111.039756 
L 126.812278 -112.228909 
L 125.888318 -113.418063 
L 125.099826 -114.607216 
L 124.554179 -115.796369 
L 124.256891 -116.985522 
L 124.080992 -118.174675 
L 123.796971 -119.363829 
L 123.157853 -120.552982 
L 122.005906 -121.742135 
L 120.356769 -122.931288 
L 118.423976 -124.120441 
L 116.565954 -125.309595 
L 115.165699 -126.498748 
L 114.48625 -127.687901 
L 114.566576 -128.877054 
L 115.211655 -130.066207 
L 116.084588 -131.255361 
L 116.85385 -132.444514 
L 117.321982 -133.633667 
L 117.479211 -134.82282 
L 117.471142 -136.011974 
L 117.512965 -137.201127 
L 117.800422 -138.39028 
L 118.455471 -139.579433 
L 119.514574 -140.768586 
L 120.94156 -141.95774 
L 122.642731 -143.146893 
L 124.478081 -144.336046 
L 126.279687 -145.525199 
L 127.887178 -146.714352 
L 129.192414 -147.903506 
L 130.170519 -149.092659 
L 130.878354 -150.281812 
L 131.421059 -151.470965 
L 131.905494 -152.660119 
L 132.403219 -153.849272 
L 132.935761 -155.038425 
L 133.481409 -156.227578 
L 133.994591 -157.416731 
L 134.428214 -158.605885 
L 134.752436 -159.795038 
L 134.965918 -160.984191 
L 135.096565 -162.173344 
L 135.190504 -163.362497 
L 135.292834 -164.551651 
L 135.429115 -165.740804 
L 135.597396 -166.929957 
L 135.774378 -168.11911 
L 135.930477 -169.308263 
L 136.044188 -170.497417 
L 136.108938 -171.68657 
L 136.131861 -172.875723 
L 136.128222 -174.064876 
L 136.115395 -175.25403 
L 136.108369 -176.443183 
L 136.117201 -177.632336 
L 136.146314 -178.821489 
L 136.1954 -180.010642 
L 136.261196 -181.199796 
L 136.339069 -182.388949 
L 136.423727 -183.578102 
L 136.509285 -184.767255 
L 136.589511 -185.956408 
L 136.658786 -187.145562 
L 136.713427 -188.334715 
L 136.752539 -189.523868 
L 136.777826 -190.713021 
L 136.792548 -191.902174 
L 136.819952 -191.902174 
L 136.819952 -191.902174 
L 136.834674 -190.713021 
L 136.859961 -189.523868 
L 136.899073 -188.334715 
L 136.953714 -187.145562 
L 137.022989 -185.956408 
L 137.103215 -184.767255 
L 137.188773 -183.578102 
L 137.273431 -182.388949 
L 137.351304 -181.199796 
L 137.4171 -180.010642 
L 137.466186 -178.821489 
L 137.495299 -177.632336 
L 137.504131 -176.443183 
L 137.497105 -175.25403 
L 137.484278 -174.064876 
L 137.480639 -172.875723 
L 137.503562 -171.68657 
L 137.568312 -170.497417 
L 137.682023 -169.308263 
L 137.838122 -168.11911 
L 138.015104 -166.929957 
L 138.183385 -165.740804 
L 138.319666 -164.551651 
L 138.421996 -163.362497 
L 138.515935 -162.173344 
L 138.646582 -160.984191 
L 138.860064 -159.795038 
L 139.184286 -158.605885 
L 139.617909 -157.416731 
L 140.131091 -156.227578 
L 140.676739 -155.038425 
L 141.209281 -153.849272 
L 141.707006 -152.660119 
L 142.191441 -151.470965 
L 142.734146 -150.281812 
L 143.441981 -149.092659 
L 144.420086 -147.903506 
L 145.725322 -146.714352 
L 147.332813 -145.525199 
L 149.134419 -144.336046 
L 150.969769 -143.146893 
L 152.67094 -141.95774 
L 154.097926 -140.768586 
L 155.157029 -139.579433 
L 155.812078 -138.39028 
L 156.099535 -137.201127 
L 156.141358 -136.011974 
L 156.133289 -134.82282 
L 156.290518 -133.633667 
L 156.75865 -132.444514 
L 157.527912 -131.255361 
L 158.400845 -130.066207 
L 159.045924 -128.877054 
L 159.12625 -127.687901 
L 158.446801 -126.498748 
L 157.046546 -125.309595 
L 155.188524 -124.120441 
L 153.255731 -122.931288 
L 151.606594 -121.742135 
L 150.454647 -120.552982 
L 149.815529 -119.363829 
L 149.531508 -118.174675 
L 149.355609 -116.985522 
L 149.058321 -115.796369 
L 148.512674 -114.607216 
L 147.724182 -113.418063 
L 146.800222 -112.228909 
L 145.883374 -111.039756 
L 145.085674 -109.850603 
L 144.450759 -108.66145 
L 143.951218 -107.472296 
L 143.513609 -106.283143 
L 143.057432 -105.09399 
L 142.532764 -103.904837 
L 141.942604 -102.715684 
L 141.342164 -101.52653 
L 140.817651 -100.337377 
L 140.455814 -99.148224 
L 140.317133 -97.959071 
L 140.420467 -96.769918 
L 140.740186 -95.580764 
L 141.212627 -94.391611 
L 141.747791 -93.202458 
L 142.243279 -92.013305 
L 142.599197 -90.824152 
L 142.733847 -89.634998 
L 142.599276 -88.445845 
L 142.192975 -87.256692 
L 141.55998 -86.067539 
L 140.781716 -84.878385 
L 139.954351 -83.689232 
L 139.165337 -82.500079 
L 138.477184 -81.310926 
L 137.922278 -80.121773 
L 137.506505 -78.932619 
L 137.216961 -77.743466 
L 137.030144 -76.554313 
L 136.919038 -75.36516 
L 136.858472 -74.176007 
z
" style="stroke: #4c4c4c"/>
    </defs>
    <g clip-path="url(#p3662e5b387)">
     <use xlink:href="#m6216b55830" x="0" y="278.383125" style="fill: #5875a4; stroke: #4c4c4c"/>
    </g>
   </g>
   <g id="FillBetweenPolyCollection_3">
    <defs>
     <path id="m73a17ae744" d="M 192.612982 -46.650813 
L 192.599518 -46.650813 
L 192.589919 -48.272541 
L 192.571953 -49.894269 
L 192.543638 -51.515996 
L 192.506154 -53.137724 
L 192.464029 -54.759451 
L 192.421416 -56.381179 
L 192.375826 -58.002907 
L 192.315043 -59.624634 
L 192.222686 -61.246362 
L 192.090913 -62.86809 
L 191.930903 -64.489817 
L 191.771479 -66.111545 
L 191.644462 -67.733273 
L 191.56495 -69.355 
L 191.518695 -70.976728 
L 191.465541 -72.598455 
L 191.358984 -74.220183 
L 191.17133 -75.841911 
L 190.90879 -77.463638 
L 190.607189 -79.085366 
L 190.313172 -80.707094 
L 190.065756 -82.328821 
L 189.889621 -83.950549 
L 189.799072 -85.572276 
L 189.802743 -87.194004 
L 189.901195 -88.815732 
L 190.078121 -90.437459 
L 190.292246 -92.059187 
L 190.478007 -93.680915 
L 190.558952 -95.302642 
L 190.47027 -96.92437 
L 190.179713 -98.546097 
L 189.695343 -100.167825 
L 189.055139 -101.789553 
L 188.302582 -103.41128 
L 187.458665 -105.033008 
L 186.504312 -106.654736 
L 185.389285 -108.276463 
L 184.076787 -109.898191 
L 182.605535 -111.519918 
L 181.118318 -113.141646 
L 179.813151 -114.763374 
L 178.83501 -116.385101 
L 178.185947 -118.006829 
L 177.721837 -119.628557 
L 177.234423 -121.250284 
L 176.557332 -122.872012 
L 175.632789 -124.49374 
L 174.520808 -126.115467 
L 173.376247 -127.737195 
L 172.419653 -129.358922 
L 171.89334 -130.98065 
L 171.982756 -132.602378 
L 172.727056 -134.224105 
L 173.988282 -135.845833 
L 175.520822 -137.467561 
L 177.09675 -139.089288 
L 178.592127 -140.711016 
L 179.979795 -142.332743 
L 181.261299 -143.954471 
L 182.416031 -145.576199 
L 183.410143 -147.197926 
L 184.238264 -148.819654 
L 184.944255 -150.441382 
L 185.600661 -152.063109 
L 186.269256 -153.684837 
L 186.973386 -155.306564 
L 187.694389 -156.928292 
L 188.386464 -158.55002 
L 188.998674 -160.171747 
L 189.495479 -161.793475 
L 189.870709 -163.415203 
L 190.150308 -165.03693 
L 190.380877 -166.658658 
L 190.608498 -168.280386 
L 190.859712 -169.902113 
L 191.134417 -171.523841 
L 191.410477 -173.145568 
L 191.653883 -174.767296 
L 191.831447 -176.389024 
L 191.925926 -178.010751 
L 191.948046 -179.632479 
L 191.934282 -181.254207 
L 191.927029 -182.875934 
L 191.950626 -184.497662 
L 192.002289 -186.119389 
L 192.062787 -187.741117 
L 192.113911 -189.362845 
L 192.148371 -190.984572 
L 192.169969 -192.6063 
L 192.189796 -194.228028 
L 192.221275 -195.849755 
L 192.273414 -197.471483 
L 192.344737 -199.09321 
L 192.423298 -200.714938 
L 192.493796 -202.336666 
L 192.546024 -203.958393 
L 192.578292 -205.580121 
L 192.595038 -207.201849 
L 192.617462 -207.201849 
L 192.617462 -207.201849 
L 192.634208 -205.580121 
L 192.666476 -203.958393 
L 192.718704 -202.336666 
L 192.789202 -200.714938 
L 192.867763 -199.09321 
L 192.939086 -197.471483 
L 192.991225 -195.849755 
L 193.022704 -194.228028 
L 193.042531 -192.6063 
L 193.064129 -190.984572 
L 193.098589 -189.362845 
L 193.149713 -187.741117 
L 193.210211 -186.119389 
L 193.261874 -184.497662 
L 193.285471 -182.875934 
L 193.278218 -181.254207 
L 193.264454 -179.632479 
L 193.286574 -178.010751 
L 193.381053 -176.389024 
L 193.558617 -174.767296 
L 193.802023 -173.145568 
L 194.078083 -171.523841 
L 194.352788 -169.902113 
L 194.604002 -168.280386 
L 194.831623 -166.658658 
L 195.062192 -165.03693 
L 195.341791 -163.415203 
L 195.717021 -161.793475 
L 196.213826 -160.171747 
L 196.826036 -158.55002 
L 197.518111 -156.928292 
L 198.239114 -155.306564 
L 198.943244 -153.684837 
L 199.611839 -152.063109 
L 200.268245 -150.441382 
L 200.974236 -148.819654 
L 201.802357 -147.197926 
L 202.796469 -145.576199 
L 203.951201 -143.954471 
L 205.232705 -142.332743 
L 206.620373 -140.711016 
L 208.11575 -139.089288 
L 209.691678 -137.467561 
L 211.224218 -135.845833 
L 212.485444 -134.224105 
L 213.229744 -132.602378 
L 213.31916 -130.98065 
L 212.792847 -129.358922 
L 211.836253 -127.737195 
L 210.691692 -126.115467 
L 209.579711 -124.49374 
L 208.655168 -122.872012 
L 207.978077 -121.250284 
L 207.490663 -119.628557 
L 207.026553 -118.006829 
L 206.37749 -116.385101 
L 205.399349 -114.763374 
L 204.094182 -113.141646 
L 202.606965 -111.519918 
L 201.135713 -109.898191 
L 199.823215 -108.276463 
L 198.708188 -106.654736 
L 197.753835 -105.033008 
L 196.909918 -103.41128 
L 196.157361 -101.789553 
L 195.517157 -100.167825 
L 195.032787 -98.546097 
L 194.74223 -96.92437 
L 194.653548 -95.302642 
L 194.734493 -93.680915 
L 194.920254 -92.059187 
L 195.134379 -90.437459 
L 195.311305 -88.815732 
L 195.409757 -87.194004 
L 195.413428 -85.572276 
L 195.322879 -83.950549 
L 195.146744 -82.328821 
L 194.899328 -80.707094 
L 194.605311 -79.085366 
L 194.30371 -77.463638 
L 194.04117 -75.841911 
L 193.853516 -74.220183 
L 193.746959 -72.598455 
L 193.693805 -70.976728 
L 193.64755 -69.355 
L 193.568038 -67.733273 
L 193.441021 -66.111545 
L 193.281597 -64.489817 
L 193.121587 -62.86809 
L 192.989814 -61.246362 
L 192.897457 -59.624634 
L 192.836674 -58.002907 
L 192.791084 -56.381179 
L 192.748471 -54.759451 
L 192.706346 -53.137724 
L 192.668862 -51.515996 
L 192.640547 -49.894269 
L 192.622581 -48.272541 
L 192.612982 -46.650813 
z
" style="stroke: #4c4c4c"/>
    </defs>
    <g clip-path="url(#p3662e5b387)">
     <use xlink:href="#m73a17ae744" x="0" y="278.383125" style="fill: #5875a4; stroke: #4c4c4c"/>
    </g>
   </g>
   <g id="FillBetweenPolyCollection_4">
    <defs>
     <path id="m076c384c8d" d="M 248.424715 -51.333441 
L 248.387785 -51.333441 
L 248.364207 -53.163152 
L 248.320183 -54.992862 
L 248.246852 -56.822572 
L 248.137112 -58.652283 
L 247.988169 -60.481993 
L 247.802713 -62.311703 
L 247.588307 -64.141413 
L 247.355941 -65.971124 
L 247.118899 -67.800834 
L 246.891926 -69.630544 
L 246.689593 -71.460254 
L 246.523305 -73.289965 
L 246.398079 -75.119675 
L 246.311168 -76.949385 
L 246.253349 -78.779095 
L 246.211339 -80.608806 
L 246.169181 -82.438516 
L 246.108592 -84.268226 
L 246.011095 -86.097937 
L 245.864161 -87.927647 
L 245.669095 -89.757357 
L 245.444149 -91.587067 
L 245.217713 -93.416778 
L 245.013081 -95.246488 
L 244.833148 -97.076198 
L 244.654619 -98.905908 
L 244.435448 -100.735619 
L 244.129164 -102.565329 
L 243.693239 -104.395039 
L 243.084343 -106.224749 
L 242.250608 -108.05446 
L 241.14328 -109.88417 
L 239.757425 -111.71388 
L 238.176647 -113.543591 
L 236.574514 -115.373301 
L 235.149425 -117.203011 
L 234.028302 -119.032721 
L 233.210175 -120.862432 
L 232.590667 -122.692142 
L 232.040297 -124.521852 
L 231.474659 -126.351562 
L 230.882536 -128.181273 
L 230.323717 -130.010983 
L 229.916272 -131.840693 
L 229.809303 -133.670403 
L 230.130311 -135.500114 
L 230.923726 -137.329824 
L 232.121782 -139.159534 
L 233.573544 -140.989245 
L 235.114057 -142.818955 
L 236.62764 -144.648665 
L 238.070675 -146.478375 
L 239.452326 -148.308086 
L 240.795643 -150.137796 
L 242.104123 -151.967506 
L 243.348163 -153.797216 
L 244.473059 -155.626927 
L 245.420463 -157.456637 
L 246.151006 -159.286347 
L 246.658334 -161.116057 
L 246.970942 -162.945768 
L 247.142979 -164.775478 
L 247.237362 -166.605188 
L 247.306774 -168.434899 
L 247.380462 -170.264609 
L 247.463185 -172.094319 
L 247.545315 -173.924029 
L 247.615474 -175.75374 
L 247.666775 -177.58345 
L 247.695153 -179.41316 
L 247.695824 -181.24287 
L 247.664134 -183.072581 
L 247.600663 -184.902291 
L 247.514635 -186.732001 
L 247.420562 -188.561711 
L 247.329477 -190.391422 
L 247.241976 -192.221132 
L 247.150043 -194.050842 
L 247.048173 -195.880553 
L 246.946347 -197.710263 
L 246.873859 -199.539973 
L 246.867942 -201.369683 
L 246.952308 -203.199394 
L 247.119744 -205.029104 
L 247.331062 -206.858814 
L 247.531055 -208.688524 
L 247.671208 -210.518235 
L 247.727534 -212.347945 
L 247.707826 -214.177655 
L 247.647796 -216.007365 
L 247.597319 -217.837076 
L 247.600242 -219.666786 
L 247.675874 -221.496496 
L 247.812319 -223.326207 
L 247.975752 -225.155917 
L 248.129137 -226.985627 
L 248.248181 -228.815337 
L 248.326465 -230.645048 
L 248.37065 -232.474758 
L 248.44185 -232.474758 
L 248.44185 -232.474758 
L 248.486035 -230.645048 
L 248.564319 -228.815337 
L 248.683363 -226.985627 
L 248.836748 -225.155917 
L 249.000181 -223.326207 
L 249.136626 -221.496496 
L 249.212258 -219.666786 
L 249.215181 -217.837076 
L 249.164704 -216.007365 
L 249.104674 -214.177655 
L 249.084966 -212.347945 
L 249.141292 -210.518235 
L 249.281445 -208.688524 
L 249.481438 -206.858814 
L 249.692756 -205.029104 
L 249.860192 -203.199394 
L 249.944558 -201.369683 
L 249.938641 -199.539973 
L 249.866153 -197.710263 
L 249.764327 -195.880553 
L 249.662457 -194.050842 
L 249.570524 -192.221132 
L 249.483023 -190.391422 
L 249.391938 -188.561711 
L 249.297865 -186.732001 
L 249.211837 -184.902291 
L 249.148366 -183.072581 
L 249.116676 -181.24287 
L 249.117347 -179.41316 
L 249.145725 -177.58345 
L 249.197026 -175.75374 
L 249.267185 -173.924029 
L 249.349315 -172.094319 
L 249.432038 -170.264609 
L 249.505726 -168.434899 
L 249.575138 -166.605188 
L 249.669521 -164.775478 
L 249.841558 -162.945768 
L 250.154166 -161.116057 
L 250.661494 -159.286347 
L 251.392037 -157.456637 
L 252.339441 -155.626927 
L 253.464337 -153.797216 
L 254.708377 -151.967506 
L 256.016857 -150.137796 
L 257.360174 -148.308086 
L 258.741825 -146.478375 
L 260.18486 -144.648665 
L 261.698443 -142.818955 
L 263.238956 -140.989245 
L 264.690718 -139.159534 
L 265.888774 -137.329824 
L 266.682189 -135.500114 
L 267.003197 -133.670403 
L 266.896228 -131.840693 
L 266.488783 -130.010983 
L 265.929964 -128.181273 
L 265.337841 -126.351562 
L 264.772203 -124.521852 
L 264.221833 -122.692142 
L 263.602325 -120.862432 
L 262.784198 -119.032721 
L 261.663075 -117.203011 
L 260.237986 -115.373301 
L 258.635853 -113.543591 
L 257.055075 -111.71388 
L 255.66922 -109.88417 
L 254.561892 -108.05446 
L 253.728157 -106.224749 
L 253.119261 -104.395039 
L 252.683336 -102.565329 
L 252.377052 -100.735619 
L 252.157881 -98.905908 
L 251.979352 -97.076198 
L 251.799419 -95.246488 
L 251.594787 -93.416778 
L 251.368351 -91.587067 
L 251.143405 -89.757357 
L 250.948339 -87.927647 
L 250.801405 -86.097937 
L 250.703908 -84.268226 
L 250.643319 -82.438516 
L 250.601161 -80.608806 
L 250.559151 -78.779095 
L 250.501332 -76.949385 
L 250.414421 -75.119675 
L 250.289195 -73.289965 
L 250.122907 -71.460254 
L 249.920574 -69.630544 
L 249.693601 -67.800834 
L 249.456559 -65.971124 
L 249.224193 -64.141413 
L 249.009787 -62.311703 
L 248.824331 -60.481993 
L 248.675388 -58.652283 
L 248.565648 -56.822572 
L 248.492317 -54.992862 
L 248.448293 -53.163152 
L 248.424715 -51.333441 
z
" style="stroke: #4c4c4c"/>
    </defs>
    <g clip-path="url(#p3662e5b387)">
     <use xlink:href="#m076c384c8d" x="0" y="278.383125" style="fill: #5875a4; stroke: #4c4c4c"/>
    </g>
   </g>
   <g id="FillBetweenPolyCollection_5">
    <defs>
     <path id="mfa77f50bcf" d="M 304.212975 -46.615829 
L 304.199525 -46.615829 
L 304.189934 -48.237954 
L 304.171983 -49.86008 
L 304.143702 -51.482205 
L 304.106291 -53.104331 
L 304.064318 -54.726456 
L 304.022002 -56.348582 
L 303.976941 -57.970707 
L 303.916991 -59.592833 
L 303.825771 -61.214958 
L 303.695294 -62.837084 
L 303.536427 -64.459209 
L 303.377626 -66.081335 
L 303.250546 -67.70346 
L 303.170572 -69.325586 
L 303.12418 -70.947711 
L 303.07187 -72.569837 
L 302.967055 -74.191962 
L 302.78099 -75.814088 
L 302.518485 -77.436213 
L 302.21473 -79.058339 
L 301.917181 -80.680464 
L 301.666588 -82.30259 
L 301.488916 -83.924715 
L 301.398317 -85.546841 
L 301.402111 -87.168966 
L 301.499636 -88.791092 
L 301.67445 -90.413217 
L 301.886241 -92.035343 
L 302.070707 -93.657468 
L 302.152083 -95.279594 
L 302.065139 -96.901719 
L 301.776083 -98.523844 
L 301.291004 -100.14597 
L 300.646867 -101.768095 
L 299.888432 -103.390221 
L 299.040233 -105.012346 
L 298.087057 -106.634472 
L 296.980311 -108.256597 
L 295.681622 -109.878723 
L 294.226226 -111.500848 
L 292.753656 -113.122974 
L 291.459943 -114.745099 
L 290.489121 -116.367225 
L 289.842776 -117.98935 
L 289.376542 -119.611476 
L 288.882189 -121.233601 
L 288.194027 -122.855727 
L 287.256175 -124.477852 
L 286.131539 -126.099978 
L 284.977503 -127.722103 
L 284.015347 -129.344229 
L 283.486275 -130.966354 
L 283.573946 -132.58848 
L 284.316116 -134.210605 
L 285.574155 -135.832731 
L 287.102415 -137.454856 
L 288.673296 -139.076982 
L 290.163223 -140.699107 
L 291.545444 -142.321233 
L 292.822289 -143.943358 
L 293.974465 -145.565484 
L 294.96959 -147.187609 
L 295.803218 -148.809734 
L 296.518931 -150.43186 
L 297.187445 -152.053985 
L 297.867604 -153.676111 
L 298.58011 -155.298236 
L 299.305357 -156.920362 
L 299.998483 -158.542487 
L 300.610211 -160.164613 
L 301.106147 -161.786738 
L 301.480458 -163.408864 
L 301.759043 -165.030989 
L 301.988441 -166.653115 
L 302.21469 -168.27524 
L 302.464319 -169.897366 
L 302.73736 -171.519491 
L 303.011967 -173.141617 
L 303.254372 -174.763742 
L 303.431374 -176.385868 
L 303.525531 -178.007993 
L 303.547415 -179.630119 
L 303.533509 -181.252244 
L 303.526284 -182.87437 
L 303.550072 -184.496495 
L 303.602004 -186.118621 
L 303.662769 -187.740746 
L 303.714144 -189.362872 
L 303.748857 -190.984997 
L 303.770711 -192.607123 
L 303.790782 -194.229248 
L 303.822468 -195.851374 
L 303.87473 -197.473499 
L 303.946032 -199.095625 
L 304.024407 -200.71775 
L 304.094607 -202.339875 
L 304.146525 -203.962001 
L 304.178553 -205.584126 
L 304.195153 -207.206252 
L 304.217347 -207.206252 
L 304.217347 -207.206252 
L 304.233947 -205.584126 
L 304.265975 -203.962001 
L 304.317893 -202.339875 
L 304.388093 -200.71775 
L 304.466468 -199.095625 
L 304.53777 -197.473499 
L 304.590032 -195.851374 
L 304.621718 -194.229248 
L 304.641789 -192.607123 
L 304.663643 -190.984997 
L 304.698356 -189.362872 
L 304.749731 -187.740746 
L 304.810496 -186.118621 
L 304.862428 -184.496495 
L 304.886216 -182.87437 
L 304.878991 -181.252244 
L 304.865085 -179.630119 
L 304.886969 -178.007993 
L 304.981126 -176.385868 
L 305.158128 -174.763742 
L 305.400533 -173.141617 
L 305.67514 -171.519491 
L 305.948181 -169.897366 
L 306.19781 -168.27524 
L 306.424059 -166.653115 
L 306.653457 -165.030989 
L 306.932042 -163.408864 
L 307.306353 -161.786738 
L 307.802289 -160.164613 
L 308.414017 -158.542487 
L 309.107143 -156.920362 
L 309.83239 -155.298236 
L 310.544896 -153.676111 
L 311.225055 -152.053985 
L 311.893569 -150.43186 
L 312.609282 -148.809734 
L 313.44291 -147.187609 
L 314.438035 -145.565484 
L 315.590211 -143.943358 
L 316.867056 -142.321233 
L 318.249277 -140.699107 
L 319.739204 -139.076982 
L 321.310085 -137.454856 
L 322.838345 -135.832731 
L 324.096384 -134.210605 
L 324.838554 -132.58848 
L 324.926225 -130.966354 
L 324.397153 -129.344229 
L 323.434997 -127.722103 
L 322.280961 -126.099978 
L 321.156325 -124.477852 
L 320.218473 -122.855727 
L 319.530311 -121.233601 
L 319.035958 -119.611476 
L 318.569724 -117.98935 
L 317.923379 -116.367225 
L 316.952557 -114.745099 
L 315.658844 -113.122974 
L 314.186274 -111.500848 
L 312.730878 -109.878723 
L 311.432189 -108.256597 
L 310.325443 -106.634472 
L 309.372267 -105.012346 
L 308.524068 -103.390221 
L 307.765633 -101.768095 
L 307.121496 -100.14597 
L 306.636417 -98.523844 
L 306.347361 -96.901719 
L 306.260417 -95.279594 
L 306.341793 -93.657468 
L 306.526259 -92.035343 
L 306.73805 -90.413217 
L 306.912864 -88.791092 
L 307.010389 -87.168966 
L 307.014183 -85.546841 
L 306.923584 -83.924715 
L 306.745912 -82.30259 
L 306.495319 -80.680464 
L 306.19777 -79.058339 
L 305.894015 -77.436213 
L 305.63151 -75.814088 
L 305.445445 -74.191962 
L 305.34063 -72.569837 
L 305.28832 -70.947711 
L 305.241928 -69.325586 
L 305.161954 -67.70346 
L 305.034874 -66.081335 
L 304.876073 -64.459209 
L 304.717206 -62.837084 
L 304.586729 -61.214958 
L 304.495509 -59.592833 
L 304.435559 -57.970707 
L 304.390498 -56.348582 
L 304.348182 -54.726456 
L 304.306209 -53.104331 
L 304.268798 -51.482205 
L 304.240517 -49.86008 
L 304.222566 -48.237954 
L 304.212975 -46.615829 
z
" style="stroke: #4c4c4c"/>
    </defs>
    <g clip-path="url(#p3662e5b387)">
     <use xlink:href="#mfa77f50bcf" x="0" y="278.383125" style="fill: #5875a4; stroke: #4c4c4c"/>
    </g>
   </g>
   <g id="FillBetweenPolyCollection_6">
    <defs>
     <path id="m3e53e91a0f" d="M 360.042638 -52.880199 
L 359.969862 -52.880199 
L 359.935468 -54.852264 
L 359.879613 -56.824329 
L 359.796949 -58.796394 
L 359.684755 -60.768459 
L 359.543475 -62.740524 
L 359.375159 -64.712589 
L 359.179975 -66.684654 
L 358.952566 -68.656719 
L 358.680897 -70.628784 
L 358.34947 -72.600848 
L 357.946649 -74.572913 
L 357.473489 -76.544978 
L 356.950191 -78.517043 
L 356.416729 -80.489108 
L 355.926186 -82.461173 
L 355.532264 -84.433238 
L 355.2752 -86.405303 
L 355.171512 -88.377368 
L 355.211551 -90.349433 
L 355.364818 -92.321497 
L 355.588734 -94.293562 
L 355.835064 -96.265627 
L 356.050897 -98.237692 
L 356.176052 -100.209757 
L 356.141997 -102.181822 
L 355.876752 -104.153887 
L 355.316989 -106.125952 
L 354.425025 -108.098017 
L 353.205744 -110.070082 
L 351.716281 -112.042147 
L 350.061161 -114.014211 
L 348.370398 -115.986276 
L 346.767796 -117.958341 
L 345.344807 -119.930406 
L 344.153514 -121.902471 
L 343.219462 -123.874536 
L 342.561173 -125.846601 
L 342.200328 -127.818666 
L 342.156974 -129.790731 
L 342.437511 -131.762796 
L 343.027397 -133.73486 
L 343.893359 -135.706925 
L 344.990257 -137.67899 
L 346.265172 -139.651055 
L 347.656672 -141.62312 
L 349.093948 -143.595185 
L 350.501694 -145.56725 
L 351.8118 -147.539315 
L 352.976674 -149.51138 
L 353.976726 -151.483445 
L 354.817678 -153.45551 
L 355.519588 -155.427574 
L 356.104104 -157.399639 
L 356.586569 -159.371704 
L 356.975682 -161.343769 
L 357.278588 -163.315834 
L 357.506796 -165.287899 
L 357.679125 -167.259964 
L 357.820401 -169.232029 
L 357.956913 -171.204094 
L 358.110582 -173.176159 
L 358.293803 -175.148224 
L 358.506566 -177.120288 
L 358.737036 -179.092353 
L 358.965767 -181.064418 
L 359.172229 -183.036483 
L 359.341024 -185.008548 
L 359.465237 -186.980613 
L 359.545988 -188.952678 
L 359.589412 -190.924743 
L 359.603457 -192.896808 
L 359.59617 -194.868873 
L 359.575502 -196.840937 
L 359.549381 -198.813002 
L 359.525 -200.785067 
L 359.507334 -202.757132 
L 359.497931 -204.729197 
L 359.494999 -206.701262 
L 359.49493 -208.673327 
L 359.494363 -210.645392 
L 359.491557 -212.617457 
L 359.486371 -214.589522 
L 359.479178 -216.561587 
L 359.469863 -218.533651 
L 359.457933 -220.505716 
L 359.443903 -222.477781 
L 359.430976 -224.449846 
L 359.425539 -226.421911 
L 359.435596 -228.393976 
L 359.467608 -230.366041 
L 359.523357 -232.338106 
L 359.598583 -234.310171 
L 359.684155 -236.282236 
L 359.76913 -238.2543 
L 359.844126 -240.226365 
L 359.903565 -242.19843 
L 359.946131 -244.170495 
L 359.973777 -246.14256 
L 359.990098 -248.114625 
L 360.022402 -248.114625 
L 360.022402 -248.114625 
L 360.038723 -246.14256 
L 360.066369 -244.170495 
L 360.108935 -242.19843 
L 360.168374 -240.226365 
L 360.24337 -238.2543 
L 360.328345 -236.282236 
L 360.413917 -234.310171 
L 360.489143 -232.338106 
L 360.544892 -230.366041 
L 360.576904 -228.393976 
L 360.586961 -226.421911 
L 360.581524 -224.449846 
L 360.568597 -222.477781 
L 360.554567 -220.505716 
L 360.542637 -218.533651 
L 360.533322 -216.561587 
L 360.526129 -214.589522 
L 360.520943 -212.617457 
L 360.518137 -210.645392 
L 360.51757 -208.673327 
L 360.517501 -206.701262 
L 360.514569 -204.729197 
L 360.505166 -202.757132 
L 360.4875 -200.785067 
L 360.463119 -198.813002 
L 360.436998 -196.840937 
L 360.41633 -194.868873 
L 360.409043 -192.896808 
L 360.423088 -190.924743 
L 360.466512 -188.952678 
L 360.547263 -186.980613 
L 360.671476 -185.008548 
L 360.840271 -183.036483 
L 361.046733 -181.064418 
L 361.275464 -179.092353 
L 361.505934 -177.120288 
L 361.718697 -175.148224 
L 361.901918 -173.176159 
L 362.055587 -171.204094 
L 362.192099 -169.232029 
L 362.333375 -167.259964 
L 362.505704 -165.287899 
L 362.733912 -163.315834 
L 363.036818 -161.343769 
L 363.425931 -159.371704 
L 363.908396 -157.399639 
L 364.492912 -155.427574 
L 365.194822 -153.45551 
L 366.035774 -151.483445 
L 367.035826 -149.51138 
L 368.2007 -147.539315 
L 369.510806 -145.56725 
L 370.918552 -143.595185 
L 372.355828 -141.62312 
L 373.747328 -139.651055 
L 375.022243 -137.67899 
L 376.119141 -135.706925 
L 376.985103 -133.73486 
L 377.574989 -131.762796 
L 377.855526 -129.790731 
L 377.812172 -127.818666 
L 377.451327 -125.846601 
L 376.793038 -123.874536 
L 375.858986 -121.902471 
L 374.667693 -119.930406 
L 373.244704 -117.958341 
L 371.642102 -115.986276 
L 369.951339 -114.014211 
L 368.296219 -112.042147 
L 366.806756 -110.070082 
L 365.587475 -108.098017 
L 364.695511 -106.125952 
L 364.135748 -104.153887 
L 363.870503 -102.181822 
L 363.836448 -100.209757 
L 363.961603 -98.237692 
L 364.177436 -96.265627 
L 364.423766 -94.293562 
L 364.647682 -92.321497 
L 364.800949 -90.349433 
L 364.840988 -88.377368 
L 364.7373 -86.405303 
L 364.480236 -84.433238 
L 364.086314 -82.461173 
L 363.595771 -80.489108 
L 363.062309 -78.517043 
L 362.539011 -76.544978 
L 362.065851 -74.572913 
L 361.66303 -72.600848 
L 361.331603 -70.628784 
L 361.059934 -68.656719 
L 360.832525 -66.684654 
L 360.637341 -64.712589 
L 360.469025 -62.740524 
L 360.327745 -60.768459 
L 360.215551 -58.796394 
L 360.132887 -56.824329 
L 360.077032 -54.852264 
L 360.042638 -52.880199 
z
" style="stroke: #4c4c4c"/>
    </defs>
    <g clip-path="url(#p3662e5b387)">
     <use xlink:href="#m3e53e91a0f" x="0" y="278.383125" style="fill: #5875a4; stroke: #4c4c4c"/>
    </g>
   </g>
   <g id="FillBetweenPolyCollection_7">
    <defs>
     <path id="md1fca0aa93" d="M 415.813304 -46.514625 
L 415.799196 -46.514625 
L 415.788858 -48.149422 
L 415.76941 -49.78422 
L 415.739035 -51.419017 
L 415.700145 -53.053814 
L 415.660069 -54.688612 
L 415.627307 -56.323409 
L 415.60456 -57.958206 
L 415.583848 -59.593004 
L 415.548548 -61.227801 
L 415.481615 -62.862599 
L 415.374403 -64.497396 
L 415.231154 -66.132193 
L 415.06792 -67.766991 
L 414.906317 -69.401788 
L 414.762778 -71.036585 
L 414.637553 -72.671383 
L 414.51244 -74.30618 
L 414.361875 -75.940977 
L 414.168669 -77.575775 
L 413.930672 -79.210572 
L 413.657284 -80.845369 
L 413.367475 -82.480167 
L 413.094767 -84.114964 
L 412.888978 -85.749762 
L 412.802049 -87.384559 
L 412.860656 -89.019356 
L 413.044319 -90.654154 
L 413.286002 -92.288951 
L 413.493497 -93.923748 
L 413.575668 -95.558546 
L 413.463213 -97.193343 
L 413.124246 -98.82814 
L 412.570856 -100.462938 
L 411.846304 -102.097735 
L 410.995009 -103.732532 
L 410.035726 -105.36733 
L 408.956489 -107.002127 
L 407.734605 -108.636925 
L 406.373679 -110.271722 
L 404.936363 -111.906519 
L 403.539636 -113.541317 
L 402.301547 -115.176114 
L 401.280163 -116.810911 
L 400.460416 -118.445709 
L 399.791211 -120.080506 
L 399.223107 -121.715303 
L 398.716162 -123.350101 
L 398.240404 -124.984898 
L 397.794245 -126.619695 
L 397.421634 -128.254493 
L 397.192704 -129.88929 
L 397.153356 -131.524087 
L 397.291765 -133.158885 
L 397.559395 -134.793682 
L 397.930873 -136.42848 
L 398.447442 -138.063277 
L 399.202567 -139.698074 
L 400.278931 -141.332872 
L 401.68344 -142.967669 
L 403.324616 -144.602466 
L 405.0469 -146.237264 
L 406.698876 -147.872061 
L 408.187368 -149.506858 
L 409.48116 -151.141656 
L 410.574886 -152.776453 
L 411.459054 -154.41125 
L 412.125873 -156.046048 
L 412.594615 -157.680845 
L 412.919386 -159.315643 
L 413.165295 -160.95044 
L 413.374641 -162.585237 
L 413.554867 -164.220035 
L 413.697652 -165.854832 
L 413.808784 -167.489629 
L 413.920454 -169.124427 
L 414.075776 -170.759224 
L 414.299058 -172.394021 
L 414.574978 -174.028819 
L 414.851812 -175.663616 
L 415.066971 -177.298413 
L 415.179369 -178.933211 
L 415.190394 -180.568008 
L 415.142251 -182.202806 
L 415.094074 -183.837603 
L 415.089548 -185.4724 
L 415.137136 -187.107198 
L 415.21495 -188.741995 
L 415.292075 -190.376792 
L 415.34803 -192.01159 
L 415.380243 -193.646387 
L 415.401208 -195.281184 
L 415.429671 -196.915982 
L 415.479207 -198.550779 
L 415.549799 -200.185576 
L 415.628534 -201.820374 
L 415.698778 -203.455171 
L 415.749941 -205.089968 
L 415.780796 -206.724766 
L 415.796348 -208.359563 
L 415.816152 -208.359563 
L 415.816152 -208.359563 
L 415.831704 -206.724766 
L 415.862559 -205.089968 
L 415.913722 -203.455171 
L 415.983966 -201.820374 
L 416.062701 -200.185576 
L 416.133293 -198.550779 
L 416.182829 -196.915982 
L 416.211292 -195.281184 
L 416.232257 -193.646387 
L 416.26447 -192.01159 
L 416.320425 -190.376792 
L 416.39755 -188.741995 
L 416.475364 -187.107198 
L 416.522952 -185.4724 
L 416.518426 -183.837603 
L 416.470249 -182.202806 
L 416.422106 -180.568008 
L 416.433131 -178.933211 
L 416.545529 -177.298413 
L 416.760688 -175.663616 
L 417.037522 -174.028819 
L 417.313442 -172.394021 
L 417.536724 -170.759224 
L 417.692046 -169.124427 
L 417.803716 -167.489629 
L 417.914848 -165.854832 
L 418.057633 -164.220035 
L 418.237859 -162.585237 
L 418.447205 -160.95044 
L 418.693114 -159.315643 
L 419.017885 -157.680845 
L 419.486627 -156.046048 
L 420.153446 -154.41125 
L 421.037614 -152.776453 
L 422.13134 -151.141656 
L 423.425132 -149.506858 
L 424.913624 -147.872061 
L 426.5656 -146.237264 
L 428.287884 -144.602466 
L 429.92906 -142.967669 
L 431.333569 -141.332872 
L 432.409933 -139.698074 
L 433.165058 -138.063277 
L 433.681627 -136.42848 
L 434.053105 -134.793682 
L 434.320735 -133.158885 
L 434.459144 -131.524087 
L 434.419796 -129.88929 
L 434.190866 -128.254493 
L 433.818255 -126.619695 
L 433.372096 -124.984898 
L 432.896338 -123.350101 
L 432.389393 -121.715303 
L 431.821289 -120.080506 
L 431.152084 -118.445709 
L 430.332337 -116.810911 
L 429.310953 -115.176114 
L 428.072864 -113.541317 
L 426.676137 -111.906519 
L 425.238821 -110.271722 
L 423.877895 -108.636925 
L 422.656011 -107.002127 
L 421.576774 -105.36733 
L 420.617491 -103.732532 
L 419.766196 -102.097735 
L 419.041644 -100.462938 
L 418.488254 -98.82814 
L 418.149287 -97.193343 
L 418.036832 -95.558546 
L 418.119003 -93.923748 
L 418.326498 -92.288951 
L 418.568181 -90.654154 
L 418.751844 -89.019356 
L 418.810451 -87.384559 
L 418.723522 -85.749762 
L 418.517733 -84.114964 
L 418.245025 -82.480167 
L 417.955216 -80.845369 
L 417.681828 -79.210572 
L 417.443831 -77.575775 
L 417.250625 -75.940977 
L 417.10006 -74.30618 
L 416.974947 -72.671383 
L 416.849722 -71.036585 
L 416.706183 -69.401788 
L 416.54458 -67.766991 
L 416.381346 -66.132193 
L 416.238097 -64.497396 
L 416.130885 -62.862599 
L 416.063952 -61.227801 
L 416.028652 -59.593004 
L 416.00794 -57.958206 
L 415.985193 -56.323409 
L 415.952431 -54.688612 
L 415.912355 -53.053814 
L 415.873465 -51.419017 
L 415.84309 -49.78422 
L 415.823642 -48.149422 
L 415.813304 -46.514625 
z
" style="stroke: #4c4c4c"/>
    </defs>
    <g clip-path="url(#p3662e5b387)">
     <use xlink:href="#md1fca0aa93" x="0" y="278.383125" style="fill: #5875a4; stroke: #4c4c4c"/>
    </g>
   </g>
   <g id="FillBetweenPolyCollection_8">
    <defs>
     <path id="mc825e92ac0" d="M 471.656412 -57.914989 
L 471.556088 -57.914989 
L 471.499331 -59.360921 
L 471.403515 -60.806853 
L 471.263009 -62.252785 
L 471.084524 -63.698716 
L 470.88842 -65.144648 
L 470.701311 -66.59058 
L 470.542714 -68.036512 
L 470.414544 -69.482443 
L 470.301368 -70.928375 
L 470.181182 -72.374307 
L 470.038288 -73.820239 
L 469.869199 -75.26617 
L 469.679561 -76.712102 
L 469.477635 -78.158034 
L 469.271381 -79.603966 
L 469.071075 -81.049898 
L 468.893056 -82.495829 
L 468.758438 -83.941761 
L 468.684788 -85.387693 
L 468.67535 -86.833625 
L 468.713368 -88.279556 
L 468.765705 -89.725488 
L 468.793471 -91.17142 
L 468.764005 -92.617352 
L 468.660231 -94.063283 
L 468.485741 -95.509215 
L 468.263445 -96.955147 
L 468.02472 -98.401079 
L 467.789506 -99.847011 
L 467.54551 -101.292942 
L 467.240159 -102.738874 
L 466.795152 -104.184806 
L 466.139925 -105.630738 
L 465.245644 -107.076669 
L 464.13801 -108.522601 
L 462.880901 -109.968533 
L 461.544623 -111.414465 
L 460.183648 -112.860397 
L 458.838707 -114.306328 
L 457.5552 -115.75226 
L 456.394645 -117.198192 
L 455.422209 -118.644124 
L 454.676438 -120.090055 
L 454.147409 -121.535987 
L 453.787099 -122.981919 
L 453.548863 -124.427851 
L 453.423701 -125.873782 
L 453.439217 -127.319714 
L 453.619766 -128.765646 
L 453.944567 -130.211578 
L 454.345808 -131.65751 
L 454.753039 -133.103441 
L 455.147087 -134.549373 
L 455.577199 -135.995305 
L 456.12704 -137.441237 
L 456.857128 -138.887168 
L 457.766302 -140.3331 
L 458.794652 -141.779032 
L 459.857849 -143.224964 
L 460.885581 -144.670896 
L 461.842457 -146.116827 
L 462.726412 -147.562759 
L 463.552346 -149.008691 
L 464.33211 -150.454623 
L 465.06001 -151.900554 
L 465.7103 -153.346486 
L 466.249454 -154.792418 
L 466.658903 -156.23835 
L 466.95504 -157.684281 
L 467.190909 -159.130213 
L 467.434179 -160.576145 
L 467.73371 -162.022077 
L 468.097229 -163.468009 
L 468.495006 -164.91394 
L 468.884656 -166.359872 
L 469.237443 -167.805804 
L 469.548581 -169.251736 
L 469.82872 -170.697667 
L 470.087533 -172.143599 
L 470.323123 -173.589531 
L 470.523499 -175.035463 
L 470.67624 -176.481394 
L 470.777515 -177.927326 
L 470.834407 -179.373258 
L 470.861126 -180.81919 
L 470.87375 -182.265122 
L 470.88708 -183.711053 
L 470.913585 -185.156985 
L 470.962333 -186.602917 
L 471.036846 -188.048849 
L 471.133178 -189.49478 
L 471.24048 -190.940712 
L 471.344777 -192.386644 
L 471.434096 -193.832576 
L 471.502043 -195.278508 
L 471.548295 -196.724439 
L 471.576651 -198.170371 
L 471.592385 -199.616303 
L 471.600307 -201.062235 
L 471.612193 -201.062235 
L 471.612193 -201.062235 
L 471.620115 -199.616303 
L 471.635849 -198.170371 
L 471.664205 -196.724439 
L 471.710457 -195.278508 
L 471.778404 -193.832576 
L 471.867723 -192.386644 
L 471.97202 -190.940712 
L 472.079322 -189.49478 
L 472.175654 -188.048849 
L 472.250167 -186.602917 
L 472.298915 -185.156985 
L 472.32542 -183.711053 
L 472.33875 -182.265122 
L 472.351374 -180.81919 
L 472.378093 -179.373258 
L 472.434985 -177.927326 
L 472.53626 -176.481394 
L 472.689001 -175.035463 
L 472.889377 -173.589531 
L 473.124967 -172.143599 
L 473.38378 -170.697667 
L 473.663919 -169.251736 
L 473.975057 -167.805804 
L 474.327844 -166.359872 
L 474.717494 -164.91394 
L 475.115271 -163.468009 
L 475.47879 -162.022077 
L 475.778321 -160.576145 
L 476.021591 -159.130213 
L 476.25746 -157.684281 
L 476.553597 -156.23835 
L 476.963046 -154.792418 
L 477.5022 -153.346486 
L 478.15249 -151.900554 
L 478.88039 -150.454623 
L 479.660154 -149.008691 
L 480.486088 -147.562759 
L 481.370043 -146.116827 
L 482.326919 -144.670896 
L 483.354651 -143.224964 
L 484.417848 -141.779032 
L 485.446198 -140.3331 
L 486.355372 -138.887168 
L 487.08546 -137.441237 
L 487.635301 -135.995305 
L 488.065413 -134.549373 
L 488.459461 -133.103441 
L 488.866692 -131.65751 
L 489.267933 -130.211578 
L 489.592734 -128.765646 
L 489.773283 -127.319714 
L 489.788799 -125.873782 
L 489.663637 -124.427851 
L 489.425401 -122.981919 
L 489.065091 -121.535987 
L 488.536062 -120.090055 
L 487.790291 -118.644124 
L 486.817855 -117.198192 
L 485.6573 -115.75226 
L 484.373793 -114.306328 
L 483.028852 -112.860397 
L 481.667877 -111.414465 
L 480.331599 -109.968533 
L 479.07449 -108.522601 
L 477.966856 -107.076669 
L 477.072575 -105.630738 
L 476.417348 -104.184806 
L 475.972341 -102.738874 
L 475.66699 -101.292942 
L 475.422994 -99.847011 
L 475.18778 -98.401079 
L 474.949055 -96.955147 
L 474.726759 -95.509215 
L 474.552269 -94.063283 
L 474.448495 -92.617352 
L 474.419029 -91.17142 
L 474.446795 -89.725488 
L 474.499132 -88.279556 
L 474.53715 -86.833625 
L 474.527712 -85.387693 
L 474.454062 -83.941761 
L 474.319444 -82.495829 
L 474.141425 -81.049898 
L 473.941119 -79.603966 
L 473.734865 -78.158034 
L 473.532939 -76.712102 
L 473.343301 -75.26617 
L 473.174212 -73.820239 
L 473.031318 -72.374307 
L 472.911132 -70.928375 
L 472.797956 -69.482443 
L 472.669786 -68.036512 
L 472.511189 -66.59058 
L 472.32408 -65.144648 
L 472.127976 -63.698716 
L 471.949491 -62.252785 
L 471.808985 -60.806853 
L 471.713169 -59.360921 
L 471.656412 -57.914989 
z
" style="stroke: #4c4c4c"/>
    </defs>
    <g clip-path="url(#p3662e5b387)">
     <use xlink:href="#mc825e92ac0" x="0" y="278.383125" style="fill: #5875a4; stroke: #4c4c4c"/>
    </g>
   </g>
   <g id="line2d_7">
    <path d="M 81.00625 194.424311 
L 81.00625 108.57689 
" clip-path="url(#p3662e5b387)" style="fill: none; stroke: #4c4c4c; stroke-width: 1.5; stroke-linecap: round"/>
   </g>
   <g id="line2d_8">
    <path d="M 81.00625 162.116448 
L 81.00625 140.530088 
" clip-path="url(#p3662e5b387)" style="fill: none; stroke: #4c4c4c; stroke-width: 4.5; stroke-linecap: round"/>
   </g>
   <g id="line2d_9">
    <path d="M 81.00625 151.524287 
" clip-path="url(#p3662e5b387)" style="fill: none; stroke: #4c4c4c; stroke-width: 1.2; stroke-linecap: round"/>
    <defs>
     <path id="mc6ab8df1e9" d="M 1.875 0 
L -1.875 -0 
" style="stroke: #ffffff; stroke-width: 0.9"/>
    </defs>
    <g clip-path="url(#p3662e5b387)">
     <use xlink:href="#mc6ab8df1e9" x="81.00625" y="151.524287" style="fill: #ffffff; stroke: #ffffff; stroke-width: 0.9"/>
    </g>
   </g>
   <g id="line2d_10">
    <path d="M 136.80625 195.747665 
L 136.80625 106.79307 
" clip-path="url(#p3662e5b387)" style="fill: none; stroke: #4c4c4c; stroke-width: 1.5; stroke-linecap: round"/>
   </g>
   <g id="line2d_11">
    <path d="M 136.80625 162.427071 
L 136.80625 140.112011 
" clip-path="url(#p3662e5b387)" style="fill: none; stroke: #4c4c4c; stroke-width: 4.5; stroke-linecap: round"/>
   </g>
   <g id="line2d_12">
    <path d="M 136.80625 150.262462 
" clip-path="url(#p3662e5b387)" style="fill: none; stroke: #4c4c4c; stroke-width: 1.2; stroke-linecap: round"/>
    <g clip-path="url(#p3662e5b387)">
     <use xlink:href="#mc6ab8df1e9" x="136.80625" y="150.262462" style="fill: #ffffff; stroke: #ffffff; stroke-width: 0.9"/>
    </g>
   </g>
   <g id="line2d_13">
    <path d="M 192.60625 195.760509 
L 192.60625 103.932237 
" clip-path="url(#p3662e5b387)" style="fill: none; stroke: #4c4c4c; stroke-width: 1.5; stroke-linecap: round"/>
   </g>
   <g id="line2d_14">
    <path d="M 192.60625 161.380118 
L 192.60625 138.397352 
" clip-path="url(#p3662e5b387)" style="fill: none; stroke: #4c4c4c; stroke-width: 4.5; stroke-linecap: round"/>
   </g>
   <g id="line2d_15">
    <path d="M 192.60625 148.641831 
" clip-path="url(#p3662e5b387)" style="fill: none; stroke: #4c4c4c; stroke-width: 1.2; stroke-linecap: round"/>
    <g clip-path="url(#p3662e5b387)">
     <use xlink:href="#mc6ab8df1e9" x="192.60625" y="148.641831" style="fill: #ffffff; stroke: #ffffff; stroke-width: 0.9"/>
    </g>
   </g>
   <g id="line2d_16">
    <path d="M 248.40625 195.248049 
L 248.40625 103.537849 
" clip-path="url(#p3662e5b387)" style="fill: none; stroke: #4c4c4c; stroke-width: 1.5; stroke-linecap: round"/>
   </g>
   <g id="line2d_17">
    <path d="M 248.40625 160.828235 
L 248.40625 137.854671 
" clip-path="url(#p3662e5b387)" style="fill: none; stroke: #4c4c4c; stroke-width: 4.5; stroke-linecap: round"/>
   </g>
   <g id="line2d_18">
    <path d="M 248.40625 148.443277 
" clip-path="url(#p3662e5b387)" style="fill: none; stroke: #4c4c4c; stroke-width: 1.2; stroke-linecap: round"/>
    <g clip-path="url(#p3662e5b387)">
     <use xlink:href="#mc6ab8df1e9" x="248.40625" y="148.443277" style="fill: #ffffff; stroke: #ffffff; stroke-width: 0.9"/>
    </g>
   </g>
   <g id="line2d_19">
    <path d="M 304.20625 195.822996 
L 304.20625 104.450145 
" clip-path="url(#p3662e5b387)" style="fill: none; stroke: #4c4c4c; stroke-width: 1.5; stroke-linecap: round"/>
   </g>
   <g id="line2d_20">
    <path d="M 304.20625 161.380299 
L 304.20625 138.407317 
" clip-path="url(#p3662e5b387)" style="fill: none; stroke: #4c4c4c; stroke-width: 4.5; stroke-linecap: round"/>
   </g>
   <g id="line2d_21">
    <path d="M 304.20625 148.638916 
" clip-path="url(#p3662e5b387)" style="fill: none; stroke: #4c4c4c; stroke-width: 1.2; stroke-linecap: round"/>
    <g clip-path="url(#p3662e5b387)">
     <use xlink:href="#mc6ab8df1e9" x="304.20625" y="148.638916" style="fill: #ffffff; stroke: #ffffff; stroke-width: 0.9"/>
    </g>
   </g>
   <g id="line2d_22">
    <path d="M 360.00625 196.023579 
L 360.00625 103.774031 
" clip-path="url(#p3662e5b387)" style="fill: none; stroke: #4c4c4c; stroke-width: 1.5; stroke-linecap: round"/>
   </g>
   <g id="line2d_23">
    <path d="M 360.00625 161.512014 
L 360.00625 138.292815 
" clip-path="url(#p3662e5b387)" style="fill: none; stroke: #4c4c4c; stroke-width: 4.5; stroke-linecap: round"/>
   </g>
   <g id="line2d_24">
    <path d="M 360.00625 149.778659 
" clip-path="url(#p3662e5b387)" style="fill: none; stroke: #4c4c4c; stroke-width: 1.2; stroke-linecap: round"/>
    <g clip-path="url(#p3662e5b387)">
     <use xlink:href="#mc6ab8df1e9" x="360.00625" y="149.778659" style="fill: #ffffff; stroke: #ffffff; stroke-width: 0.9"/>
    </g>
   </g>
   <g id="line2d_25">
    <path d="M 415.80625 196.609524 
L 415.80625 103.835 
" clip-path="url(#p3662e5b387)" style="fill: none; stroke: #4c4c4c; stroke-width: 1.5; stroke-linecap: round"/>
   </g>
   <g id="line2d_26">
    <path d="M 415.80625 161.730999 
L 415.80625 138.433291 
" clip-path="url(#p3662e5b387)" style="fill: none; stroke: #4c4c4c; stroke-width: 4.5; stroke-linecap: round"/>
   </g>
   <g id="line2d_27">
    <path d="M 415.80625 149.496376 
" clip-path="url(#p3662e5b387)" style="fill: none; stroke: #4c4c4c; stroke-width: 1.2; stroke-linecap: round"/>
    <g clip-path="url(#p3662e5b387)">
     <use xlink:href="#mc6ab8df1e9" x="415.80625" y="149.496376" style="fill: #ffffff; stroke: #ffffff; stroke-width: 0.9"/>
    </g>
   </g>
   <g id="line2d_28">
    <path d="M 471.60625 196.97001 
L 471.60625 103.581123 
" clip-path="url(#p3662e5b387)" style="fill: none; stroke: #4c4c4c; stroke-width: 1.5; stroke-linecap: round"/>
   </g>
   <g id="line2d_29">
    <path d="M 471.60625 161.970731 
L 471.60625 138.499728 
" clip-path="url(#p3662e5b387)" style="fill: none; stroke: #4c4c4c; stroke-width: 4.5; stroke-linecap: round"/>
   </g>
   <g id="line2d_30">
    <path d="M 471.60625 150.400612 
" clip-path="url(#p3662e5b387)" style="fill: none; stroke: #4c4c4c; stroke-width: 1.2; stroke-linecap: round"/>
    <g clip-path="url(#p3662e5b387)">
     <use xlink:href="#mc6ab8df1e9" x="471.60625" y="150.400612" style="fill: #ffffff; stroke: #ffffff; stroke-width: 0.9"/>
    </g>
   </g>
   <g id="line2d_31">
    <path d="M 53.10625 151.257476 
L 499.50625 151.257476 
" clip-path="url(#p3662e5b387)" style="fill: none; stroke-dasharray: 2.96,1.28; stroke-dashoffset: 0; stroke: #1a1a1a; stroke-width: 0.8"/>
   </g>
   <g id="patch_3">
    <path d="M 53.10625 241.9485 
L 53.10625 20.1885 
" style="fill: none; stroke: #cccccc; stroke-linejoin: miter; stroke-linecap: square"/>
   </g>
   <g id="patch_4">
    <path d="M 499.50625 241.9485 
L 499.50625 20.1885 
" style="fill: none; stroke: #cccccc; stroke-linejoin: miter; stroke-linecap: square"/>
   </g>
   <g id="patch_5">
    <path d="M 53.10625 241.9485 
L 499.50625 241.9485 
" style="fill: none; stroke: #cccccc; stroke-linejoin: miter; stroke-linecap: square"/>
   </g>
   <g id="patch_6">
    <path d="M 53.10625 20.1885 
L 499.50625 20.1885 
" style="fill: none; stroke: #cccccc; stroke-linejoin: miter; stroke-linecap: square"/>
   </g>
   <g id="text_17">
    <!-- Residual distribution — top 8 (LT1) -->
    <g style="fill: #262626" transform="translate(202.49725 14.1885) scale(0.096 -0.096)">
     <defs>
      <path id="ArialMT-52" d="M 503 0 
L 503 4581 
L 2534 4581 
Q 3147 4581 3465 4457 
Q 3784 4334 3975 4021 
Q 4166 3709 4166 3331 
Q 4166 2844 3850 2509 
Q 3534 2175 2875 2084 
Q 3116 1969 3241 1856 
Q 3506 1613 3744 1247 
L 4541 0 
L 3778 0 
L 3172 953 
Q 2906 1366 2734 1584 
Q 2563 1803 2427 1890 
Q 2291 1978 2150 2013 
Q 2047 2034 1813 2034 
L 1109 2034 
L 1109 0 
L 503 0 
z
M 1109 2559 
L 2413 2559 
Q 2828 2559 3062 2645 
Q 3297 2731 3419 2920 
Q 3541 3109 3541 3331 
Q 3541 3656 3305 3865 
Q 3069 4075 2559 4075 
L 1109 4075 
L 1109 2559 
z
" transform="scale(0.015625)"/>
      <path id="ArialMT-2014" d="M 0 1431 
L 0 1884 
L 6400 1884 
L 6400 1431 
L 0 1431 
z
" transform="scale(0.015625)"/>
      <path id="ArialMT-28" d="M 1497 -1347 
Q 1031 -759 709 28 
Q 388 816 388 1659 
Q 388 2403 628 3084 
Q 909 3875 1497 4659 
L 1900 4659 
Q 1522 4009 1400 3731 
Q 1209 3300 1100 2831 
Q 966 2247 966 1656 
Q 966 153 1900 -1347 
L 1497 -1347 
z
" transform="scale(0.015625)"/>
      <path id="ArialMT-29" d="M 791 -1347 
L 388 -1347 
Q 1322 153 1322 1656 
Q 1322 2244 1188 2822 
Q 1081 3291 891 3722 
Q 769 4003 388 4659 
L 791 4659 
Q 1378 3875 1659 3084 
Q 1900 2403 1900 1659 
Q 1900 816 1576 28 
Q 1253 -759 791 -1347 
z
" transform="scale(0.015625)"/>
     </defs>
     <use xlink:href="#ArialMT-52"/>
     <use xlink:href="#ArialMT-65" transform="translate(72.216797 0)"/>
     <use xlink:href="#ArialMT-73" transform="translate(127.832031 0)"/>
     <use xlink:href="#ArialMT-69" transform="translate(177.832031 0)"/>
     <use xlink:href="#ArialMT-64" transform="translate(200.048828 0)"/>
     <use xlink:href="#ArialMT-75" transform="translate(255.664062 0)"/>
     <use xlink:href="#ArialMT-61" transform="translate(311.279297 0)"/>
     <use xlink:href="#ArialMT-6c" transform="translate(366.894531 0)"/>
     <use xlink:href="#ArialMT-20" transform="translate(389.111328 0)"/>
     <use xlink:href="#ArialMT-64" transform="translate(416.894531 0)"/>
     <use xlink:href="#ArialMT-69" transform="translate(472.509766 0)"/>
     <use xlink:href="#ArialMT-73" transform="translate(494.726562 0)"/>
     <use xlink:href="#ArialMT-74" transform="translate(544.726562 0)"/>
     <use xlink:href="#ArialMT-72" transform="translate(572.509766 0)"/>
     <use xlink:href="#ArialMT-69" transform="translate(605.810547 0)"/>
     <use xlink:href="#ArialMT-62" transform="translate(628.027344 0)"/>
     <use xlink:href="#ArialMT-75" transform="translate(683.642578 0)"/>
     <use xlink:href="#ArialMT-74" transform="translate(739.257812 0)"/>
     <use xlink:href="#ArialMT-69" transform="translate(767.041016 0)"/>
     <use xlink:href="#ArialMT-6f" transform="translate(789.257812 0)"/>
     <use xlink:href="#ArialMT-6e" transform="translate(844.873047 0)"/>
     <use xlink:href="#ArialMT-20" transform="translate(900.488281 0)"/>
     <use xlink:href="#ArialMT-2014" transform="translate(928.271484 0)"/>
     <use xlink:href="#ArialMT-20" transform="translate(1028.271484 0)"/>
     <use xlink:href="#ArialMT-74" transform="translate(1056.054688 0)"/>
     <use xlink:href="#ArialMT-6f" transform="translate(1083.837891 0)"/>
     <use xlink:href="#ArialMT-70" transform="translate(1139.453125 0)"/>
     <use xlink:href="#ArialMT-20" transform="translate(1195.068359 0)"/>
     <use xlink:href="#ArialMT-38" transform="translate(1222.851562 0)"/>
     <use xlink:href="#ArialMT-20" transform="translate(1278.466797 0)"/>
     <use xlink:href="#ArialMT-28" transform="translate(1306.25 0)"/>
     <use xlink:href="#ArialMT-4c" transform="translate(1339.550781 0)"/>
     <use xlink:href="#ArialMT-54" transform="translate(1387.791016 0)"/>
     <use xlink:href="#ArialMT-31" transform="translate(1448.875 0)"/>
     <use xlink:href="#ArialMT-29" transform="translate(1504.490234 0)"/>
    </g>
   </g>
  </g>
 </g>
 <defs>
  <clipPath id="p3662e5b387">
   <rect x="53.10625" y="20.1885" width="446.4" height="221.76"/>
  </clipPath>
 </defs>
</svg>
