<?xml version="1.0" encoding="utf-8" standalone="no"?>
<!DOCTYPE svg PUBLIC "-//W3C//DTD SVG 1.1//EN"
  "http://www.w3.org/Graphics/SVG/1.1/DTD/svg11.dtd">
<svg xmlns:xlink="http://www.w3.org/1999/xlink" width="508.652pt" height="278.383125pt" viewBox="0 0 508.652 278.383125" xmlns="http://www.w3.org/2000/svg" version="1.1">
 <metadata>
  <rdf:RDF xmlns:dc="http://purl.org/dc/elements/1.1/" xmlns:cc="http://creativecommons.org/ns#" xmlns:rdf="http://www.w3.org/1999/02/22-rdf-syntax-ns#">
   <cc:Work>
    <dc:type rdf:resource="http://purl.org/dc/dcmitype/StillImage"/>
    <dc:date>2026-05-17T18:02:45.708556</dc:date>
    <dc:format>image/svg+xml</dc:format>
    <dc:creator>
     <cc:Agent>
      <dc:title>Matplotlib v3.10.9, https://matplotlib.org/</dc:title>
     </cc:Agent>
    </dc:creator>
   </cc:Work>
  </rdf:RDF>
 </metadata>
 <defs>
  <style type="text/css">*{stroke-linejoin: round; stroke-linecap: butt}</style>
 </defs>
 <g id="figure_1">
  <g id="patch_1">
   <path d="M 0 278.383125 
L 508.652 278.383125 
L 508.652 0 
L 0 0 
z
" style="fill: #ffffff"/>
  </g>
  <g id="axes_1">
   <g id="patch_2">
    <path d="M 53.10625 241.9485 
L 499.50625 241.9485 
L 499.50625 20.1885 
L 53.10625 20.1885 
z
" style="fill: #ffffff"/>
   </g>
   <g id="matplotlib.axis_1">
    <g id="xtick_1">
     <g id="text_1">
      <!-- Lin17_0f1cc084 -->
      <g style="fill: #262626" transform="translate(49.938125 256.654625) scale(0.088 -0.088)">
       <defs>
        <path id="ArialMT-4c" d="M 469 0 
L 469 4581 
L 1075 4581 
L 1075 541 
L 3331 541 
L 3331 0 
L 469 0 
z
" transform="scale(0.015625)"/>
        <path id="ArialMT-69" d="M 425 3934 
L 425 4581 
L 988 4581 
L 988 3934 
L 425 3934 
z
M 425 0 
L 425 3319 
L 988 3319 
L 988 0 
L 425 0 
z
" transform="scale(0.015625)"/>
        <path id="ArialMT-6e" d="M 422 0 
L 422 3319 
L 928 3319 
L 928 2847 
Q 1294 3394 1984 3394 
Q 2284 3394 2536 3286 
Q 2788 3178 2913 3003 
Q 3038 2828 3088 2588 
Q 3119 2431 3119 2041 
L 3119 0 
L 2556 0 
L 2556 2019 
Q 2556 2363 2490 2533 
Q 2425 2703 2258 2804 
Q 2091 2906 1866 2906 
Q 1506 2906 1245 2678 
Q 984 2450 984 1813 
L 984 0 
L 422 0 
z
" transform="scale(0.015625)"/>
        <path id="ArialMT-31" d="M 2384 0 
L 1822 0 
L 1822 3584 
Q 1619 3391 1289 3197 
Q 959 3003 697 2906 
L 697 3450 
Q 1169 3672 1522 3987 
Q 1875 4303 2022 4600 
L 2384 4600 
L 2384 0 
z
" transform="scale(0.015625)"/>
        <path id="ArialMT-37" d="M 303 3981 
L 303 4522 
L 3269 4522 
L 3269 4084 
Q 2831 3619 2401 2847 
Q 1972 2075 1738 1259 
Q 1569 684 1522 0 
L 944 0 
Q 953 541 1156 1306 
Q 1359 2072 1739 2783 
Q 2119 3494 2547 3981 
L 303 3981 
z
" transform="scale(0.015625)"/>
        <path id="ArialMT-5f" d="M -97 -1272 
L -97 -866 
L 3631 -866 
L 3631 -1272 
L -97 -1272 
z
" transform="scale(0.015625)"/>
        <path id="ArialMT-30" d="M 266 2259 
Q 266 3072 433 3567 
Q 600 4063 929 4331 
Q 1259 4600 1759 4600 
Q 2128 4600 2406 4451 
Q 2684 4303 2865 4023 
Q 3047 3744 3150 3342 
Q 3253 2941 3253 2259 
Q 3253 1453 3087 958 
Q 2922 463 2592 192 
Q 2263 -78 1759 -78 
Q 1097 -78 719 397 
Q 266 969 266 2259 
z
M 844 2259 
Q 844 1131 1108 757 
Q 1372 384 1759 384 
Q 2147 384 2411 759 
Q 2675 1134 2675 2259 
Q 2675 3391 2411 3762 
Q 2147 4134 1753 4134 
Q 1366 4134 1134 3806 
Q 844 3388 844 2259 
z
" transform="scale(0.015625)"/>
        <path id="ArialMT-66" d="M 556 0 
L 556 2881 
L 59 2881 
L 59 3319 
L 556 3319 
L 556 3672 
Q 556 4006 616 4169 
Q 697 4388 901 4523 
Q 1106 4659 1475 4659 
Q 1713 4659 2000 4603 
L 1916 4113 
Q 1741 4144 1584 4144 
Q 1328 4144 1222 4034 
Q 1116 3925 1116 3625 
L 1116 3319 
L 1763 3319 
L 1763 2881 
L 1116 2881 
L 1116 0 
L 556 0 
z
" transform="scale(0.015625)"/>
        <path id="ArialMT-63" d="M 2588 1216 
L 3141 1144 
Q 3050 572 2676 248 
Q 2303 -75 1759 -75 
Q 1078 -75 664 370 
Q 250 816 250 1647 
Q 250 2184 428 2587 
Q 606 2991 970 3192 
Q 1334 3394 1763 3394 
Q 2303 3394 2647 3120 
Q 2991 2847 3088 2344 
L 2541 2259 
Q 2463 2594 2264 2762 
Q 2066 2931 1784 2931 
Q 1359 2931 1093 2626 
Q 828 2322 828 1663 
Q 828 994 1084 691 
Q 1341 388 1753 388 
Q 2084 388 2306 591 
Q 2528 794 2588 1216 
z
" transform="scale(0.015625)"/>
        <path id="ArialMT-38" d="M 1131 2484 
Q 781 2613 612 2850 
Q 444 3088 444 3419 
Q 444 3919 803 4259 
Q 1163 4600 1759 4600 
Q 2359 4600 2725 4251 
Q 3091 3903 3091 3403 
Q 3091 3084 2923 2848 
Q 2756 2613 2416 2484 
Q 2838 2347 3058 2040 
Q 3278 1734 3278 1309 
Q 3278 722 2862 322 
Q 2447 -78 1769 -78 
Q 1091 -78 675 323 
Q 259 725 259 1325 
Q 259 1772 486 2073 
Q 713 2375 1131 2484 
z
M 1019 3438 
Q 1019 3113 1228 2906 
Q 1438 2700 1772 2700 
Q 2097 2700 2305 2904 
Q 2513 3109 2513 3406 
Q 2513 3716 2298 3927 
Q 2084 4138 1766 4138 
Q 1444 4138 1231 3931 
Q 1019 3725 1019 3438 
z
M 838 1322 
Q 838 1081 952 856 
Q 1066 631 1291 507 
Q 1516 384 1775 384 
Q 2178 384 2440 643 
Q 2703 903 2703 1303 
Q 2703 1709 2433 1975 
Q 2163 2241 1756 2241 
Q 1359 2241 1098 1978 
Q 838 1716 838 1322 
z
" transform="scale(0.015625)"/>
        <path id="ArialMT-34" d="M 2069 0 
L 2069 1097 
L 81 1097 
L 81 1613 
L 2172 4581 
L 2631 4581 
L 2631 1613 
L 3250 1613 
L 3250 1097 
L 2631 1097 
L 2631 0 
L 2069 0 
z
M 2069 1613 
L 2069 3678 
L 634 1613 
L 2069 1613 
z
" transform="scale(0.015625)"/>
       </defs>
       <use xlink:href="#ArialMT-4c"/>
       <use xlink:href="#ArialMT-69" transform="translate(55.615234 0)"/>
       <use xlink:href="#ArialMT-6e" transform="translate(77.832031 0)"/>
       <use xlink:href="#ArialMT-31" transform="translate(133.447266 0)"/>
       <use xlink:href="#ArialMT-37" transform="translate(189.0625 0)"/>
       <use xlink:href="#ArialMT-5f" transform="translate(244.677734 0)"/>
       <use xlink:href="#ArialMT-30" transform="translate(300.292969 0)"/>
       <use xlink:href="#ArialMT-66" transform="translate(355.908203 0)"/>
       <use xlink:href="#ArialMT-31" transform="translate(383.691406 0)"/>
       <use xlink:href="#ArialMT-63" transform="translate(439.306641 0)"/>
       <use xlink:href="#ArialMT-63" transform="translate(489.306641 0)"/>
       <use xlink:href="#ArialMT-30" transform="translate(539.306641 0)"/>
       <use xlink:href="#ArialMT-38" transform="translate(594.921875 0)"/>
       <use xlink:href="#ArialMT-34" transform="translate(650.537109 0)"/>
      </g>
     </g>
    </g>
    <g id="xtick_2">
     <g id="text_2">
      <!-- Lin12_e07292c3 -->
      <g style="fill: #262626" transform="translate(104.266875 256.5735) scale(0.088 -0.088)">
       <defs>
        <path id="ArialMT-32" d="M 3222 541 
L 3222 0 
L 194 0 
Q 188 203 259 391 
Q 375 700 629 1000 
Q 884 1300 1366 1694 
Q 2113 2306 2375 2664 
Q 2638 3022 2638 3341 
Q 2638 3675 2398 3904 
Q 2159 4134 1775 4134 
Q 1369 4134 1125 3890 
Q 881 3647 878 3216 
L 300 3275 
Q 359 3922 746 4261 
Q 1134 4600 1788 4600 
Q 2447 4600 2831 4234 
Q 3216 3869 3216 3328 
Q 3216 3053 3103 2787 
Q 2991 2522 2730 2228 
Q 2469 1934 1863 1422 
Q 1356 997 1212 845 
Q 1069 694 975 541 
L 3222 541 
z
" transform="scale(0.015625)"/>
        <path id="ArialMT-65" d="M 2694 1069 
L 3275 997 
Q 3138 488 2766 206 
Q 2394 -75 1816 -75 
Q 1088 -75 661 373 
Q 234 822 234 1631 
Q 234 2469 665 2931 
Q 1097 3394 1784 3394 
Q 2450 3394 2872 2941 
Q 3294 2488 3294 1666 
Q 3294 1616 3291 1516 
L 816 1516 
Q 847 969 1125 678 
Q 1403 388 1819 388 
Q 2128 388 2347 550 
Q 2566 713 2694 1069 
z
M 847 1978 
L 2700 1978 
Q 2663 2397 2488 2606 
Q 2219 2931 1791 2931 
Q 1403 2931 1139 2672 
Q 875 2413 847 1978 
z
" transform="scale(0.015625)"/>
        <path id="ArialMT-39" d="M 350 1059 
L 891 1109 
Q 959 728 1153 556 
Q 1347 384 1650 384 
Q 1909 384 2104 503 
Q 2300 622 2425 820 
Q 2550 1019 2634 1356 
Q 2719 1694 2719 2044 
Q 2719 2081 2716 2156 
Q 2547 1888 2255 1720 
Q 1963 1553 1622 1553 
Q 1053 1553 659 1965 
Q 266 2378 266 3053 
Q 266 3750 677 4175 
Q 1088 4600 1706 4600 
Q 2153 4600 2523 4359 
Q 2894 4119 3086 3673 
Q 3278 3228 3278 2384 
Q 3278 1506 3087 986 
Q 2897 466 2520 194 
Q 2144 -78 1638 -78 
Q 1100 -78 759 220 
Q 419 519 350 1059 
z
M 2653 3081 
Q 2653 3566 2395 3850 
Q 2138 4134 1775 4134 
Q 1400 4134 1122 3828 
Q 844 3522 844 3034 
Q 844 2597 1108 2323 
Q 1372 2050 1759 2050 
Q 2150 2050 2401 2323 
Q 2653 2597 2653 3081 
z
" transform="scale(0.015625)"/>
        <path id="ArialMT-33" d="M 269 1209 
L 831 1284 
Q 928 806 1161 595 
Q 1394 384 1728 384 
Q 2125 384 2398 659 
Q 2672 934 2672 1341 
Q 2672 1728 2419 1979 
Q 2166 2231 1775 2231 
Q 1616 2231 1378 2169 
L 1441 2663 
Q 1497 2656 1531 2656 
Q 1891 2656 2178 2843 
Q 2466 3031 2466 3422 
Q 2466 3731 2256 3934 
Q 2047 4138 1716 4138 
Q 1388 4138 1169 3931 
Q 950 3725 888 3313 
L 325 3413 
Q 428 3978 793 4289 
Q 1159 4600 1703 4600 
Q 2078 4600 2393 4439 
Q 2709 4278 2876 4000 
Q 3044 3722 3044 3409 
Q 3044 3113 2884 2869 
Q 2725 2625 2413 2481 
Q 2819 2388 3044 2092 
Q 3269 1797 3269 1353 
Q 3269 753 2831 336 
Q 2394 -81 1725 -81 
Q 1122 -81 723 278 
Q 325 638 269 1209 
z
" transform="scale(0.015625)"/>
       </defs>
       <use xlink:href="#ArialMT-4c"/>
       <use xlink:href="#ArialMT-69" transform="translate(55.615234 0)"/>
       <use xlink:href="#ArialMT-6e" transform="translate(77.832031 0)"/>
       <use xlink:href="#ArialMT-31" transform="translate(133.447266 0)"/>
       <use xlink:href="#ArialMT-32" transform="translate(189.0625 0)"/>
       <use xlink:href="#ArialMT-5f" transform="translate(244.677734 0)"/>
       <use xlink:href="#ArialMT-65" transform="translate(300.292969 0)"/>
       <use xlink:href="#ArialMT-30" transform="translate(355.908203 0)"/>
       <use xlink:href="#ArialMT-37" transform="translate(411.523438 0)"/>
       <use xlink:href="#ArialMT-32" transform="translate(467.138672 0)"/>
       <use xlink:href="#ArialMT-39" transform="translate(522.753906 0)"/>
       <use xlink:href="#ArialMT-32" transform="translate(578.369141 0)"/>
       <use xlink:href="#ArialMT-63" transform="translate(633.984375 0)"/>
       <use xlink:href="#ArialMT-33" transform="translate(683.984375 0)"/>
      </g>
     </g>
    </g>
    <g id="xtick_3">
     <g id="text_3">
      <!-- Lin17_52b37b3e -->
      <g style="fill: #262626" transform="translate(159.820062 256.5735) scale(0.088 -0.088)">
       <defs>
        <path id="ArialMT-35" d="M 266 1200 
L 856 1250 
Q 922 819 1161 601 
Q 1400 384 1738 384 
Q 2144 384 2425 690 
Q 2706 997 2706 1503 
Q 2706 1984 2436 2262 
Q 2166 2541 1728 2541 
Q 1456 2541 1237 2417 
Q 1019 2294 894 2097 
L 366 2166 
L 809 4519 
L 3088 4519 
L 3088 3981 
L 1259 3981 
L 1013 2750 
Q 1425 3038 1878 3038 
Q 2478 3038 2890 2622 
Q 3303 2206 3303 1553 
Q 3303 931 2941 478 
Q 2500 -78 1738 -78 
Q 1113 -78 717 272 
Q 322 622 266 1200 
z
" transform="scale(0.015625)"/>
        <path id="ArialMT-62" d="M 941 0 
L 419 0 
L 419 4581 
L 981 4581 
L 981 2947 
Q 1338 3394 1891 3394 
Q 2197 3394 2470 3270 
Q 2744 3147 2920 2923 
Q 3097 2700 3197 2384 
Q 3297 2069 3297 1709 
Q 3297 856 2875 390 
Q 2453 -75 1863 -75 
Q 1275 -75 941 416 
L 941 0 
z
M 934 1684 
Q 934 1088 1097 822 
Q 1363 388 1816 388 
Q 2184 388 2453 708 
Q 2722 1028 2722 1663 
Q 2722 2313 2464 2622 
Q 2206 2931 1841 2931 
Q 1472 2931 1203 2611 
Q 934 2291 934 1684 
z
" transform="scale(0.015625)"/>
       </defs>
       <use xlink:href="#ArialMT-4c"/>
       <use xlink:href="#ArialMT-69" transform="translate(55.615234 0)"/>
       <use xlink:href="#ArialMT-6e" transform="translate(77.832031 0)"/>
       <use xlink:href="#ArialMT-31" transform="translate(133.447266 0)"/>
       <use xlink:href="#ArialMT-37" transform="translate(189.0625 0)"/>
       <use xlink:href="#ArialMT-5f" transform="translate(244.677734 0)"/>
       <use xlink:href="#ArialMT-35" transform="translate(300.292969 0)"/>
       <use xlink:href="#ArialMT-32" transform="translate(355.908203 0)"/>
       <use xlink:href="#ArialMT-62" transform="translate(411.523438 0)"/>
       <use xlink:href="#ArialMT-33" transform="translate(467.138672 0)"/>
       <use xlink:href="#ArialMT-37" transform="translate(522.753906 0)"/>
       <use xlink:href="#ArialMT-62" transform="translate(578.369141 0)"/>
       <use xlink:href="#ArialMT-33" transform="translate(633.984375 0)"/>
       <use xlink:href="#ArialMT-65" transform="translate(689.599609 0)"/>
      </g>
     </g>
    </g>
    <g id="xtick_4">
     <g id="text_4">
      <!-- Lin12_ecfa2a6a -->
      <g style="fill: #262626" transform="translate(217.091312 256.654625) scale(0.088 -0.088)">
       <defs>
        <path id="ArialMT-61" d="M 2588 409 
Q 2275 144 1986 34 
Q 1697 -75 1366 -75 
Q 819 -75 525 192 
Q 231 459 231 875 
Q 231 1119 342 1320 
Q 453 1522 633 1644 
Q 813 1766 1038 1828 
Q 1203 1872 1538 1913 
Q 2219 1994 2541 2106 
Q 2544 2222 2544 2253 
Q 2544 2597 2384 2738 
Q 2169 2928 1744 2928 
Q 1347 2928 1158 2789 
Q 969 2650 878 2297 
L 328 2372 
Q 403 2725 575 2942 
Q 747 3159 1072 3276 
Q 1397 3394 1825 3394 
Q 2250 3394 2515 3294 
Q 2781 3194 2906 3042 
Q 3031 2891 3081 2659 
Q 3109 2516 3109 2141 
L 3109 1391 
Q 3109 606 3145 398 
Q 3181 191 3288 0 
L 2700 0 
Q 2613 175 2588 409 
z
M 2541 1666 
Q 2234 1541 1622 1453 
Q 1275 1403 1131 1340 
Q 988 1278 909 1158 
Q 831 1038 831 891 
Q 831 666 1001 516 
Q 1172 366 1500 366 
Q 1825 366 2078 508 
Q 2331 650 2450 897 
Q 2541 1088 2541 1459 
L 2541 1666 
z
" transform="scale(0.015625)"/>
        <path id="ArialMT-36" d="M 3184 3459 
L 2625 3416 
Q 2550 3747 2413 3897 
Q 2184 4138 1850 4138 
Q 1581 4138 1378 3988 
Q 1113 3794 959 3422 
Q 806 3050 800 2363 
Q 1003 2672 1297 2822 
Q 1591 2972 1913 2972 
Q 2475 2972 2870 2558 
Q 3266 2144 3266 1488 
Q 3266 1056 3080 686 
Q 2894 316 2569 119 
Q 2244 -78 1831 -78 
Q 1128 -78 684 439 
Q 241 956 241 2144 
Q 241 3472 731 4075 
Q 1159 4600 1884 4600 
Q 2425 4600 2770 4297 
Q 3116 3994 3184 3459 
z
M 888 1484 
Q 888 1194 1011 928 
Q 1134 663 1356 523 
Q 1578 384 1822 384 
Q 2178 384 2434 671 
Q 2691 959 2691 1453 
Q 2691 1928 2437 2201 
Q 2184 2475 1800 2475 
Q 1419 2475 1153 2201 
Q 888 1928 888 1484 
z
" transform="scale(0.015625)"/>
       </defs>
       <use xlink:href="#ArialMT-4c"/>
       <use xlink:href="#ArialMT-69" transform="translate(55.615234 0)"/>
       <use xlink:href="#ArialMT-6e" transform="translate(77.832031 0)"/>
       <use xlink:href="#ArialMT-31" transform="translate(133.447266 0)"/>
       <use xlink:href="#ArialMT-32" transform="translate(189.0625 0)"/>
       <use xlink:href="#ArialMT-5f" transform="translate(244.677734 0)"/>
       <use xlink:href="#ArialMT-65" transform="translate(300.292969 0)"/>
       <use xlink:href="#ArialMT-63" transform="translate(355.908203 0)"/>
       <use xlink:href="#ArialMT-66" transform="translate(405.908203 0)"/>
       <use xlink:href="#ArialMT-61" transform="translate(433.691406 0)"/>
       <use xlink:href="#ArialMT-32" transform="translate(489.306641 0)"/>
       <use xlink:href="#ArialMT-61" transform="translate(544.921875 0)"/>
       <use xlink:href="#ArialMT-36" transform="translate(600.537109 0)"/>
       <use xlink:href="#ArialMT-61" transform="translate(656.152344 0)"/>
      </g>
     </g>
    </g>
    <g id="xtick_5">
     <g id="text_5">
      <!-- Lin4_779f8028 -->
      <g style="fill: #262626" transform="translate(275.091313 256.654625) scale(0.088 -0.088)">
       <use xlink:href="#ArialMT-4c"/>
       <use xlink:href="#ArialMT-69" transform="translate(55.615234 0)"/>
       <use xlink:href="#ArialMT-6e" transform="translate(77.832031 0)"/>
       <use xlink:href="#ArialMT-34" transform="translate(133.447266 0)"/>
       <use xlink:href="#ArialMT-5f" transform="translate(189.0625 0)"/>
       <use xlink:href="#ArialMT-37" transform="translate(244.677734 0)"/>
       <use xlink:href="#ArialMT-37" transform="translate(300.292969 0)"/>
       <use xlink:href="#ArialMT-39" transform="translate(355.908203 0)"/>
       <use xlink:href="#ArialMT-66" transform="translate(411.523438 0)"/>
       <use xlink:href="#ArialMT-38" transform="translate(439.306641 0)"/>
       <use xlink:href="#ArialMT-30" transform="translate(494.921875 0)"/>
       <use xlink:href="#ArialMT-32" transform="translate(550.537109 0)"/>
       <use xlink:href="#ArialMT-38" transform="translate(606.152344 0)"/>
      </g>
     </g>
    </g>
    <g id="xtick_6">
     <g id="text_6">
      <!-- Lin13_5486e5b4 -->
      <g style="fill: #262626" transform="translate(327.220063 256.5735) scale(0.088 -0.088)">
       <use xlink:href="#ArialMT-4c"/>
       <use xlink:href="#ArialMT-69" transform="translate(55.615234 0)"/>
       <use xlink:href="#ArialMT-6e" transform="translate(77.832031 0)"/>
       <use xlink:href="#ArialMT-31" transform="translate(133.447266 0)"/>
       <use xlink:href="#ArialMT-33" transform="translate(189.0625 0)"/>
       <use xlink:href="#ArialMT-5f" transform="translate(244.677734 0)"/>
       <use xlink:href="#ArialMT-35" transform="translate(300.292969 0)"/>
       <use xlink:href="#ArialMT-34" transform="translate(355.908203 0)"/>
       <use xlink:href="#ArialMT-38" transform="translate(411.523438 0)"/>
       <use xlink:href="#ArialMT-36" transform="translate(467.138672 0)"/>
       <use xlink:href="#ArialMT-65" transform="translate(522.753906 0)"/>
       <use xlink:href="#ArialMT-35" transform="translate(578.369141 0)"/>
       <use xlink:href="#ArialMT-62" transform="translate(633.984375 0)"/>
       <use xlink:href="#ArialMT-34" transform="translate(689.599609 0)"/>
      </g>
     </g>
    </g>
    <g id="xtick_7">
     <g id="text_7">
      <!-- Lin13_ce48e1f0 -->
      <g style="fill: #262626" transform="translate(384.491312 256.654625) scale(0.088 -0.088)">
       <use xlink:href="#ArialMT-4c"/>
       <use xlink:href="#ArialMT-69" transform="translate(55.615234 0)"/>
       <use xlink:href="#ArialMT-6e" transform="translate(77.832031 0)"/>
       <use xlink:href="#ArialMT-31" transform="translate(133.447266 0)"/>
       <use xlink:href="#ArialMT-33" transform="translate(189.0625 0)"/>
       <use xlink:href="#ArialMT-5f" transform="translate(244.677734 0)"/>
       <use xlink:href="#ArialMT-63" transform="translate(300.292969 0)"/>
       <use xlink:href="#ArialMT-65" transform="translate(350.292969 0)"/>
       <use xlink:href="#ArialMT-34" transform="translate(405.908203 0)"/>
       <use xlink:href="#ArialMT-38" transform="translate(461.523438 0)"/>
       <use xlink:href="#ArialMT-65" transform="translate(517.138672 0)"/>
       <use xlink:href="#ArialMT-31" transform="translate(572.753906 0)"/>
       <use xlink:href="#ArialMT-66" transform="translate(628.369141 0)"/>
       <use xlink:href="#ArialMT-30" transform="translate(656.152344 0)"/>
      </g>
     </g>
    </g>
    <g id="xtick_8">
     <g id="text_8">
      <!-- Lin3_c0ae5bce -->
      <g style="fill: #262626" transform="translate(441.7605 256.5735) scale(0.088 -0.088)">
       <use xlink:href="#ArialMT-4c"/>
       <use xlink:href="#ArialMT-69" transform="translate(55.615234 0)"/>
       <use xlink:href="#ArialMT-6e" transform="translate(77.832031 0)"/>
       <use xlink:href="#ArialMT-33" transform="translate(133.447266 0)"/>
       <use xlink:href="#ArialMT-5f" transform="translate(189.0625 0)"/>
       <use xlink:href="#ArialMT-63" transform="translate(244.677734 0)"/>
       <use xlink:href="#ArialMT-30" transform="translate(294.677734 0)"/>
       <use xlink:href="#ArialMT-61" transform="translate(350.292969 0)"/>
       <use xlink:href="#ArialMT-65" transform="translate(405.908203 0)"/>
       <use xlink:href="#ArialMT-35" transform="translate(461.523438 0)"/>
       <use xlink:href="#ArialMT-62" transform="translate(517.138672 0)"/>
       <use xlink:href="#ArialMT-63" transform="translate(572.753906 0)"/>
       <use xlink:href="#ArialMT-65" transform="translate(622.753906 0)"/>
      </g>
     </g>
    </g>
    <g id="text_9">
     <!-- model_id -->
     <g style="fill: #262626" transform="translate(256.82875 269.275125) scale(0.096 -0.096)">
      <defs>
       <path id="ArialMT-6d" d="M 422 0 
L 422 3319 
L 925 3319 
L 925 2853 
Q 1081 3097 1340 3245 
Q 1600 3394 1931 3394 
Q 2300 3394 2536 3241 
Q 2772 3088 2869 2813 
Q 3263 3394 3894 3394 
Q 4388 3394 4653 3120 
Q 4919 2847 4919 2278 
L 4919 0 
L 4359 0 
L 4359 2091 
Q 4359 2428 4304 2576 
Q 4250 2725 4106 2815 
Q 3963 2906 3769 2906 
Q 3419 2906 3187 2673 
Q 2956 2441 2956 1928 
L 2956 0 
L 2394 0 
L 2394 2156 
Q 2394 2531 2256 2718 
Q 2119 2906 1806 2906 
Q 1569 2906 1367 2781 
Q 1166 2656 1075 2415 
Q 984 2175 984 1722 
L 984 0 
L 422 0 
z
" transform="scale(0.015625)"/>
       <path id="ArialMT-6f" d="M 213 1659 
Q 213 2581 725 3025 
Q 1153 3394 1769 3394 
Q 2453 3394 2887 2945 
Q 3322 2497 3322 1706 
Q 3322 1066 3130 698 
Q 2938 331 2570 128 
Q 2203 -75 1769 -75 
Q 1072 -75 642 372 
Q 213 819 213 1659 
z
M 791 1659 
Q 791 1022 1069 705 
Q 1347 388 1769 388 
Q 2188 388 2466 706 
Q 2744 1025 2744 1678 
Q 2744 2294 2464 2611 
Q 2184 2928 1769 2928 
Q 1347 2928 1069 2612 
Q 791 2297 791 1659 
z
" transform="scale(0.015625)"/>
       <path id="ArialMT-64" d="M 2575 0 
L 2575 419 
Q 2259 -75 1647 -75 
Q 1250 -75 917 144 
Q 584 363 401 755 
Q 219 1147 219 1656 
Q 219 2153 384 2558 
Q 550 2963 881 3178 
Q 1213 3394 1622 3394 
Q 1922 3394 2156 3267 
Q 2391 3141 2538 2938 
L 2538 4581 
L 3097 4581 
L 3097 0 
L 2575 0 
z
M 797 1656 
Q 797 1019 1065 703 
Q 1334 388 1700 388 
Q 2069 388 2326 689 
Q 2584 991 2584 1609 
Q 2584 2291 2321 2609 
Q 2059 2928 1675 2928 
Q 1300 2928 1048 2622 
Q 797 2316 797 1656 
z
" transform="scale(0.015625)"/>
       <path id="ArialMT-6c" d="M 409 0 
L 409 4581 
L 972 4581 
L 972 0 
L 409 0 
z
" transform="scale(0.015625)"/>
      </defs>
      <use xlink:href="#ArialMT-6d"/>
      <use xlink:href="#ArialMT-6f" transform="translate(83.300781 0)"/>
      <use xlink:href="#ArialMT-64" transform="translate(138.916016 0)"/>
      <use xlink:href="#ArialMT-65" transform="translate(194.53125 0)"/>
      <use xlink:href="#ArialMT-6c" transform="translate(250.146484 0)"/>
      <use xlink:href="#ArialMT-5f" transform="translate(272.363281 0)"/>
      <use xlink:href="#ArialMT-69" transform="translate(327.978516 0)"/>
      <use xlink:href="#ArialMT-64" transform="translate(350.195312 0)"/>
     </g>
    </g>
   </g>
   <g id="matplotlib.axis_2">
    <g id="ytick_1">
     <g id="line2d_1">
      <path d="M 53.10625 230.941911 
L 499.50625 230.941911 
" clip-path="url(#p00fdc580fe)" style="fill: none; stroke: #cccccc; stroke-width: 0.8; stroke-linecap: round"/>
     </g>
     <g id="text_10">
      <!-- −1000 -->
      <g style="fill: #262626" transform="translate(20.092 234.091348) scale(0.088 -0.088)">
       <defs>
        <path id="ArialMT-2212" d="M 3381 1997 
L 356 1997 
L 356 2522 
L 3381 2522 
L 3381 1997 
z
" transform="scale(0.015625)"/>
       </defs>
       <use xlink:href="#ArialMT-2212"/>
       <use xlink:href="#ArialMT-31" transform="translate(58.398438 0)"/>
       <use xlink:href="#ArialMT-30" transform="translate(114.013672 0)"/>
       <use xlink:href="#ArialMT-30" transform="translate(169.628906 0)"/>
       <use xlink:href="#ArialMT-30" transform="translate(225.244141 0)"/>
      </g>
     </g>
    </g>
    <g id="ytick_2">
     <g id="line2d_2">
      <path d="M 53.10625 202.464268 
L 499.50625 202.464268 
" clip-path="url(#p00fdc580fe)" style="fill: none; stroke: #cccccc; stroke-width: 0.8; stroke-linecap: round"/>
     </g>
     <g id="text_11">
      <!-- −500 -->
      <g style="fill: #262626" transform="translate(24.985625 205.613706) scale(0.088 -0.088)">
       <use xlink:href="#ArialMT-2212"/>
       <use xlink:href="#ArialMT-35" transform="translate(58.398438 0)"/>
       <use xlink:href="#ArialMT-30" transform="translate(114.013672 0)"/>
       <use xlink:href="#ArialMT-30" transform="translate(169.628906 0)"/>
      </g>
     </g>
    </g>
    <g id="ytick_3">
     <g id="line2d_3">
      <path d="M 53.10625 173.986625 
L 499.50625 173.986625 
" clip-path="url(#p00fdc580fe)" style="fill: none; stroke: #cccccc; stroke-width: 0.8; stroke-linecap: round"/>
     </g>
     <g id="text_12">
      <!-- 0 -->
      <g style="fill: #262626" transform="translate(39.912625 177.136063) scale(0.088 -0.088)">
       <use xlink:href="#ArialMT-30"/>
      </g>
     </g>
    </g>
    <g id="ytick_4">
     <g id="line2d_4">
      <path d="M 53.10625 145.508983 
L 499.50625 145.508983 
" clip-path="url(#p00fdc580fe)" style="fill: none; stroke: #cccccc; stroke-width: 0.8; stroke-linecap: round"/>
     </g>
     <g id="text_13">
      <!-- 500 -->
      <g style="fill: #262626" transform="translate(30.125375 148.65842) scale(0.088 -0.088)">
       <use xlink:href="#ArialMT-35"/>
       <use xlink:href="#ArialMT-30" transform="translate(55.615234 0)"/>
       <use xlink:href="#ArialMT-30" transform="translate(111.230469 0)"/>
      </g>
     </g>
    </g>
    <g id="ytick_5">
     <g id="line2d_5">
      <path d="M 53.10625 117.03134 
L 499.50625 117.03134 
" clip-path="url(#p00fdc580fe)" style="fill: none; stroke: #cccccc; stroke-width: 0.8; stroke-linecap: round"/>
     </g>
     <g id="text_14">
      <!-- 1000 -->
      <g style="fill: #262626" transform="translate(25.23175 120.180777) scale(0.088 -0.088)">
       <use xlink:href="#ArialMT-31"/>
       <use xlink:href="#ArialMT-30" transform="translate(55.615234 0)"/>
       <use xlink:href="#ArialMT-30" transform="translate(111.230469 0)"/>
       <use xlink:href="#ArialMT-30" transform="translate(166.845703 0)"/>
      </g>
     </g>
    </g>
    <g id="ytick_6">
     <g id="line2d_6">
      <path d="M 53.10625 88.553697 
L 499.50625 88.553697 
" clip-path="url(#p00fdc580fe)" style="fill: none; stroke: #cccccc; stroke-width: 0.8; stroke-linecap: round"/>
     </g>
     <g id="text_15">
      <!-- 1500 -->
      <g style="fill: #262626" transform="translate(25.23175 91.703135) scale(0.088 -0.088)">
       <use xlink:href="#ArialMT-31"/>
       <use xlink:href="#ArialMT-35" transform="translate(55.615234 0)"/>
       <use xlink:href="#ArialMT-30" transform="translate(111.230469 0)"/>
       <use xlink:href="#ArialMT-30" transform="translate(166.845703 0)"/>
      </g>
     </g>
    </g>
    <g id="ytick_7">
     <g id="line2d_7">
      <path d="M 53.10625 60.076055 
L 499.50625 60.076055 
" clip-path="url(#p00fdc580fe)" style="fill: none; stroke: #cccccc; stroke-width: 0.8; stroke-linecap: round"/>
     </g>
     <g id="text_16">
      <!-- 2000 -->
      <g style="fill: #262626" transform="translate(25.23175 63.225492) scale(0.088 -0.088)">
       <use xlink:href="#ArialMT-32"/>
       <use xlink:href="#ArialMT-30" transform="translate(55.615234 0)"/>
       <use xlink:href="#ArialMT-30" transform="translate(111.230469 0)"/>
       <use xlink:href="#ArialMT-30" transform="translate(166.845703 0)"/>
      </g>
     </g>
    </g>
    <g id="ytick_8">
     <g id="line2d_8">
      <path d="M 53.10625 31.598412 
L 499.50625 31.598412 
" clip-path="url(#p00fdc580fe)" style="fill: none; stroke: #cccccc; stroke-width: 0.8; stroke-linecap: round"/>
     </g>
     <g id="text_17">
      <!-- 2500 -->
      <g style="fill: #262626" transform="translate(25.23175 34.747849) scale(0.088 -0.088)">
       <use xlink:href="#ArialMT-32"/>
       <use xlink:href="#ArialMT-35" transform="translate(55.615234 0)"/>
       <use xlink:href="#ArialMT-30" transform="translate(111.230469 0)"/>
       <use xlink:href="#ArialMT-30" transform="translate(166.845703 0)"/>
      </g>
     </g>
    </g>
    <g id="text_18">
     <!-- y_pred - y_true [sec] -->
     <g style="fill: #262626" transform="translate(14.0715 174.81825) rotate(-90) scale(0.096 -0.096)">
      <defs>
       <path id="ArialMT-79" d="M 397 -1278 
L 334 -750 
Q 519 -800 656 -800 
Q 844 -800 956 -737 
Q 1069 -675 1141 -563 
Q 1194 -478 1313 -144 
Q 1328 -97 1363 -6 
L 103 3319 
L 709 3319 
L 1400 1397 
Q 1534 1031 1641 628 
Q 1738 1016 1872 1384 
L 2581 3319 
L 3144 3319 
L 1881 -56 
Q 1678 -603 1566 -809 
Q 1416 -1088 1222 -1217 
Q 1028 -1347 759 -1347 
Q 597 -1347 397 -1278 
z
" transform="scale(0.015625)"/>
       <path id="ArialMT-70" d="M 422 -1272 
L 422 3319 
L 934 3319 
L 934 2888 
Q 1116 3141 1344 3267 
Q 1572 3394 1897 3394 
Q 2322 3394 2647 3175 
Q 2972 2956 3137 2557 
Q 3303 2159 3303 1684 
Q 3303 1175 3120 767 
Q 2938 359 2589 142 
Q 2241 -75 1856 -75 
Q 1575 -75 1351 44 
Q 1128 163 984 344 
L 984 -1272 
L 422 -1272 
z
M 931 1641 
Q 931 1000 1190 694 
Q 1450 388 1819 388 
Q 2194 388 2461 705 
Q 2728 1022 2728 1688 
Q 2728 2322 2467 2637 
Q 2206 2953 1844 2953 
Q 1484 2953 1207 2617 
Q 931 2281 931 1641 
z
" transform="scale(0.015625)"/>
       <path id="ArialMT-72" d="M 416 0 
L 416 3319 
L 922 3319 
L 922 2816 
Q 1116 3169 1280 3281 
Q 1444 3394 1641 3394 
Q 1925 3394 2219 3213 
L 2025 2691 
Q 1819 2813 1613 2813 
Q 1428 2813 1281 2702 
Q 1134 2591 1072 2394 
Q 978 2094 978 1738 
L 978 0 
L 416 0 
z
" transform="scale(0.015625)"/>
       <path id="ArialMT-20" transform="scale(0.015625)"/>
       <path id="ArialMT-2d" d="M 203 1375 
L 203 1941 
L 1931 1941 
L 1931 1375 
L 203 1375 
z
" transform="scale(0.015625)"/>
       <path id="ArialMT-74" d="M 1650 503 
L 1731 6 
Q 1494 -44 1306 -44 
Q 1000 -44 831 53 
Q 663 150 594 308 
Q 525 466 525 972 
L 525 2881 
L 113 2881 
L 113 3319 
L 525 3319 
L 525 4141 
L 1084 4478 
L 1084 3319 
L 1650 3319 
L 1650 2881 
L 1084 2881 
L 1084 941 
Q 1084 700 1114 631 
Q 1144 563 1211 522 
Q 1278 481 1403 481 
Q 1497 481 1650 503 
z
" transform="scale(0.015625)"/>
       <path id="ArialMT-75" d="M 2597 0 
L 2597 488 
Q 2209 -75 1544 -75 
Q 1250 -75 995 37 
Q 741 150 617 320 
Q 494 491 444 738 
Q 409 903 409 1263 
L 409 3319 
L 972 3319 
L 972 1478 
Q 972 1038 1006 884 
Q 1059 663 1231 536 
Q 1403 409 1656 409 
Q 1909 409 2131 539 
Q 2353 669 2445 892 
Q 2538 1116 2538 1541 
L 2538 3319 
L 3100 3319 
L 3100 0 
L 2597 0 
z
" transform="scale(0.015625)"/>
       <path id="ArialMT-5b" d="M 434 -1272 
L 434 4581 
L 1675 4581 
L 1675 4116 
L 997 4116 
L 997 -806 
L 1675 -806 
L 1675 -1272 
L 434 -1272 
z
" transform="scale(0.015625)"/>
       <path id="ArialMT-73" d="M 197 991 
L 753 1078 
Q 800 744 1014 566 
Q 1228 388 1613 388 
Q 2000 388 2187 545 
Q 2375 703 2375 916 
Q 2375 1106 2209 1216 
Q 2094 1291 1634 1406 
Q 1016 1563 777 1677 
Q 538 1791 414 1992 
Q 291 2194 291 2438 
Q 291 2659 392 2848 
Q 494 3038 669 3163 
Q 800 3259 1026 3326 
Q 1253 3394 1513 3394 
Q 1903 3394 2198 3281 
Q 2494 3169 2634 2976 
Q 2775 2784 2828 2463 
L 2278 2388 
Q 2241 2644 2061 2787 
Q 1881 2931 1553 2931 
Q 1166 2931 1000 2803 
Q 834 2675 834 2503 
Q 834 2394 903 2306 
Q 972 2216 1119 2156 
Q 1203 2125 1616 2013 
Q 2213 1853 2448 1751 
Q 2684 1650 2818 1456 
Q 2953 1263 2953 975 
Q 2953 694 2789 445 
Q 2625 197 2315 61 
Q 2006 -75 1616 -75 
Q 969 -75 630 194 
Q 291 463 197 991 
z
" transform="scale(0.015625)"/>
       <path id="ArialMT-5d" d="M 1363 -1272 
L 122 -1272 
L 122 -806 
L 800 -806 
L 800 4116 
L 122 4116 
L 122 4581 
L 1363 4581 
L 1363 -1272 
z
" transform="scale(0.015625)"/>
      </defs>
      <use xlink:href="#ArialMT-79"/>
      <use xlink:href="#ArialMT-5f" transform="translate(50 0)"/>
      <use xlink:href="#ArialMT-70" transform="translate(105.615234 0)"/>
      <use xlink:href="#ArialMT-72" transform="translate(161.230469 0)"/>
      <use xlink:href="#ArialMT-65" transform="translate(194.53125 0)"/>
      <use xlink:href="#ArialMT-64" transform="translate(250.146484 0)"/>
      <use xlink:href="#ArialMT-20" transform="translate(305.761719 0)"/>
      <use xlink:href="#ArialMT-2d" transform="translate(333.544922 0)"/>
      <use xlink:href="#ArialMT-20" transform="translate(366.845703 0)"/>
      <use xlink:href="#ArialMT-79" transform="translate(394.628906 0)"/>
      <use xlink:href="#ArialMT-5f" transform="translate(444.628906 0)"/>
      <use xlink:href="#ArialMT-74" transform="translate(500.244141 0)"/>
      <use xlink:href="#ArialMT-72" transform="translate(528.027344 0)"/>
      <use xlink:href="#ArialMT-75" transform="translate(561.328125 0)"/>
      <use xlink:href="#ArialMT-65" transform="translate(616.943359 0)"/>
      <use xlink:href="#ArialMT-20" transform="translate(672.558594 0)"/>
      <use xlink:href="#ArialMT-5b" transform="translate(700.341797 0)"/>
      <use xlink:href="#ArialMT-73" transform="translate(728.125 0)"/>
      <use xlink:href="#ArialMT-65" transform="translate(778.125 0)"/>
      <use xlink:href="#ArialMT-63" transform="translate(833.740234 0)"/>
      <use xlink:href="#ArialMT-5d" transform="translate(883.740234 0)"/>
     </g>
    </g>
   </g>
   <g id="FillBetweenPolyCollection_1">
    <defs>
     <path id="m63e7220e7e" d="M 81.026929 -69.601191 
L 80.985571 -69.601191 
L 80.938323 -70.665982 
L 80.825636 -71.730773 
L 80.612844 -72.795564 
L 80.295077 -73.860354 
L 79.923085 -74.925145 
L 79.587727 -75.989936 
L 79.357908 -77.054727 
L 79.223768 -78.119518 
L 79.102502 -79.184309 
L 78.896467 -80.2491 
L 78.54684 -81.313891 
L 78.05872 -82.378682 
L 77.502287 -83.443473 
L 76.971181 -84.508264 
L 76.50128 -85.573055 
L 76.040753 -86.637846 
L 75.538437 -87.702636 
L 75.04557 -88.767427 
L 74.674104 -89.832218 
L 74.444844 -90.897009 
L 74.214498 -91.9618 
L 73.773136 -93.026591 
L 73.007442 -94.091382 
L 71.965487 -95.156173 
L 70.775925 -96.220964 
L 69.538888 -97.285755 
L 68.318154 -98.350546 
L 67.191399 -99.415337 
L 66.222566 -100.480128 
L 65.374283 -101.544918 
L 64.51738 -102.609709 
L 63.567404 -103.6745 
L 62.588856 -104.739291 
L 61.752328 -105.804082 
L 61.225961 -106.868873 
L 61.152652 -107.933664 
L 61.709837 -108.998455 
L 63.069706 -110.063246 
L 65.190276 -111.128037 
L 67.690139 -112.192828 
L 70.044209 -113.257619 
L 71.906123 -114.32241 
L 73.211681 -115.387201 
L 74.068098 -116.451991 
L 74.64265 -117.516782 
L 75.104368 -118.581573 
L 75.576912 -119.646364 
L 76.123413 -120.711155 
L 76.770177 -121.775946 
L 77.514649 -122.840737 
L 78.300359 -123.905528 
L 79.021311 -124.970319 
L 79.588008 -126.03511 
L 79.986143 -127.099901 
L 80.263316 -128.164692 
L 80.47342 -129.229483 
L 80.64175 -130.294273 
L 80.770308 -131.359064 
L 80.858828 -132.423855 
L 80.914174 -133.488646 
L 80.946974 -134.553437 
L 80.967177 -135.618228 
L 80.981567 -136.683019 
L 80.99259 -137.74781 
L 81.00006 -138.812601 
L 81.004037 -139.877392 
L 81.005632 -140.942183 
L 81.006079 -142.006974 
L 81.006003 -143.071765 
L 81.005283 -144.136555 
L 81.003091 -145.201346 
L 80.9983 -146.266137 
L 80.990733 -147.330928 
L 80.982311 -148.395719 
L 80.975956 -149.46051 
L 80.973003 -150.525301 
L 80.973021 -151.590092 
L 80.976018 -152.654883 
L 80.982415 -153.719674 
L 80.990846 -154.784465 
L 80.998384 -155.849256 
L 81.003136 -156.914047 
L 81.005302 -157.978837 
L 81.006026 -159.043628 
L 81.006186 -160.108419 
L 81.006097 -161.17321 
L 81.005572 -162.238001 
L 81.003867 -163.302792 
L 80.999806 -164.367583 
L 80.992737 -165.432374 
L 80.983906 -166.497165 
L 80.976202 -167.561956 
L 80.971857 -168.626747 
L 80.971314 -169.691538 
L 80.974542 -170.756329 
L 80.981413 -171.821119 
L 80.990235 -172.88591 
L 80.998047 -173.950701 
L 81.00298 -175.015492 
L 81.00952 -175.015492 
L 81.00952 -175.015492 
L 81.014453 -173.950701 
L 81.022265 -172.88591 
L 81.031087 -171.821119 
L 81.037958 -170.756329 
L 81.041186 -169.691538 
L 81.040643 -168.626747 
L 81.036298 -167.561956 
L 81.028594 -166.497165 
L 81.019763 -165.432374 
L 81.012694 -164.367583 
L 81.008633 -163.302792 
L 81.006928 -162.238001 
L 81.006403 -161.17321 
L 81.006314 -160.108419 
L 81.006474 -159.043628 
L 81.007198 -157.978837 
L 81.009364 -156.914047 
L 81.014116 -155.849256 
L 81.021654 -154.784465 
L 81.030085 -153.719674 
L 81.036482 -152.654883 
L 81.039479 -151.590092 
L 81.039497 -150.525301 
L 81.036544 -149.46051 
L 81.030189 -148.395719 
L 81.021767 -147.330928 
L 81.0142 -146.266137 
L 81.009409 -145.201346 
L 81.007217 -144.136555 
L 81.006497 -143.071765 
L 81.006421 -142.006974 
L 81.006868 -140.942183 
L 81.008463 -139.877392 
L 81.01244 -138.812601 
L 81.01991 -137.74781 
L 81.030933 -136.683019 
L 81.045323 -135.618228 
L 81.065526 -134.553437 
L 81.098326 -133.488646 
L 81.153672 -132.423855 
L 81.242192 -131.359064 
L 81.37075 -130.294273 
L 81.53908 -129.229483 
L 81.749184 -128.164692 
L 82.026357 -127.099901 
L 82.424492 -126.03511 
L 82.991189 -124.970319 
L 83.712141 -123.905528 
L 84.497851 -122.840737 
L 85.242323 -121.775946 
L 85.889087 -120.711155 
L 86.435588 -119.646364 
L 86.908132 -118.581573 
L 87.36985 -117.516782 
L 87.944402 -116.451991 
L 88.800819 -115.387201 
L 90.106377 -114.32241 
L 91.968291 -113.257619 
L 94.322361 -112.192828 
L 96.822224 -111.128037 
L 98.942794 -110.063246 
L 100.302663 -108.998455 
L 100.859848 -107.933664 
L 100.786539 -106.868873 
L 100.260172 -105.804082 
L 99.423644 -104.739291 
L 98.445096 -103.6745 
L 97.49512 -102.609709 
L 96.638217 -101.544918 
L 95.789934 -100.480128 
L 94.821101 -99.415337 
L 93.694346 -98.350546 
L 92.473612 -97.285755 
L 91.236575 -96.220964 
L 90.047013 -95.156173 
L 89.005058 -94.091382 
L 88.239364 -93.026591 
L 87.798002 -91.9618 
L 87.567656 -90.897009 
L 87.338396 -89.832218 
L 86.96693 -88.767427 
L 86.474063 -87.702636 
L 85.971747 -86.637846 
L 85.51122 -85.573055 
L 85.041319 -84.508264 
L 84.510213 -83.443473 
L 83.95378 -82.378682 
L 83.46566 -81.313891 
L 83.116033 -80.2491 
L 82.909998 -79.184309 
L 82.788732 -78.119518 
L 82.654592 -77.054727 
L 82.424773 -75.989936 
L 82.089415 -74.925145 
L 81.717423 -73.860354 
L 81.399656 -72.795564 
L 81.186864 -71.730773 
L 81.074177 -70.665982 
L 81.026929 -69.601191 
z
" style="stroke: #4c4c4c"/>
    </defs>
    <g clip-path="url(#p00fdc580fe)">
     <use xlink:href="#m63e7220e7e" x="0" y="278.383125" style="fill: #5875a4; stroke: #4c4c4c"/>
    </g>
   </g>
   <g id="FillBetweenPolyCollection_2">
    <defs>
     <path id="md513f1af4a" d="M 136.809481 -52.870092 
L 136.803019 -52.870092 
L 136.793421 -54.618915 
L 136.775683 -56.367738 
L 136.757639 -58.116561 
L 136.7509 -59.865384 
L 136.759119 -61.614207 
L 136.767936 -63.36303 
L 136.766723 -65.111854 
L 136.753874 -66.860677 
L 136.681119 -68.6095 
L 136.42091 -70.358323 
L 135.928649 -72.107146 
L 135.464168 -73.855969 
L 135.282776 -75.604792 
L 135.197323 -77.353615 
L 134.920639 -79.102438 
L 134.491097 -80.851261 
L 134.069523 -82.600084 
L 133.694452 -84.348907 
L 133.234386 -86.09773 
L 132.366662 -87.846554 
L 131.122533 -89.595377 
L 130.010513 -91.3442 
L 129.049191 -93.093023 
L 127.798037 -94.841846 
L 126.117298 -96.590669 
L 124.303957 -98.339492 
L 122.767434 -100.088315 
L 121.48034 -101.837138 
L 120.05897 -103.585961 
L 118.504219 -105.334784 
L 117.22675 -107.083607 
L 117.076131 -108.83243 
L 119.222006 -110.581254 
L 123.192832 -112.330077 
L 126.742246 -114.0789 
L 128.707612 -115.827723 
L 129.674429 -117.576546 
L 130.636353 -119.325369 
L 132.121645 -121.074192 
L 133.764201 -122.823015 
L 134.969086 -124.571838 
L 135.635369 -126.320661 
L 136.025094 -128.069484 
L 136.335032 -129.818307 
L 136.562634 -131.56713 
L 136.6911 -133.315954 
L 136.759966 -135.064777 
L 136.793433 -136.8136 
L 136.804126 -138.562423 
L 136.806052 -140.311246 
L 136.806239 -142.060069 
L 136.806231 -143.808892 
L 136.805975 -145.557715 
L 136.804097 -147.306538 
L 136.797392 -149.055361 
L 136.787092 -150.804184 
L 136.784468 -152.553007 
L 136.793226 -154.30183 
L 136.802052 -156.050654 
L 136.804501 -157.799477 
L 136.800572 -159.5483 
L 136.790779 -161.297123 
L 136.783867 -163.045946 
L 136.789224 -164.794769 
L 136.799442 -166.543592 
L 136.804819 -168.292415 
L 136.806092 -170.041238 
L 136.806241 -171.790061 
L 136.80625 -173.538884 
L 136.806249 -175.287707 
L 136.806234 -177.03653 
L 136.806008 -178.785354 
L 136.804292 -180.534177 
L 136.797909 -182.283 
L 136.787571 -184.031823 
L 136.78426 -185.780646 
L 136.792631 -187.529469 
L 136.801658 -189.278292 
L 136.804021 -191.027115 
L 136.799247 -192.775938 
L 136.78907 -194.524761 
L 136.783885 -196.273584 
L 136.790941 -198.022407 
L 136.800742 -199.77123 
L 136.805208 -201.520054 
L 136.806146 -203.268877 
L 136.806244 -205.0177 
L 136.806241 -206.766523 
L 136.806102 -208.515346 
L 136.80489 -210.264169 
L 136.799665 -212.012992 
L 136.789466 -213.761815 
L 136.783412 -215.510638 
L 136.787517 -217.259461 
L 136.789611 -219.008284 
L 136.784467 -220.757107 
L 136.785404 -222.50593 
L 136.795304 -224.254754 
L 136.803215 -226.003577 
L 136.809285 -226.003577 
L 136.809285 -226.003577 
L 136.817196 -224.254754 
L 136.827096 -222.50593 
L 136.828033 -220.757107 
L 136.822889 -219.008284 
L 136.824983 -217.259461 
L 136.829088 -215.510638 
L 136.823034 -213.761815 
L 136.812835 -212.012992 
L 136.80761 -210.264169 
L 136.806398 -208.515346 
L 136.806259 -206.766523 
L 136.806256 -205.0177 
L 136.806354 -203.268877 
L 136.807292 -201.520054 
L 136.811758 -199.77123 
L 136.821559 -198.022407 
L 136.828615 -196.273584 
L 136.82343 -194.524761 
L 136.813253 -192.775938 
L 136.808479 -191.027115 
L 136.810842 -189.278292 
L 136.819869 -187.529469 
L 136.82824 -185.780646 
L 136.824929 -184.031823 
L 136.814591 -182.283 
L 136.808208 -180.534177 
L 136.806492 -178.785354 
L 136.806266 -177.03653 
L 136.806251 -175.287707 
L 136.80625 -173.538884 
L 136.806259 -171.790061 
L 136.806408 -170.041238 
L 136.807681 -168.292415 
L 136.813058 -166.543592 
L 136.823276 -164.794769 
L 136.828633 -163.045946 
L 136.821721 -161.297123 
L 136.811928 -159.5483 
L 136.807999 -157.799477 
L 136.810448 -156.050654 
L 136.819274 -154.30183 
L 136.828032 -152.553007 
L 136.825408 -150.804184 
L 136.815108 -149.055361 
L 136.808403 -147.306538 
L 136.806525 -145.557715 
L 136.806269 -143.808892 
L 136.806261 -142.060069 
L 136.806448 -140.311246 
L 136.808374 -138.562423 
L 136.819067 -136.8136 
L 136.852534 -135.064777 
L 136.9214 -133.315954 
L 137.049866 -131.56713 
L 137.277468 -129.818307 
L 137.587406 -128.069484 
L 137.977131 -126.320661 
L 138.643414 -124.571838 
L 139.848299 -122.823015 
L 141.490855 -121.074192 
L 142.976147 -119.325369 
L 143.938071 -117.576546 
L 144.904888 -115.827723 
L 146.870254 -114.0789 
L 150.419668 -112.330077 
L 154.390494 -110.581254 
L 156.536369 -108.83243 
L 156.38575 -107.083607 
L 155.108281 -105.334784 
L 153.55353 -103.585961 
L 152.13216 -101.837138 
L 150.845066 -100.088315 
L 149.308543 -98.339492 
L 147.495202 -96.590669 
L 145.814463 -94.841846 
L 144.563309 -93.093023 
L 143.601987 -91.3442 
L 142.489967 -89.595377 
L 141.245838 -87.846554 
L 140.378114 -86.09773 
L 139.918048 -84.348907 
L 139.542977 -82.600084 
L 139.121403 -80.851261 
L 138.691861 -79.102438 
L 138.415177 -77.353615 
L 138.329724 -75.604792 
L 138.148332 -73.855969 
L 137.683851 -72.107146 
L 137.19159 -70.358323 
L 136.931381 -68.6095 
L 136.858626 -66.860677 
L 136.845777 -65.111854 
L 136.844564 -63.36303 
L 136.853381 -61.614207 
L 136.8616 -59.865384 
L 136.854861 -58.116561 
L 136.836817 -56.367738 
L 136.819079 -54.618915 
L 136.809481 -52.870092 
z
" style="stroke: #4c4c4c"/>
    </defs>
    <g clip-path="url(#p00fdc580fe)">
     <use xlink:href="#md513f1af4a" x="0" y="278.383125" style="fill: #5875a4; stroke: #4c4c4c"/>
    </g>
   </g>
   <g id="FillBetweenPolyCollection_3">
    <defs>
     <path id="m8c8900b4dc" d="M 192.620028 -69.74211 
L 192.592472 -69.74211 
L 192.574387 -70.419177 
L 192.538968 -71.096244 
L 192.47596 -71.77331 
L 192.374066 -72.450377 
L 192.224572 -73.127444 
L 192.026606 -73.80451 
L 191.792088 -74.481577 
L 191.547032 -75.158644 
L 191.32638 -75.83571 
L 191.1628 -76.512777 
L 191.074246 -77.189844 
L 191.05705 -77.86691 
L 191.088407 -78.543977 
L 191.136019 -79.221044 
L 191.168279 -79.89811 
L 191.159409 -80.575177 
L 191.089286 -81.252244 
L 190.942316 -81.92931 
L 190.709929 -82.606377 
L 190.397698 -83.283444 
L 190.033767 -83.96051 
L 189.671992 -84.637577 
L 189.382628 -85.314644 
L 189.228157 -85.991711 
L 189.232122 -86.668777 
L 189.357739 -87.345844 
L 189.510744 -88.022911 
L 189.566824 -88.699977 
L 189.409994 -89.377044 
L 188.966232 -90.054111 
L 188.224822 -90.731177 
L 187.245791 -91.408244 
L 186.149994 -92.085311 
L 185.086884 -92.762377 
L 184.183695 -93.439444 
L 183.495519 -94.116511 
L 182.983078 -94.793577 
L 182.533485 -95.470644 
L 182.015125 -96.147711 
L 181.338896 -96.824777 
L 180.497275 -97.501844 
L 179.566748 -98.178911 
L 178.675575 -98.855977 
L 177.949982 -99.533044 
L 177.460003 -100.210111 
L 177.190804 -100.887178 
L 177.057113 -101.564244 
L 176.953032 -102.241311 
L 176.80437 -102.918378 
L 176.590157 -103.595444 
L 176.325514 -104.272511 
L 176.025097 -104.949578 
L 175.673839 -105.626644 
L 175.221824 -106.303711 
L 174.60645 -106.980778 
L 173.793588 -107.657844 
L 172.819805 -108.334911 
L 171.812973 -109.011978 
L 170.97494 -109.689044 
L 170.52781 -110.366111 
L 170.645001 -111.043178 
L 171.396879 -111.720244 
L 172.733149 -112.397311 
L 174.506601 -113.074378 
L 176.525867 -113.751444 
L 178.614526 -114.428511 
L 180.651975 -115.105578 
L 182.579707 -115.782645 
L 184.375223 -116.459711 
L 186.015474 -117.136778 
L 187.456979 -117.813845 
L 188.644705 -118.490911 
L 189.53898 -119.167978 
L 190.138565 -119.845045 
L 190.485178 -120.522111 
L 190.649691 -121.199178 
L 190.709899 -121.876245 
L 190.73066 -122.553311 
L 190.753179 -123.230378 
L 190.794879 -123.907445 
L 190.856552 -124.584511 
L 190.931529 -125.261578 
L 191.013333 -125.938645 
L 191.100735 -126.615711 
L 191.199235 -127.292778 
L 191.317663 -127.969845 
L 191.461106 -128.646911 
L 191.625223 -129.323978 
L 191.796891 -130.001045 
L 191.960749 -130.678112 
L 192.106193 -131.355178 
L 192.229748 -132.032245 
L 192.332572 -132.709312 
L 192.416655 -133.386378 
L 192.482982 -134.063445 
L 192.532102 -134.740512 
L 192.565459 -135.417578 
L 192.585902 -136.094645 
L 192.597103 -136.771712 
L 192.615397 -136.771712 
L 192.615397 -136.771712 
L 192.626598 -136.094645 
L 192.647041 -135.417578 
L 192.680398 -134.740512 
L 192.729518 -134.063445 
L 192.795845 -133.386378 
L 192.879928 -132.709312 
L 192.982752 -132.032245 
L 193.106307 -131.355178 
L 193.251751 -130.678112 
L 193.415609 -130.001045 
L 193.587277 -129.323978 
L 193.751394 -128.646911 
L 193.894837 -127.969845 
L 194.013265 -127.292778 
L 194.111765 -126.615711 
L 194.199167 -125.938645 
L 194.280971 -125.261578 
L 194.355948 -124.584511 
L 194.417621 -123.907445 
L 194.459321 -123.230378 
L 194.48184 -122.553311 
L 194.502601 -121.876245 
L 194.562809 -121.199178 
L 194.727322 -120.522111 
L 195.073935 -119.845045 
L 195.67352 -119.167978 
L 196.567795 -118.490911 
L 197.755521 -117.813845 
L 199.197026 -117.136778 
L 200.837277 -116.459711 
L 202.632793 -115.782645 
L 204.560525 -115.105578 
L 206.597974 -114.428511 
L 208.686633 -113.751444 
L 210.705899 -113.074378 
L 212.479351 -112.397311 
L 213.815621 -111.720244 
L 214.567499 -111.043178 
L 214.68469 -110.366111 
L 214.23756 -109.689044 
L 213.399527 -109.011978 
L 212.392695 -108.334911 
L 211.418912 -107.657844 
L 210.60605 -106.980778 
L 209.990676 -106.303711 
L 209.538661 -105.626644 
L 209.187403 -104.949578 
L 208.886986 -104.272511 
L 208.622343 -103.595444 
L 208.40813 -102.918378 
L 208.259468 -102.241311 
L 208.155387 -101.564244 
L 208.021696 -100.887178 
L 207.752497 -100.210111 
L 207.262518 -99.533044 
L 206.536925 -98.855977 
L 205.645752 -98.178911 
L 204.715225 -97.501844 
L 203.873604 -96.824777 
L 203.197375 -96.147711 
L 202.679015 -95.470644 
L 202.229422 -94.793577 
L 201.716981 -94.116511 
L 201.028805 -93.439444 
L 200.125616 -92.762377 
L 199.062506 -92.085311 
L 197.966709 -91.408244 
L 196.987678 -90.731177 
L 196.246268 -90.054111 
L 195.802506 -89.377044 
L 195.645676 -88.699977 
L 195.701756 -88.022911 
L 195.854761 -87.345844 
L 195.980378 -86.668777 
L 195.984343 -85.991711 
L 195.829872 -85.314644 
L 195.540508 -84.637577 
L 195.178733 -83.96051 
L 194.814802 -83.283444 
L 194.502571 -82.606377 
L 194.270184 -81.92931 
L 194.123214 -81.252244 
L 194.053091 -80.575177 
L 194.044221 -79.89811 
L 194.076481 -79.221044 
L 194.124093 -78.543977 
L 194.15545 -77.86691 
L 194.138254 -77.189844 
L 194.0497 -76.512777 
L 193.88612 -75.83571 
L 193.665468 -75.158644 
L 193.420412 -74.481577 
L 193.185894 -73.80451 
L 192.987928 -73.127444 
L 192.838434 -72.450377 
L 192.73654 -71.77331 
L 192.673532 -71.096244 
L 192.638113 -70.419177 
L 192.620028 -69.74211 
z
" style="stroke: #4c4c4c"/>
    </defs>
    <g clip-path="url(#p00fdc580fe)">
     <use xlink:href="#m8c8900b4dc" x="0" y="278.383125" style="fill: #5875a4; stroke: #4c4c4c"/>
    </g>
   </g>
   <g id="FillBetweenPolyCollection_4">
    <defs>
     <path id="maca5b66084" d="M 248.430908 -70.708915 
L 248.381592 -70.708915 
L 248.350332 -71.364725 
L 248.291648 -72.020534 
L 248.193367 -72.676343 
L 248.046598 -73.332152 
L 247.851379 -73.987961 
L 247.620697 -74.64377 
L 247.379887 -75.29958 
L 247.16054 -75.955389 
L 246.991196 -76.611198 
L 246.888979 -77.267007 
L 246.855482 -77.922816 
L 246.877746 -78.578626 
L 246.932707 -79.234435 
L 246.992399 -79.890244 
L 247.027735 -80.546053 
L 247.010549 -81.201862 
L 246.915638 -81.857672 
L 246.724994 -82.513481 
L 246.434883 -83.16929 
L 246.06376 -83.825099 
L 245.656761 -84.480908 
L 245.281313 -85.136717 
L 245.009913 -85.792527 
L 244.89221 -86.448336 
L 244.927364 -87.104145 
L 245.052163 -87.759954 
L 245.154333 -88.415763 
L 245.106764 -89.071573 
L 244.807983 -89.727382 
L 244.214177 -90.383191 
L 243.354421 -91.039 
L 242.325661 -91.694809 
L 241.26617 -92.350618 
L 240.31159 -93.006428 
L 239.547604 -93.662237 
L 238.98005 -94.318046 
L 238.53791 -94.973855 
L 238.10826 -95.629664 
L 237.586279 -96.285474 
L 236.918539 -96.941283 
L 236.124227 -97.597092 
L 235.288703 -98.252901 
L 234.530992 -98.90871 
L 233.954272 -99.56452 
L 233.599119 -100.220329 
L 233.42514 -100.876138 
L 233.334726 -101.531947 
L 233.225504 -102.187756 
L 233.037673 -102.843565 
L 232.767873 -103.499375 
L 232.446588 -104.155184 
L 232.099058 -104.810993 
L 231.715448 -105.466802 
L 231.246842 -106.122611 
L 230.628923 -106.778421 
L 229.822214 -107.43423 
L 228.849974 -108.090039 
L 227.81502 -108.745848 
L 226.885538 -109.401657 
L 226.254102 -110.057466 
L 226.08625 -110.713276 
L 226.478106 -111.369085 
L 227.436339 -112.024894 
L 228.88394 -112.680703 
L 230.687351 -113.336512 
L 232.69489 -113.992322 
L 234.772381 -114.648131 
L 236.822205 -115.30394 
L 238.780133 -115.959749 
L 240.597499 -116.615558 
L 242.224816 -117.271367 
L 243.609642 -117.927177 
L 244.709178 -118.582986 
L 245.507216 -119.238795 
L 246.023488 -119.894604 
L 246.310057 -120.550413 
L 246.437269 -121.206223 
L 246.475984 -121.862032 
L 246.483007 -122.517841 
L 246.494162 -123.17365 
L 246.52546 -123.829459 
L 246.579287 -124.485269 
L 246.651708 -125.141078 
L 246.738639 -125.796887 
L 246.839924 -126.452696 
L 246.960039 -127.108505 
L 247.104499 -127.764314 
L 247.273908 -128.420124 
L 247.46031 -129.075933 
L 247.649125 -129.731742 
L 247.825185 -130.387551 
L 247.978129 -131.04336 
L 248.103871 -131.69917 
L 248.202731 -132.354979 
L 248.276984 -133.010788 
L 248.32965 -133.666597 
L 248.364359 -134.322406 
L 248.385299 -134.978215 
L 248.396734 -135.634025 
L 248.415766 -135.634025 
L 248.415766 -135.634025 
L 248.427201 -134.978215 
L 248.448141 -134.322406 
L 248.48285 -133.666597 
L 248.535516 -133.010788 
L 248.609769 -132.354979 
L 248.708629 -131.69917 
L 248.834371 -131.04336 
L 248.987315 -130.387551 
L 249.163375 -129.731742 
L 249.35219 -129.075933 
L 249.538592 -128.420124 
L 249.708001 -127.764314 
L 249.852461 -127.108505 
L 249.972576 -126.452696 
L 250.073861 -125.796887 
L 250.160792 -125.141078 
L 250.233213 -124.485269 
L 250.28704 -123.829459 
L 250.318338 -123.17365 
L 250.329493 -122.517841 
L 250.336516 -121.862032 
L 250.375231 -121.206223 
L 250.502443 -120.550413 
L 250.789012 -119.894604 
L 251.305284 -119.238795 
L 252.103322 -118.582986 
L 253.202858 -117.927177 
L 254.587684 -117.271367 
L 256.215001 -116.615558 
L 258.032367 -115.959749 
L 259.990295 -115.30394 
L 262.040119 -114.648131 
L 264.11761 -113.992322 
L 266.125149 -113.336512 
L 267.92856 -112.680703 
L 269.376161 -112.024894 
L 270.334394 -111.369085 
L 270.72625 -110.713276 
L 270.558398 -110.057466 
L 269.926962 -109.401657 
L 268.99748 -108.745848 
L 267.962526 -108.090039 
L 266.990286 -107.43423 
L 266.183577 -106.778421 
L 265.565658 -106.122611 
L 265.097052 -105.466802 
L 264.713442 -104.810993 
L 264.365912 -104.155184 
L 264.044627 -103.499375 
L 263.774827 -102.843565 
L 263.586996 -102.187756 
L 263.477774 -101.531947 
L 263.38736 -100.876138 
L 263.213381 -100.220329 
L 262.858228 -99.56452 
L 262.281508 -98.90871 
L 261.523797 -98.252901 
L 260.688273 -97.597092 
L 259.893961 -96.941283 
L 259.226221 -96.285474 
L 258.70424 -95.629664 
L 258.27459 -94.973855 
L 257.83245 -94.318046 
L 257.264896 -93.662237 
L 256.50091 -93.006428 
L 255.54633 -92.350618 
L 254.486839 -91.694809 
L 253.458079 -91.039 
L 252.598323 -90.383191 
L 252.004517 -89.727382 
L 251.705736 -89.071573 
L 251.658167 -88.415763 
L 251.760337 -87.759954 
L 251.885136 -87.104145 
L 251.92029 -86.448336 
L 251.802587 -85.792527 
L 251.531187 -85.136717 
L 251.155739 -84.480908 
L 250.74874 -83.825099 
L 250.377617 -83.16929 
L 250.087506 -82.513481 
L 249.896862 -81.857672 
L 249.801951 -81.201862 
L 249.784765 -80.546053 
L 249.820101 -79.890244 
L 249.879793 -79.234435 
L 249.934754 -78.578626 
L 249.957018 -77.922816 
L 249.923521 -77.267007 
L 249.821304 -76.611198 
L 249.65196 -75.955389 
L 249.432613 -75.29958 
L 249.191803 -74.64377 
L 248.961121 -73.987961 
L 248.765902 -73.332152 
L 248.619133 -72.676343 
L 248.520852 -72.020534 
L 248.462168 -71.364725 
L 248.430908 -70.708915 
z
" style="stroke: #4c4c4c"/>
    </defs>
    <g clip-path="url(#p00fdc580fe)">
     <use xlink:href="#maca5b66084" x="0" y="278.383125" style="fill: #5875a4; stroke: #4c4c4c"/>
    </g>
   </g>
   <g id="FillBetweenPolyCollection_5">
    <defs>
     <path id="m9ead5ba2c9" d="M 304.214368 -63.828668 
L 304.198132 -63.828668 
L 304.188641 -64.619528 
L 304.172824 -65.410388 
L 304.150221 -66.201248 
L 304.122007 -66.992108 
L 304.089683 -67.782968 
L 304.052253 -68.573828 
L 304.003979 -69.364688 
L 303.935071 -70.155548 
L 303.835523 -70.946407 
L 303.699854 -71.737267 
L 303.530116 -72.528127 
L 303.336222 -73.318987 
L 303.134031 -74.109847 
L 302.941685 -74.900707 
L 302.774446 -75.691567 
L 302.639502 -76.482427 
L 302.534023 -77.273287 
L 302.448619 -78.064147 
L 302.373086 -78.855007 
L 302.297698 -79.645867 
L 302.208595 -80.436727 
L 302.086037 -81.227587 
L 301.915222 -82.018447 
L 301.705497 -82.809307 
L 301.499088 -83.600167 
L 301.35423 -84.391027 
L 301.309486 -85.181887 
L 301.354759 -85.972747 
L 301.430284 -86.763607 
L 301.45225 -87.554467 
L 301.345312 -88.345327 
L 301.063116 -89.136187 
L 300.591839 -89.927047 
L 299.94304 -90.717907 
L 299.144042 -91.508767 
L 298.230934 -92.299627 
L 297.24602 -93.090487 
L 296.237118 -93.881347 
L 295.251226 -94.672207 
L 294.318287 -95.463067 
L 293.434555 -96.253927 
L 292.563249 -97.044787 
L 291.657173 -97.835647 
L 290.687764 -98.626507 
L 289.664513 -99.417367 
L 288.644558 -100.208227 
L 287.734635 -100.999087 
L 287.07189 -101.789947 
L 286.769563 -102.580807 
L 286.845566 -103.371667 
L 287.182582 -104.162527 
L 287.556559 -104.953387 
L 287.724022 -105.744247 
L 287.521529 -106.535107 
L 286.930681 -107.325967 
L 286.089296 -108.116827 
L 285.254209 -108.907687 
L 284.726653 -109.698547 
L 284.750965 -110.489406 
L 285.416491 -111.280266 
L 286.618501 -112.071126 
L 288.118597 -112.861986 
L 289.675929 -113.652846 
L 291.160054 -114.443706 
L 292.571707 -115.234566 
L 293.976041 -116.025426 
L 295.416077 -116.816286 
L 296.869971 -117.607146 
L 298.264389 -118.398006 
L 299.514058 -119.188866 
L 300.554568 -119.979726 
L 301.356576 -120.770586 
L 301.925845 -121.561446 
L 302.295366 -122.352306 
L 302.512904 -123.143166 
L 302.627956 -123.934026 
L 302.683549 -124.724886 
L 302.714903 -125.515746 
L 302.750982 -126.306606 
L 302.81315 -127.097466 
L 302.910137 -127.888326 
L 303.034602 -128.679186 
L 303.166946 -129.470046 
L 303.286028 -130.260906 
L 303.380104 -131.051766 
L 303.450817 -131.842626 
L 303.508842 -132.633486 
L 303.565876 -133.424346 
L 303.628967 -134.215206 
L 303.699696 -135.006066 
L 303.776469 -135.796926 
L 303.856643 -136.587786 
L 303.936841 -137.378646 
L 304.012427 -138.169506 
L 304.077991 -138.960366 
L 304.129214 -139.751226 
L 304.164705 -140.542086 
L 304.186302 -141.332946 
L 304.197777 -142.123806 
L 304.214723 -142.123806 
L 304.214723 -142.123806 
L 304.226198 -141.332946 
L 304.247795 -140.542086 
L 304.283286 -139.751226 
L 304.334509 -138.960366 
L 304.400073 -138.169506 
L 304.475659 -137.378646 
L 304.555857 -136.587786 
L 304.636031 -135.796926 
L 304.712804 -135.006066 
L 304.783533 -134.215206 
L 304.846624 -133.424346 
L 304.903658 -132.633486 
L 304.961683 -131.842626 
L 305.032396 -131.051766 
L 305.126472 -130.260906 
L 305.245554 -129.470046 
L 305.377898 -128.679186 
L 305.502363 -127.888326 
L 305.59935 -127.097466 
L 305.661518 -126.306606 
L 305.697597 -125.515746 
L 305.728951 -124.724886 
L 305.784544 -123.934026 
L 305.899596 -123.143166 
L 306.117134 -122.352306 
L 306.486655 -121.561446 
L 307.055924 -120.770586 
L 307.857932 -119.979726 
L 308.898442 -119.188866 
L 310.148111 -118.398006 
L 311.542529 -117.607146 
L 312.996423 -116.816286 
L 314.436459 -116.025426 
L 315.840793 -115.234566 
L 317.252446 -114.443706 
L 318.736571 -113.652846 
L 320.293903 -112.861986 
L 321.793999 -112.071126 
L 322.996009 -111.280266 
L 323.661535 -110.489406 
L 323.685847 -109.698547 
L 323.158291 -108.907687 
L 322.323204 -108.116827 
L 321.481819 -107.325967 
L 320.890971 -106.535107 
L 320.688478 -105.744247 
L 320.855941 -104.953387 
L 321.229918 -104.162527 
L 321.566934 -103.371667 
L 321.642937 -102.580807 
L 321.34061 -101.789947 
L 320.677865 -100.999087 
L 319.767942 -100.208227 
L 318.747987 -99.417367 
L 317.724736 -98.626507 
L 316.755327 -97.835647 
L 315.849251 -97.044787 
L 314.977945 -96.253927 
L 314.094213 -95.463067 
L 313.161274 -94.672207 
L 312.175382 -93.881347 
L 311.16648 -93.090487 
L 310.181566 -92.299627 
L 309.268458 -91.508767 
L 308.46946 -90.717907 
L 307.820661 -89.927047 
L 307.349384 -89.136187 
L 307.067188 -88.345327 
L 306.96025 -87.554467 
L 306.982216 -86.763607 
L 307.057741 -85.972747 
L 307.103014 -85.181887 
L 307.05827 -84.391027 
L 306.913412 -83.600167 
L 306.707003 -82.809307 
L 306.497278 -82.018447 
L 306.326463 -81.227587 
L 306.203905 -80.436727 
L 306.114802 -79.645867 
L 306.039414 -78.855007 
L 305.963881 -78.064147 
L 305.878477 -77.273287 
L 305.772998 -76.482427 
L 305.638054 -75.691567 
L 305.470815 -74.900707 
L 305.278469 -74.109847 
L 305.076278 -73.318987 
L 304.882384 -72.528127 
L 304.712646 -71.737267 
L 304.576977 -70.946407 
L 304.477429 -70.155548 
L 304.408521 -69.364688 
L 304.360247 -68.573828 
L 304.322817 -67.782968 
L 304.290493 -66.992108 
L 304.262279 -66.201248 
L 304.239676 -65.410388 
L 304.223859 -64.619528 
L 304.214368 -63.828668 
z
" style="stroke: #4c4c4c"/>
    </defs>
    <g clip-path="url(#p00fdc580fe)">
     <use xlink:href="#m9ead5ba2c9" x="0" y="278.383125" style="fill: #5875a4; stroke: #4c4c4c"/>
    </g>
   </g>
   <g id="FillBetweenPolyCollection_6">
    <defs>
     <path id="m7ab309f466" d="M 360.009696 -46.514625 
L 360.002804 -46.514625 
L 359.989549 -48.550989 
L 359.964088 -50.587352 
L 359.948575 -52.623716 
L 359.964059 -54.66008 
L 359.988458 -56.696443 
L 359.991664 -58.732807 
L 359.977097 -60.76917 
L 359.968288 -62.805534 
L 359.97234 -64.841898 
L 359.931248 -66.878261 
L 359.683686 -68.914625 
L 359.140549 -70.950989 
L 358.645339 -72.987352 
L 358.507276 -75.023716 
L 358.395605 -77.06008 
L 358.0431 -79.096443 
L 357.65342 -81.132807 
L 357.394131 -83.16917 
L 357.149573 -85.205534 
L 356.494681 -87.241898 
L 354.992392 -89.278261 
L 353.145161 -91.314625 
L 351.617213 -93.350989 
L 350.021874 -95.387352 
L 348.127053 -97.423716 
L 346.505459 -99.46008 
L 345.439004 -101.496443 
L 344.256041 -103.532807 
L 342.53596 -105.56917 
L 340.766858 -107.605534 
L 340.952481 -109.641898 
L 344.17053 -111.678261 
L 348.280628 -113.714625 
L 351.223624 -115.750989 
L 352.981002 -117.787352 
L 354.370525 -119.823716 
L 356.027022 -121.86008 
L 357.658731 -123.896443 
L 358.651194 -125.932807 
L 359.161133 -127.96917 
L 359.543933 -130.005534 
L 359.804821 -132.041898 
L 359.925947 -134.078261 
L 359.976415 -136.114625 
L 359.990209 -138.150989 
L 359.985263 -140.187352 
L 359.98754 -142.223716 
L 359.998574 -144.26008 
L 360.004844 -146.296443 
L 360.006135 -148.332807 
L 360.006246 -150.36917 
L 360.006249 -152.405534 
L 360.006218 -154.441898 
L 360.005696 -156.478261 
L 360.002036 -158.514625 
L 359.991964 -160.550989 
L 359.984664 -162.587352 
L 359.991712 -164.623716 
L 360.001862 -166.66008 
L 360.005215 -168.696443 
L 360.002546 -170.732807 
L 359.992943 -172.76917 
L 359.98474 -174.805534 
L 359.990753 -176.841898 
L 360.001274 -178.878261 
L 360.005538 -180.914625 
L 360.006205 -182.950989 
L 360.006249 -184.987352 
L 360.00625 -187.023716 
L 360.00625 -189.06008 
L 360.006248 -191.096443 
L 360.006176 -193.132807 
L 360.005226 -195.16917 
L 359.999958 -197.205534 
L 359.989018 -199.241898 
L 359.985215 -201.278261 
L 359.994805 -203.314625 
L 360.003438 -205.350989 
L 360.005341 -207.387352 
L 360.001745 -209.423716 
L 359.991505 -211.46008 
L 359.98467 -213.496443 
L 359.992173 -215.532807 
L 360.002157 -217.56917 
L 360.00572 -219.605534 
L 360.006219 -221.641898 
L 360.006249 -223.678261 
L 360.006249 -225.714625 
L 360.006221 -227.750989 
L 360.005736 -229.787352 
L 360.002245 -231.823716 
L 359.992325 -233.86008 
L 359.98461 -235.896443 
L 359.990393 -237.932807 
L 359.995623 -239.96917 
L 359.988687 -242.005534 
L 359.985061 -244.041898 
L 359.994474 -246.078261 
L 360.003328 -248.114625 
L 360.009172 -248.114625 
L 360.009172 -248.114625 
L 360.018026 -246.078261 
L 360.027439 -244.041898 
L 360.023813 -242.005534 
L 360.016877 -239.96917 
L 360.022107 -237.932807 
L 360.02789 -235.896443 
L 360.020175 -233.86008 
L 360.010255 -231.823716 
L 360.006764 -229.787352 
L 360.006279 -227.750989 
L 360.006251 -225.714625 
L 360.006251 -223.678261 
L 360.006281 -221.641898 
L 360.00678 -219.605534 
L 360.010343 -217.56917 
L 360.020327 -215.532807 
L 360.02783 -213.496443 
L 360.020995 -211.46008 
L 360.010755 -209.423716 
L 360.007159 -207.387352 
L 360.009062 -205.350989 
L 360.017695 -203.314625 
L 360.027285 -201.278261 
L 360.023482 -199.241898 
L 360.012542 -197.205534 
L 360.007274 -195.16917 
L 360.006324 -193.132807 
L 360.006252 -191.096443 
L 360.00625 -189.06008 
L 360.00625 -187.023716 
L 360.006251 -184.987352 
L 360.006295 -182.950989 
L 360.006962 -180.914625 
L 360.011226 -178.878261 
L 360.021747 -176.841898 
L 360.02776 -174.805534 
L 360.019557 -172.76917 
L 360.009954 -170.732807 
L 360.007285 -168.696443 
L 360.010638 -166.66008 
L 360.020788 -164.623716 
L 360.027836 -162.587352 
L 360.020536 -160.550989 
L 360.010464 -158.514625 
L 360.006804 -156.478261 
L 360.006282 -154.441898 
L 360.006251 -152.405534 
L 360.006254 -150.36917 
L 360.006365 -148.332807 
L 360.007656 -146.296443 
L 360.013926 -144.26008 
L 360.02496 -142.223716 
L 360.027237 -140.187352 
L 360.022291 -138.150989 
L 360.036085 -136.114625 
L 360.086553 -134.078261 
L 360.207679 -132.041898 
L 360.468567 -130.005534 
L 360.851367 -127.96917 
L 361.361306 -125.932807 
L 362.353769 -123.896443 
L 363.985478 -121.86008 
L 365.641975 -119.823716 
L 367.031498 -117.787352 
L 368.788876 -115.750989 
L 371.731872 -113.714625 
L 375.84197 -111.678261 
L 379.060019 -109.641898 
L 379.245642 -107.605534 
L 377.47654 -105.56917 
L 375.756459 -103.532807 
L 374.573496 -101.496443 
L 373.507041 -99.46008 
L 371.885447 -97.423716 
L 369.990626 -95.387352 
L 368.395287 -93.350989 
L 366.867339 -91.314625 
L 365.020108 -89.278261 
L 363.517819 -87.241898 
L 362.862927 -85.205534 
L 362.618369 -83.16917 
L 362.35908 -81.132807 
L 361.9694 -79.096443 
L 361.616895 -77.06008 
L 361.505224 -75.023716 
L 361.367161 -72.987352 
L 360.871951 -70.950989 
L 360.328814 -68.914625 
L 360.081252 -66.878261 
L 360.04016 -64.841898 
L 360.044212 -62.805534 
L 360.035403 -60.76917 
L 360.020836 -58.732807 
L 360.024042 -56.696443 
L 360.048441 -54.66008 
L 360.063925 -52.623716 
L 360.048412 -50.587352 
L 360.022951 -48.550989 
L 360.009696 -46.514625 
z
" style="stroke: #4c4c4c"/>
    </defs>
    <g clip-path="url(#p00fdc580fe)">
     <use xlink:href="#m7ab309f466" x="0" y="278.383125" style="fill: #5875a4; stroke: #4c4c4c"/>
    </g>
   </g>
   <g id="FillBetweenPolyCollection_7">
    <defs>
     <path id="me90329dbc8" d="M 415.839644 -71.265012 
L 415.772856 -71.265012 
L 415.734678 -71.895145 
L 415.667401 -72.525279 
L 415.561598 -73.155413 
L 415.412973 -73.785546 
L 415.226189 -74.41568 
L 415.015669 -75.045814 
L 414.802327 -75.675948 
L 414.607931 -76.306081 
L 414.450414 -76.936215 
L 414.342076 -77.566349 
L 414.289597 -78.196482 
L 414.29334 -78.826616 
L 414.344991 -79.45675 
L 414.425358 -80.086883 
L 414.504887 -80.717017 
L 414.547692 -81.347151 
L 414.517793 -81.977284 
L 414.386 -82.607418 
L 414.136986 -83.237552 
L 413.776499 -83.867685 
L 413.33709 -84.497819 
L 412.878123 -85.127953 
L 412.474995 -85.758086 
L 412.195859 -86.38822 
L 412.071831 -87.018354 
L 412.074234 -87.648487 
L 412.113286 -88.278621 
L 412.063794 -88.908755 
L 411.809315 -89.538889 
L 411.286118 -90.169022 
L 410.508161 -90.799156 
L 409.562997 -91.42929 
L 408.580577 -92.059423 
L 407.687175 -92.689557 
L 406.962137 -93.319691 
L 406.414035 -93.949824 
L 405.984923 -94.579958 
L 405.579837 -95.210092 
L 405.10875 -95.840225 
L 404.524475 -96.470359 
L 403.84281 -97.100493 
L 403.137813 -97.730626 
L 402.51288 -98.36076 
L 402.056982 -98.990894 
L 401.803672 -99.621027 
L 401.712982 -100.251161 
L 401.687292 -100.881295 
L 401.614173 -101.511429 
L 401.41372 -102.141562 
L 401.066432 -102.771696 
L 400.6103 -103.40183 
L 400.112511 -104.031963 
L 399.631664 -104.662097 
L 399.1878 -105.292231 
L 398.752593 -105.922364 
L 398.263819 -106.552498 
L 397.658389 -107.182632 
L 396.909641 -107.812765 
L 396.052106 -108.442899 
L 395.183118 -109.073033 
L 394.441734 -109.703166 
L 393.974068 -110.3333 
L 393.897035 -110.963434 
L 394.271846 -111.593567 
L 395.096253 -112.223701 
L 396.318257 -112.853835 
L 397.862829 -113.483968 
L 399.654405 -114.114102 
L 401.621404 -114.744236 
L 403.684698 -115.37437 
L 405.7462 -116.004503 
L 407.693093 -116.634637 
L 409.418853 -117.264771 
L 410.848144 -117.894904 
L 411.950787 -118.525038 
L 412.739344 -119.155172 
L 413.255549 -119.785305 
L 413.554905 -120.415439 
L 413.695957 -121.045573 
L 413.735225 -121.675706 
L 413.724862 -122.30584 
L 413.709649 -122.935974 
L 413.72247 -123.566107 
L 413.780569 -124.196241 
L 413.885879 -124.826375 
L 414.030306 -125.456508 
L 414.203094 -126.086642 
L 414.395772 -126.716776 
L 414.602344 -127.346909 
L 414.81629 -127.977043 
L 415.028074 -128.607177 
L 415.225653 -129.237311 
L 415.397545 -129.867444 
L 415.536158 -130.497578 
L 415.639447 -131.127712 
L 415.710413 -131.757845 
L 415.755262 -132.387979 
L 415.78125 -133.018113 
L 415.795005 -133.648246 
L 415.817495 -133.648246 
L 415.817495 -133.648246 
L 415.83125 -133.018113 
L 415.857238 -132.387979 
L 415.902087 -131.757845 
L 415.973053 -131.127712 
L 416.076342 -130.497578 
L 416.214955 -129.867444 
L 416.386847 -129.237311 
L 416.584426 -128.607177 
L 416.79621 -127.977043 
L 417.010156 -127.346909 
L 417.216728 -126.716776 
L 417.409406 -126.086642 
L 417.582194 -125.456508 
L 417.726621 -124.826375 
L 417.831931 -124.196241 
L 417.89003 -123.566107 
L 417.902851 -122.935974 
L 417.887638 -122.30584 
L 417.877275 -121.675706 
L 417.916543 -121.045573 
L 418.057595 -120.415439 
L 418.356951 -119.785305 
L 418.873156 -119.155172 
L 419.661713 -118.525038 
L 420.764356 -117.894904 
L 422.193647 -117.264771 
L 423.919407 -116.634637 
L 425.8663 -116.004503 
L 427.927802 -115.37437 
L 429.991096 -114.744236 
L 431.958095 -114.114102 
L 433.749671 -113.483968 
L 435.294243 -112.853835 
L 436.516247 -112.223701 
L 437.340654 -111.593567 
L 437.715465 -110.963434 
L 437.638432 -110.3333 
L 437.170766 -109.703166 
L 436.429382 -109.073033 
L 435.560394 -108.442899 
L 434.702859 -107.812765 
L 433.954111 -107.182632 
L 433.348681 -106.552498 
L 432.859907 -105.922364 
L 432.4247 -105.292231 
L 431.980836 -104.662097 
L 431.499989 -104.031963 
L 431.0022 -103.40183 
L 430.546068 -102.771696 
L 430.19878 -102.141562 
L 429.998327 -101.511429 
L 429.925208 -100.881295 
L 429.899518 -100.251161 
L 429.808828 -99.621027 
L 429.555518 -98.990894 
L 429.09962 -98.36076 
L 428.474687 -97.730626 
L 427.76969 -97.100493 
L 427.088025 -96.470359 
L 426.50375 -95.840225 
L 426.032663 -95.210092 
L 425.627577 -94.579958 
L 425.198465 -93.949824 
L 424.650363 -93.319691 
L 423.925325 -92.689557 
L 423.031923 -92.059423 
L 422.049503 -91.42929 
L 421.104339 -90.799156 
L 420.326382 -90.169022 
L 419.803185 -89.538889 
L 419.548706 -88.908755 
L 419.499214 -88.278621 
L 419.538266 -87.648487 
L 419.540669 -87.018354 
L 419.416641 -86.38822 
L 419.137505 -85.758086 
L 418.734377 -85.127953 
L 418.27541 -84.497819 
L 417.836001 -83.867685 
L 417.475514 -83.237552 
L 417.2265 -82.607418 
L 417.094707 -81.977284 
L 417.064808 -81.347151 
L 417.107613 -80.717017 
L 417.187142 -80.086883 
L 417.267509 -79.45675 
L 417.31916 -78.826616 
L 417.322903 -78.196482 
L 417.270424 -77.566349 
L 417.162086 -76.936215 
L 417.004569 -76.306081 
L 416.810173 -75.675948 
L 416.596831 -75.045814 
L 416.386311 -74.41568 
L 416.199527 -73.785546 
L 416.050902 -73.155413 
L 415.945099 -72.525279 
L 415.877822 -71.895145 
L 415.839644 -71.265012 
z
" style="stroke: #4c4c4c"/>
    </defs>
    <g clip-path="url(#p00fdc580fe)">
     <use xlink:href="#me90329dbc8" x="0" y="278.383125" style="fill: #5875a4; stroke: #4c4c4c"/>
    </g>
   </g>
   <g id="FillBetweenPolyCollection_8">
    <defs>
     <path id="m6eff7c544c" d="M 471.631228 -70.949828 
L 471.581272 -70.949828 
L 471.553274 -71.564883 
L 471.504197 -72.179938 
L 471.427074 -72.794994 
L 471.318168 -73.410049 
L 471.179355 -74.025104 
L 471.018329 -74.64016 
L 470.846124 -75.255215 
L 470.673571 -75.87027 
L 470.509514 -76.485326 
L 470.362206 -77.100381 
L 470.242151 -77.715437 
L 470.162654 -78.330492 
L 470.135798 -78.945547 
L 470.165298 -79.560603 
L 470.240523 -80.175658 
L 470.335424 -80.790713 
L 470.413023 -81.405769 
L 470.433116 -82.020824 
L 470.360243 -82.63588 
L 470.170501 -83.250935 
L 469.857601 -83.86599 
L 469.438434 -84.481046 
L 468.955972 -85.096101 
L 468.474722 -85.711156 
L 468.06457 -86.326212 
L 467.774615 -86.941267 
L 467.607015 -87.556323 
L 467.50562 -88.171378 
L 467.369895 -88.786433 
L 467.091922 -89.401489 
L 466.600672 -90.016544 
L 465.892488 -90.631599 
L 465.033432 -91.246655 
L 464.133334 -91.86171 
L 463.304163 -92.476766 
L 462.620391 -93.091821 
L 462.095824 -93.706876 
L 461.683999 -94.321932 
L 461.301172 -94.936987 
L 460.863916 -95.552042 
L 460.327801 -96.167098 
L 459.711475 -96.782153 
L 459.094059 -97.397208 
L 458.583723 -98.012264 
L 458.268697 -98.627319 
L 458.172306 -99.242375 
L 458.234417 -99.85743 
L 458.330305 -100.472485 
L 458.319234 -101.087541 
L 458.099471 -101.702596 
L 457.644058 -102.317651 
L 457.003685 -102.932707 
L 456.2808 -103.547762 
L 455.590159 -104.162818 
L 455.020289 -104.777873 
L 454.604187 -105.392928 
L 454.305704 -106.007984 
L 454.030438 -106.623039 
L 453.666036 -107.238094 
L 453.140151 -107.85315 
L 452.466104 -108.468205 
L 451.746565 -109.083261 
L 451.130323 -109.698316 
L 450.748542 -110.313371 
L 450.669484 -110.928427 
L 450.895567 -111.543482 
L 451.397222 -112.158537 
L 452.155735 -112.773593 
L 453.184903 -113.388648 
L 454.517515 -114.003704 
L 456.166089 -114.618759 
L 458.083964 -115.233814 
L 460.153193 -115.84887 
L 462.2093 -116.463925 
L 464.090218 -117.07898 
L 465.682467 -117.694036 
L 466.941376 -118.309091 
L 467.880219 -118.924146 
L 468.542004 -119.539202 
L 468.974497 -120.154257 
L 469.221223 -120.769313 
L 469.326674 -121.384368 
L 469.343892 -121.999423 
L 469.333231 -122.614479 
L 469.350312 -123.229534 
L 469.430946 -123.844589 
L 469.583524 -124.459645 
L 469.793692 -125.0747 
L 470.037193 -125.689756 
L 470.292018 -126.304811 
L 470.543408 -126.919866 
L 470.781847 -127.534922 
L 470.998946 -128.149977 
L 471.18593 -128.765032 
L 471.335628 -129.380088 
L 471.445463 -129.995143 
L 471.518633 -130.610199 
L 471.562653 -131.225254 
L 471.586503 -131.840309 
L 471.625997 -131.840309 
L 471.625997 -131.840309 
L 471.649847 -131.225254 
L 471.693867 -130.610199 
L 471.767037 -129.995143 
L 471.876872 -129.380088 
L 472.02657 -128.765032 
L 472.213554 -128.149977 
L 472.430653 -127.534922 
L 472.669092 -126.919866 
L 472.920482 -126.304811 
L 473.175307 -125.689756 
L 473.418808 -125.0747 
L 473.628976 -124.459645 
L 473.781554 -123.844589 
L 473.862188 -123.229534 
L 473.879269 -122.614479 
L 473.868608 -121.999423 
L 473.885826 -121.384368 
L 473.991277 -120.769313 
L 474.238003 -120.154257 
L 474.670496 -119.539202 
L 475.332281 -118.924146 
L 476.271124 -118.309091 
L 477.530033 -117.694036 
L 479.122282 -117.07898 
L 481.0032 -116.463925 
L 483.059307 -115.84887 
L 485.128536 -115.233814 
L 487.046411 -114.618759 
L 488.694985 -114.003704 
L 490.027597 -113.388648 
L 491.056765 -112.773593 
L 491.815278 -112.158537 
L 492.316933 -111.543482 
L 492.543016 -110.928427 
L 492.463958 -110.313371 
L 492.082177 -109.698316 
L 491.465935 -109.083261 
L 490.746396 -108.468205 
L 490.072349 -107.85315 
L 489.546464 -107.238094 
L 489.182062 -106.623039 
L 488.906796 -106.007984 
L 488.608313 -105.392928 
L 488.192211 -104.777873 
L 487.622341 -104.162818 
L 486.9317 -103.547762 
L 486.208815 -102.932707 
L 485.568442 -102.317651 
L 485.113029 -101.702596 
L 484.893266 -101.087541 
L 484.882195 -100.472485 
L 484.978083 -99.85743 
L 485.040194 -99.242375 
L 484.943803 -98.627319 
L 484.628777 -98.012264 
L 484.118441 -97.397208 
L 483.501025 -96.782153 
L 482.884699 -96.167098 
L 482.348584 -95.552042 
L 481.911328 -94.936987 
L 481.528501 -94.321932 
L 481.116676 -93.706876 
L 480.592109 -93.091821 
L 479.908337 -92.476766 
L 479.079166 -91.86171 
L 478.179068 -91.246655 
L 477.320012 -90.631599 
L 476.611828 -90.016544 
L 476.120578 -89.401489 
L 475.842605 -88.786433 
L 475.70688 -88.171378 
L 475.605485 -87.556323 
L 475.437885 -86.941267 
L 475.14793 -86.326212 
L 474.737778 -85.711156 
L 474.256528 -85.096101 
L 473.774066 -84.481046 
L 473.354899 -83.86599 
L 473.041999 -83.250935 
L 472.852257 -82.63588 
L 472.779384 -82.020824 
L 472.799477 -81.405769 
L 472.877076 -80.790713 
L 472.971977 -80.175658 
L 473.047202 -79.560603 
L 473.076702 -78.945547 
L 473.049846 -78.330492 
L 472.970349 -77.715437 
L 472.850294 -77.100381 
L 472.702986 -76.485326 
L 472.538929 -75.87027 
L 472.366376 -75.255215 
L 472.194171 -74.64016 
L 472.033145 -74.025104 
L 471.894332 -73.410049 
L 471.785426 -72.794994 
L 471.708303 -72.179938 
L 471.659226 -71.564883 
L 471.631228 -70.949828 
z
" style="stroke: #4c4c4c"/>
    </defs>
    <g clip-path="url(#p00fdc580fe)">
     <use xlink:href="#m6eff7c544c" x="0" y="278.383125" style="fill: #5875a4; stroke: #4c4c4c"/>
    </g>
   </g>
   <g id="line2d_9">
    <path d="M 81.00625 200.063517 
L 81.00625 148.988722 
" clip-path="url(#p00fdc580fe)" style="fill: none; stroke: #4c4c4c; stroke-width: 1.5; stroke-linecap: round"/>
   </g>
   <g id="line2d_10">
    <path d="M 81.00625 180.873201 
L 81.00625 168.058236 
" clip-path="url(#p00fdc580fe)" style="fill: none; stroke: #4c4c4c; stroke-width: 4.5; stroke-linecap: round"/>
   </g>
   <g id="line2d_11">
    <path d="M 81.00625 173.49373 
" clip-path="url(#p00fdc580fe)" style="fill: none; stroke: #4c4c4c; stroke-width: 1.2; stroke-linecap: round"/>
    <defs>
     <path id="m1740a8fdb7" d="M 1.875 0 
L -1.875 -0 
" style="stroke: #ffffff; stroke-width: 0.9"/>
    </defs>
    <g clip-path="url(#p00fdc580fe)">
     <use xlink:href="#m1740a8fdb7" x="81.00625" y="173.49373" style="fill: #ffffff; stroke: #ffffff; stroke-width: 0.9"/>
    </g>
   </g>
   <g id="line2d_12">
    <path d="M 136.80625 199.843294 
L 136.80625 148.892223 
" clip-path="url(#p00fdc580fe)" style="fill: none; stroke: #4c4c4c; stroke-width: 1.5; stroke-linecap: round"/>
   </g>
   <g id="line2d_13">
    <path d="M 136.80625 180.660742 
L 136.80625 167.858715 
" clip-path="url(#p00fdc580fe)" style="fill: none; stroke: #4c4c4c; stroke-width: 4.5; stroke-linecap: round"/>
   </g>
   <g id="line2d_14">
    <path d="M 136.80625 173.350715 
" clip-path="url(#p00fdc580fe)" style="fill: none; stroke: #4c4c4c; stroke-width: 1.2; stroke-linecap: round"/>
    <g clip-path="url(#p00fdc580fe)">
     <use xlink:href="#m1740a8fdb7" x="136.80625" y="173.350715" style="fill: #ffffff; stroke: #ffffff; stroke-width: 0.9"/>
    </g>
   </g>
   <g id="line2d_15">
    <path d="M 192.60625 198.019272 
L 192.60625 149.304411 
" clip-path="url(#p00fdc580fe)" style="fill: none; stroke: #4c4c4c; stroke-width: 1.5; stroke-linecap: round"/>
   </g>
   <g id="line2d_16">
    <path d="M 192.60625 179.499765 
L 192.60625 167.089965 
" clip-path="url(#p00fdc580fe)" style="fill: none; stroke: #4c4c4c; stroke-width: 4.5; stroke-linecap: round"/>
   </g>
   <g id="line2d_17">
    <path d="M 192.60625 172.525676 
" clip-path="url(#p00fdc580fe)" style="fill: none; stroke: #4c4c4c; stroke-width: 1.2; stroke-linecap: round"/>
    <g clip-path="url(#p00fdc580fe)">
     <use xlink:href="#m1740a8fdb7" x="192.60625" y="172.525676" style="fill: #ffffff; stroke: #ffffff; stroke-width: 0.9"/>
    </g>
   </g>
   <g id="line2d_18">
    <path d="M 248.40625 197.975914 
L 248.40625 148.518813 
" clip-path="url(#p00fdc580fe)" style="fill: none; stroke: #4c4c4c; stroke-width: 1.5; stroke-linecap: round"/>
   </g>
   <g id="line2d_19">
    <path d="M 248.40625 179.46468 
L 248.40625 167.052609 
" clip-path="url(#p00fdc580fe)" style="fill: none; stroke: #4c4c4c; stroke-width: 4.5; stroke-linecap: round"/>
   </g>
   <g id="line2d_20">
    <path d="M 248.40625 172.426502 
" clip-path="url(#p00fdc580fe)" style="fill: none; stroke: #4c4c4c; stroke-width: 1.2; stroke-linecap: round"/>
    <g clip-path="url(#p00fdc580fe)">
     <use xlink:href="#m1740a8fdb7" x="248.40625" y="172.426502" style="fill: #ffffff; stroke: #ffffff; stroke-width: 0.9"/>
    </g>
   </g>
   <g id="line2d_21">
    <path d="M 304.20625 198.185152 
L 304.20625 148.574862 
" clip-path="url(#p00fdc580fe)" style="fill: none; stroke: #4c4c4c; stroke-width: 1.5; stroke-linecap: round"/>
   </g>
   <g id="line2d_22">
    <path d="M 304.20625 179.53251 
L 304.20625 167.084325 
" clip-path="url(#p00fdc580fe)" style="fill: none; stroke: #4c4c4c; stroke-width: 4.5; stroke-linecap: round"/>
   </g>
   <g id="line2d_23">
    <path d="M 304.20625 173.060645 
" clip-path="url(#p00fdc580fe)" style="fill: none; stroke: #4c4c4c; stroke-width: 1.2; stroke-linecap: round"/>
    <g clip-path="url(#p00fdc580fe)">
     <use xlink:href="#m1740a8fdb7" x="304.20625" y="173.060645" style="fill: #ffffff; stroke: #ffffff; stroke-width: 0.9"/>
    </g>
   </g>
   <g id="line2d_24">
    <path d="M 360.00625 200.265287 
L 360.00625 148.619144 
" clip-path="url(#p00fdc580fe)" style="fill: none; stroke: #4c4c4c; stroke-width: 1.5; stroke-linecap: round"/>
   </g>
   <g id="line2d_25">
    <path d="M 360.00625 180.796779 
L 360.00625 167.65566 
" clip-path="url(#p00fdc580fe)" style="fill: none; stroke: #4c4c4c; stroke-width: 4.5; stroke-linecap: round"/>
   </g>
   <g id="line2d_26">
    <path d="M 360.00625 173.198303 
" clip-path="url(#p00fdc580fe)" style="fill: none; stroke: #4c4c4c; stroke-width: 1.2; stroke-linecap: round"/>
    <g clip-path="url(#p00fdc580fe)">
     <use xlink:href="#m1740a8fdb7" x="360.00625" y="173.198303" style="fill: #ffffff; stroke: #ffffff; stroke-width: 0.9"/>
    </g>
   </g>
   <g id="line2d_27">
    <path d="M 415.80625 198.976762 
L 415.80625 148.441692 
" clip-path="url(#p00fdc580fe)" style="fill: none; stroke: #4c4c4c; stroke-width: 1.5; stroke-linecap: round"/>
   </g>
   <g id="line2d_28">
    <path d="M 415.80625 179.738604 
L 415.80625 166.896513 
" clip-path="url(#p00fdc580fe)" style="fill: none; stroke: #4c4c4c; stroke-width: 4.5; stroke-linecap: round"/>
   </g>
   <g id="line2d_29">
    <path d="M 415.80625 172.443216 
" clip-path="url(#p00fdc580fe)" style="fill: none; stroke: #4c4c4c; stroke-width: 1.2; stroke-linecap: round"/>
    <g clip-path="url(#p00fdc580fe)">
     <use xlink:href="#m1740a8fdb7" x="415.80625" y="172.443216" style="fill: #ffffff; stroke: #ffffff; stroke-width: 0.9"/>
    </g>
   </g>
   <g id="line2d_30">
    <path d="M 471.60625 199.781484 
L 471.60625 150.233917 
" clip-path="url(#p00fdc580fe)" style="fill: none; stroke: #4c4c4c; stroke-width: 1.5; stroke-linecap: round"/>
   </g>
   <g id="line2d_31">
    <path d="M 471.60625 180.056058 
L 471.60625 166.864153 
" clip-path="url(#p00fdc580fe)" style="fill: none; stroke: #4c4c4c; stroke-width: 4.5; stroke-linecap: round"/>
   </g>
   <g id="line2d_32">
    <path d="M 471.60625 172.536811 
" clip-path="url(#p00fdc580fe)" style="fill: none; stroke: #4c4c4c; stroke-width: 1.2; stroke-linecap: round"/>
    <g clip-path="url(#p00fdc580fe)">
     <use xlink:href="#m1740a8fdb7" x="471.60625" y="172.536811" style="fill: #ffffff; stroke: #ffffff; stroke-width: 0.9"/>
    </g>
   </g>
   <g id="line2d_33">
    <path d="M 53.10625 173.986625 
L 499.50625 173.986625 
" clip-path="url(#p00fdc580fe)" style="fill: none; stroke-dasharray: 2.96,1.28; stroke-dashoffset: 0; stroke: #1a1a1a; stroke-width: 0.8"/>
   </g>
   <g id="patch_3">
    <path d="M 53.10625 241.9485 
L 53.10625 20.1885 
" style="fill: none; stroke: #cccccc; stroke-linejoin: miter; stroke-linecap: square"/>
   </g>
   <g id="patch_4">
    <path d="M 499.50625 241.9485 
L 499.50625 20.1885 
" style="fill: none; stroke: #cccccc; stroke-linejoin: miter; stroke-linecap: square"/>
   </g>
   <g id="patch_5">
    <path d="M 53.10625 241.9485 
L 499.50625 241.9485 
" style="fill: none; stroke: #cccccc; stroke-linejoin: miter; stroke-linecap: square"/>
   </g>
   <g id="patch_6">
    <path d="M 53.10625 20.1885 
L 499.50625 20.1885 
" style="fill: none; stroke: #cccccc; stroke-linejoin: miter; stroke-linecap: square"/>
   </g>
   <g id="text_19">
    <!-- Residual distribution — top 8 (LT2) -->
    <g style="fill: #262626" transform="translate(202.49725 14.1885) scale(0.096 -0.096)">
     <defs>
      <path id="ArialMT-52" d="M 503 0 
L 503 4581 
L 2534 4581 
Q 3147 4581 3465 4457 
Q 3784 4334 3975 4021 
Q 4166 3709 4166 3331 
Q 4166 2844 3850 2509 
Q 3534 2175 2875 2084 
Q 3116 1969 3241 1856 
Q 3506 1613 3744 1247 
L 4541 0 
L 3778 0 
L 3172 953 
Q 2906 1366 2734 1584 
Q 2563 1803 2427 1890 
Q 2291 1978 2150 2013 
Q 2047 2034 1813 2034 
L 1109 2034 
L 1109 0 
L 503 0 
z
M 1109 2559 
L 2413 2559 
Q 2828 2559 3062 2645 
Q 3297 2731 3419 2920 
Q 3541 3109 3541 3331 
Q 3541 3656 3305 3865 
Q 3069 4075 2559 4075 
L 1109 4075 
L 1109 2559 
z
" transform="scale(0.015625)"/>
      <path id="ArialMT-2014" d="M 0 1431 
L 0 1884 
L 6400 1884 
L 6400 1431 
L 0 1431 
z
" transform="scale(0.015625)"/>
      <path id="ArialMT-28" d="M 1497 -1347 
Q 1031 -759 709 28 
Q 388 816 388 1659 
Q 388 2403 628 3084 
Q 909 3875 1497 4659 
L 1900 4659 
Q 1522 4009 1400 3731 
Q 1209 3300 1100 2831 
Q 966 2247 966 1656 
Q 966 153 1900 -1347 
L 1497 -1347 
z
" transform="scale(0.015625)"/>
      <path id="ArialMT-54" d="M 1659 0 
L 1659 4041 
L 150 4041 
L 150 4581 
L 3781 4581 
L 3781 4041 
L 2266 4041 
L 2266 0 
L 1659 0 
z
" transform="scale(0.015625)"/>
      <path id="ArialMT-29" d="M 791 -1347 
L 388 -1347 
Q 1322 153 1322 1656 
Q 1322 2244 1188 2822 
Q 1081 3291 891 3722 
Q 769 4003 388 4659 
L 791 4659 
Q 1378 3875 1659 3084 
Q 1900 2403 1900 1659 
Q 1900 816 1576 28 
Q 1253 -759 791 -1347 
z
" transform="scale(0.015625)"/>
     </defs>
     <use xlink:href="#ArialMT-52"/>
     <use xlink:href="#ArialMT-65" transform="translate(72.216797 0)"/>
     <use xlink:href="#ArialMT-73" transform="translate(127.832031 0)"/>
     <use xlink:href="#ArialMT-69" transform="translate(177.832031 0)"/>
     <use xlink:href="#ArialMT-64" transform="translate(200.048828 0)"/>
     <use xlink:href="#ArialMT-75" transform="translate(255.664062 0)"/>
     <use xlink:href="#ArialMT-61" transform="translate(311.279297 0)"/>
     <use xlink:href="#ArialMT-6c" transform="translate(366.894531 0)"/>
     <use xlink:href="#ArialMT-20" transform="translate(389.111328 0)"/>
     <use xlink:href="#ArialMT-64" transform="translate(416.894531 0)"/>
     <use xlink:href="#ArialMT-69" transform="translate(472.509766 0)"/>
     <use xlink:href="#ArialMT-73" transform="translate(494.726562 0)"/>
     <use xlink:href="#ArialMT-74" transform="translate(544.726562 0)"/>
     <use xlink:href="#ArialMT-72" transform="translate(572.509766 0)"/>
     <use xlink:href="#ArialMT-69" transform="translate(605.810547 0)"/>
     <use xlink:href="#ArialMT-62" transform="translate(628.027344 0)"/>
     <use xlink:href="#ArialMT-75" transform="translate(683.642578 0)"/>
     <use xlink:href="#ArialMT-74" transform="translate(739.257812 0)"/>
     <use xlink:href="#ArialMT-69" transform="translate(767.041016 0)"/>
     <use xlink:href="#ArialMT-6f" transform="translate(789.257812 0)"/>
     <use xlink:href="#ArialMT-6e" transform="translate(844.873047 0)"/>
     <use xlink:href="#ArialMT-20" transform="translate(900.488281 0)"/>
     <use xlink:href="#ArialMT-2014" transform="translate(928.271484 0)"/>
     <use xlink:href="#ArialMT-20" transform="translate(1028.271484 0)"/>
     <use xlink:href="#ArialMT-74" transform="translate(1056.054688 0)"/>
     <use xlink:href="#ArialMT-6f" transform="translate(1083.837891 0)"/>
     <use xlink:href="#ArialMT-70" transform="translate(1139.453125 0)"/>
     <use xlink:href="#ArialMT-20" transform="translate(1195.068359 0)"/>
     <use xlink:href="#ArialMT-38" transform="translate(1222.851562 0)"/>
     <use xlink:href="#ArialMT-20" transform="translate(1278.466797 0)"/>
     <use xlink:href="#ArialMT-28" transform="translate(1306.25 0)"/>
     <use xlink:href="#ArialMT-4c" transform="translate(1339.550781 0)"/>
     <use xlink:href="#ArialMT-54" transform="translate(1387.791016 0)"/>
     <use xlink:href="#ArialMT-32" transform="translate(1448.875 0)"/>
     <use xlink:href="#ArialMT-29" transform="translate(1504.490234 0)"/>
    </g>
   </g>
  </g>
 </g>
 <defs>
  <clipPath id="p00fdc580fe">
   <rect x="53.10625" y="20.1885" width="446.4" height="221.76"/>
  </clipPath>
 </defs>
</svg>
